P2
91 149
255 
0 0 0 0 0 0 0 0 0 0 0 0 0 0 0 0 0 0 0 0 0 0 0 0 0 0 0 0 0 0 0 0 0 0 0 0 0 0 0 0 0 0 0 0 0 0 0 0 0 0 0 0 0 0 0 153 0 0 0 0 0 0 0 0 0 0 0 0 0 0 0 0 0 0 0 0 0 0 0 0 0 0 0 0 0 0 0 0 0 0 0 
0 0 0 0 0 0 0 0 0 0 0 0 0 0 0 0 0 0 0 0 0 0 0 0 0 0 0 0 0 0 0 0 0 0 0 0 0 0 0 0 0 0 0 0 0 0 0 0 0 0 0 0 162 162 154 0 0 0 0 0 0 0 0 0 0 0 0 0 0 0 0 0 0 0 0 0 0 0 0 0 0 0 0 0 0 0 0 0 0 0 0 
0 0 0 0 0 0 0 0 0 0 0 0 0 0 0 0 0 0 0 0 0 0 0 0 0 0 0 0 0 0 0 0 0 0 0 0 0 0 0 0 0 0 0 0 0 0 0 0 0 0 205 205 205 205 205 188 0 0 0 0 0 0 0 0 0 0 0 0 0 0 0 0 0 0 0 0 0 0 0 0 0 0 0 0 0 0 0 0 0 0 0 
0 0 0 0 0 0 0 0 0 0 0 0 0 0 0 0 0 0 0 0 0 0 0 0 0 0 0 0 0 0 0 0 0 0 0 0 0 0 0 0 0 0 0 0 0 0 255 0 145 205 205 205 205 205 205 205 0 0 0 0 0 0 0 0 0 0 0 0 0 0 0 0 0 0 0 0 0 0 0 0 0 0 0 0 0 0 0 0 0 0 0 
0 0 0 0 0 0 0 0 0 0 0 0 0 0 0 0 0 0 0 0 0 0 0 0 0 0 0 0 0 0 0 0 0 0 0 0 0 0 0 0 0 0 0 0 0 0 0 111 205 205 205 205 205 205 205 205 0 153 0 0 0 0 0 0 0 0 0 0 0 0 0 0 0 0 0 0 0 0 0 0 0 0 0 0 0 0 0 0 0 0 0 
0 0 0 0 0 0 0 0 0 0 0 0 0 0 0 0 0 0 0 0 0 0 0 0 0 0 0 0 0 0 0 0 0 0 0 0 0 0 0 0 0 0 0 0 0 0 111 205 205 205 205 205 205 205 205 205 0 0 0 0 0 0 0 0 0 0 137 205 205 205 205 205 0 0 0 0 0 0 0 0 0 0 0 0 0 0 0 0 0 0 0 
0 0 0 0 0 0 0 0 0 0 0 0 0 0 0 0 0 0 0 0 0 0 0 0 0 0 0 0 0 0 0 0 0 0 0 0 0 0 0 0 0 0 0 0 0 0 205 205 205 205 205 205 205 205 205 137 0 0 0 0 0 153 0 0 137 205 205 205 205 205 205 205 154 0 0 0 0 0 0 0 0 0 0 0 0 0 0 0 0 0 0 
0 0 0 0 0 0 0 0 0 0 0 0 0 0 0 0 0 0 0 0 0 0 0 0 0 0 0 0 0 0 0 0 0 0 0 0 0 0 0 0 0 0 0 0 0 162 205 205 205 205 205 205 205 205 205 0 0 205 162 137 0 0 0 0 205 205 205 205 205 205 205 205 205 0 0 0 0 0 0 0 0 0 0 0 0 0 0 0 0 0 0 
0 0 0 0 0 0 0 0 0 0 0 0 0 0 0 0 0 0 0 0 0 0 0 0 0 0 0 0 0 0 0 0 0 0 0 0 0 0 0 0 0 0 0 0 0 205 205 205 205 205 205 205 205 205 205 0 137 205 205 205 205 205 137 0 0 111 205 205 205 205 205 205 205 137 0 0 0 0 0 0 0 0 0 0 0 0 0 0 0 0 0 
0 0 0 0 0 0 0 0 0 0 0 0 0 0 0 0 0 0 0 0 0 0 0 0 0 0 0 0 0 0 0 0 0 0 0 0 0 0 0 0 0 0 0 0 111 205 205 205 205 205 205 205 205 205 0 0 205 205 205 205 205 205 205 205 137 0 0 205 205 205 205 205 205 0 0 0 0 0 0 0 0 0 0 0 0 0 0 0 0 0 0 
0 0 0 0 0 0 0 0 0 0 0 0 0 0 0 0 0 0 0 0 0 0 0 0 0 0 0 0 0 0 0 0 0 0 0 0 0 0 0 0 0 0 0 0 137 205 205 205 205 205 205 205 205 137 0 162 205 205 205 205 205 205 205 205 205 205 0 0 162 205 205 205 205 0 0 0 0 0 0 0 0 0 0 0 0 0 0 0 0 0 0 
0 0 0 0 0 0 0 0 0 0 0 0 0 0 0 0 0 0 0 0 0 0 0 0 0 0 0 0 0 0 0 0 0 0 0 0 0 0 0 0 0 0 0 0 145 205 205 205 205 205 205 205 162 0 137 205 205 205 205 205 205 205 205 205 205 205 205 0 0 162 205 205 111 127 0 0 0 0 0 0 0 0 0 0 0 0 0 0 0 0 0 
0 0 0 0 0 0 0 0 0 0 0 0 0 0 0 0 0 0 0 0 0 0 0 0 0 0 0 0 0 0 0 0 0 0 0 0 0 0 0 0 0 0 137 154 137 205 205 205 205 205 205 205 0 154 205 205 205 205 205 205 205 205 205 205 205 205 205 205 0 0 205 188 0 0 0 0 0 0 0 0 0 0 0 0 0 0 0 0 0 0 0 
0 0 0 0 0 0 0 0 0 0 0 0 0 0 0 0 0 0 0 0 0 0 0 0 0 0 0 0 0 0 0 0 0 0 0 0 0 0 0 0 0 137 213 137 0 205 205 205 205 205 205 111 137 205 205 205 205 205 205 205 205 205 205 205 205 205 205 205 205 0 0 111 153 0 0 0 0 0 0 0 0 0 0 0 0 0 0 0 0 0 0 
0 0 0 0 0 0 0 0 0 0 0 0 0 0 0 0 0 0 0 0 0 0 0 0 0 0 0 0 0 0 0 0 0 0 0 0 0 0 0 0 111 205 205 205 0 111 205 205 205 205 205 188 205 205 205 205 205 205 205 205 205 205 205 205 205 205 205 205 205 137 0 153 0 0 0 0 0 0 0 0 0 0 0 0 0 0 0 0 0 0 0 
0 0 0 0 0 0 0 0 0 0 0 0 0 0 0 0 0 0 0 0 0 0 0 0 0 0 0 0 0 0 0 0 0 0 0 0 0 0 0 0 205 205 205 205 154 0 205 205 205 205 205 205 205 205 205 205 205 205 205 205 205 205 205 205 205 205 205 205 205 205 0 0 0 0 0 0 0 0 0 0 0 0 0 0 0 0 0 0 0 0 0 
0 0 0 0 0 0 0 0 0 0 0 0 0 0 0 0 0 0 0 0 0 0 0 0 0 0 0 0 0 0 0 0 0 0 0 0 0 0 0 162 205 205 205 205 205 205 205 205 205 205 205 205 205 205 205 205 205 205 205 205 205 205 205 205 205 205 205 205 205 205 205 0 153 0 0 0 0 0 0 0 0 0 0 0 0 0 0 0 0 0 0 
0 0 0 0 0 0 0 0 0 0 0 0 0 0 0 0 0 0 0 0 0 0 0 0 0 0 0 0 0 0 0 0 0 0 0 0 0 153 0 205 205 205 205 205 205 205 205 205 205 205 205 205 205 205 205 205 205 205 205 205 205 205 205 205 205 205 205 205 205 205 205 162 0 0 0 0 0 0 0 0 0 0 0 0 0 0 0 0 0 0 0 
0 0 0 0 0 0 0 0 0 0 0 0 0 0 0 0 0 0 0 0 0 0 0 0 0 0 0 0 0 0 0 0 0 0 0 0 0 0 154 205 205 205 205 205 205 205 205 205 205 205 205 205 205 205 205 205 205 205 205 205 205 205 205 205 205 205 205 205 205 205 205 205 137 119 0 0 0 0 0 0 0 0 0 0 0 0 0 0 0 0 0 
0 0 0 0 0 0 0 0 0 0 0 0 0 0 0 0 0 0 0 0 0 0 0 0 0 0 0 0 0 0 0 0 0 0 0 0 0 0 205 205 205 205 205 205 205 205 205 205 205 205 205 205 205 205 205 205 205 205 205 205 205 205 205 205 205 205 205 205 205 205 205 205 205 0 0 0 0 0 0 0 0 0 0 0 0 0 0 0 0 0 0 
0 0 0 0 0 0 0 0 0 0 0 0 0 0 0 0 0 0 0 0 0 0 0 0 0 0 0 0 0 0 0 0 0 0 0 0 0 137 205 205 205 205 205 205 205 205 205 205 205 205 205 205 205 205 205 205 205 205 205 205 205 205 205 205 205 205 205 205 205 205 205 205 205 162 0 0 0 0 0 0 0 0 0 0 0 0 0 0 0 0 0 
0 0 0 0 0 0 0 0 0 0 0 0 0 0 0 0 0 0 0 0 0 0 0 0 0 0 0 0 0 0 0 0 0 0 0 0 0 205 205 205 205 205 205 205 205 205 205 205 205 205 205 205 205 205 205 205 205 205 205 205 205 205 205 205 205 205 205 205 205 205 205 205 205 205 162 127 0 0 0 0 0 0 0 0 0 0 0 0 0 0 0 
0 0 0 0 0 0 0 0 0 0 0 0 0 0 0 0 0 0 0 0 0 0 0 0 0 0 0 0 0 0 0 0 0 0 0 0 0 205 205 205 205 205 205 205 205 205 205 205 205 205 205 205 205 205 205 205 205 205 205 205 205 205 205 205 205 205 205 205 205 205 205 205 205 205 205 137 119 0 0 0 0 0 0 0 0 0 0 0 0 0 0 
0 0 0 0 0 0 0 0 0 0 0 0 0 0 0 0 0 0 0 0 0 0 0 0 0 0 0 0 0 0 0 0 0 0 0 0 137 205 205 205 205 205 205 205 205 205 205 205 205 205 205 205 205 205 205 205 205 205 205 205 205 205 205 205 205 205 205 205 205 205 205 205 205 205 205 205 111 127 0 0 0 0 0 0 0 0 0 0 0 0 0 
0 0 0 0 0 0 0 0 0 0 0 0 0 0 0 0 0 0 0 0 0 0 0 0 0 0 0 0 0 0 0 0 0 0 0 153 162 205 205 205 205 205 205 205 205 205 205 205 205 205 205 205 205 205 205 205 205 205 205 205 205 205 205 205 205 205 205 205 205 205 205 205 205 205 205 205 205 111 0 0 0 0 0 0 0 0 0 0 0 0 0 
0 0 0 0 0 0 0 0 0 0 0 0 0 0 0 0 0 0 0 0 0 0 0 0 0 0 0 0 0 0 0 0 0 0 0 145 205 205 205 205 205 205 205 205 205 205 205 205 205 205 205 205 205 205 205 205 205 205 205 205 205 205 205 205 205 205 205 205 205 205 205 205 205 205 205 205 205 205 137 0 0 0 0 0 0 0 0 0 0 0 0 
0 0 0 0 0 0 0 0 0 0 0 0 0 0 0 0 0 0 0 0 0 0 0 0 0 0 0 0 0 0 0 0 0 0 0 137 205 205 205 205 205 205 205 205 205 205 205 205 205 205 205 205 205 205 205 205 205 205 205 205 205 205 205 205 205 205 205 205 205 205 205 205 205 205 205 205 205 205 205 0 153 0 0 0 0 0 0 0 0 0 0 
0 0 0 0 0 0 0 0 0 0 0 0 0 0 0 0 0 0 0 0 0 0 0 0 0 0 0 0 0 0 0 0 0 0 0 162 205 205 205 205 205 205 205 205 205 205 205 205 205 205 205 205 205 205 205 205 205 205 205 205 205 205 205 205 205 205 0 0 0 162 205 205 205 205 205 205 205 205 205 0 0 0 0 0 0 0 0 0 0 0 0 
0 0 0 0 0 0 0 0 0 0 0 0 0 0 0 0 0 0 0 0 0 0 0 0 0 0 0 0 0 0 0 0 0 0 0 205 205 205 205 205 205 205 205 205 205 205 205 205 205 205 205 205 205 205 205 205 205 205 205 205 205 205 205 205 205 111 137 162 154 205 205 205 205 205 205 205 205 205 205 0 119 0 0 0 0 0 0 0 0 0 0 
0 0 0 0 0 0 0 0 0 0 0 0 0 0 0 0 0 0 0 0 0 0 0 0 0 0 0 0 0 0 0 0 0 0 0 205 205 205 205 205 205 205 205 205 205 205 205 205 205 205 205 205 205 205 205 205 205 205 205 205 205 205 205 205 154 162 205 205 205 205 205 205 205 205 205 205 205 205 205 0 0 0 0 0 0 0 0 0 0 0 0 
0 0 0 0 0 0 0 0 0 0 0 0 0 0 0 0 0 0 0 0 0 0 0 0 0 0 0 0 0 0 0 0 0 0 137 205 205 205 205 205 205 205 205 205 205 205 205 205 205 205 205 205 205 205 205 205 205 205 205 205 205 205 205 205 205 205 205 205 205 205 205 205 205 205 205 205 205 205 0 0 0 0 0 0 0 0 0 0 0 0 0 
0 0 0 0 0 0 0 0 0 0 0 0 0 0 0 0 0 0 0 0 0 0 0 0 0 0 0 0 0 0 0 0 0 0 205 205 205 205 205 205 205 205 205 205 205 205 205 205 205 205 205 205 205 205 205 205 205 205 205 205 205 205 205 205 205 205 205 205 205 205 205 205 205 205 205 205 205 137 119 0 0 0 0 0 0 0 0 0 0 0 0 
0 0 0 0 0 0 0 0 0 0 0 0 0 0 0 0 0 0 0 0 0 0 0 0 0 0 0 0 0 0 0 0 0 162 205 205 205 205 205 205 205 205 205 205 205 205 205 205 205 205 205 205 205 205 205 205 205 205 205 205 205 205 205 205 205 205 205 205 205 205 205 205 205 205 205 205 111 0 0 0 0 0 0 0 0 0 0 0 0 0 0 
0 0 0 0 0 0 0 0 0 0 0 0 0 0 0 0 0 0 0 0 0 0 0 0 0 0 0 0 0 0 0 0 111 205 205 205 205 205 205 205 205 205 205 205 205 205 205 205 205 205 205 205 205 205 205 205 205 205 205 205 205 205 205 205 205 205 188 0 0 205 205 205 205 205 205 188 119 0 0 0 0 0 0 0 0 0 0 0 0 0 0 
0 0 0 0 0 0 0 0 0 0 0 0 0 0 0 0 0 0 0 0 0 0 0 0 0 0 0 0 0 0 0 0 205 205 205 205 205 205 205 205 205 205 205 205 205 205 205 205 205 205 205 205 205 205 205 205 205 205 205 205 205 205 205 205 205 205 0 0 0 205 205 205 205 205 205 205 0 127 0 0 0 0 0 0 0 0 0 0 0 0 0 
0 0 0 0 0 0 0 0 0 0 0 0 0 0 0 0 0 0 0 0 0 0 0 0 0 0 0 0 0 0 0 205 205 205 205 205 205 205 205 205 205 205 205 205 205 205 205 205 205 205 205 205 205 205 205 205 205 205 205 205 205 205 205 205 205 0 0 0 111 205 205 205 205 205 205 205 205 111 0 0 0 0 0 0 0 0 0 0 0 0 0 
0 0 0 0 0 0 0 0 0 0 0 0 0 0 0 0 0 0 0 0 0 0 0 0 0 0 0 0 103 0 0 205 205 205 205 205 205 205 205 205 205 205 205 205 205 205 205 205 205 205 205 205 205 205 205 205 205 205 205 205 205 205 205 205 205 162 0 111 205 205 205 205 205 205 205 205 205 205 205 162 0 0 0 0 0 0 0 0 0 0 0 
0 0 0 0 0 0 0 0 0 0 0 0 0 0 0 0 0 0 0 0 0 0 0 0 0 0 0 0 0 0 0 111 205 205 205 205 205 205 205 205 205 205 205 205 205 205 205 205 205 205 205 205 205 205 205 205 205 205 205 205 205 205 205 205 205 205 205 205 205 205 205 205 205 205 205 205 205 205 205 205 205 0 0 0 0 0 0 0 0 0 0 
0 0 0 0 0 0 0 0 0 0 0 0 0 0 0 0 0 0 0 0 0 0 0 0 0 0 0 0 103 0 0 0 188 205 205 205 205 205 205 205 205 205 205 205 205 205 205 205 205 205 205 205 205 205 205 205 205 205 205 205 205 205 205 205 205 205 205 205 205 205 205 205 205 205 205 205 205 205 205 205 205 205 0 153 0 0 0 0 0 0 0 
0 0 0 0 0 0 0 0 0 0 0 0 0 0 0 0 0 0 0 0 0 0 0 0 0 0 0 0 0 0 0 0 0 205 205 205 205 205 205 205 205 205 205 205 205 205 205 205 205 205 205 205 205 205 205 205 205 205 205 205 205 205 205 205 205 205 205 205 205 205 205 205 205 205 205 205 205 205 205 205 205 205 162 0 0 0 0 0 0 0 0 
0 0 0 0 0 0 0 0 0 0 0 0 0 0 0 0 0 0 0 0 0 0 0 0 0 0 0 0 103 0 0 0 0 0 205 205 205 205 205 205 205 205 205 205 205 205 205 205 205 205 205 205 205 205 205 205 205 205 205 205 205 205 205 205 205 205 205 205 205 205 205 205 205 205 205 205 205 205 205 205 0 0 0 0 0 0 0 0 0 0 0 
0 0 0 0 0 0 0 0 0 0 0 0 0 0 0 0 0 0 0 0 0 0 0 0 0 0 0 0 0 0 0 0 0 0 0 205 205 205 205 205 205 205 205 205 205 205 205 205 205 205 205 205 205 205 205 205 205 205 205 205 205 205 205 205 205 205 205 205 205 205 205 205 205 205 205 205 205 205 205 0 0 0 0 0 0 0 0 0 0 0 0 
0 0 0 0 0 0 0 0 0 0 0 0 0 0 0 0 0 0 0 0 0 0 0 0 0 0 0 0 0 0 0 0 0 0 0 137 205 205 205 205 205 205 205 205 205 205 205 205 205 205 205 205 205 205 205 205 205 205 205 205 205 205 205 205 205 205 205 205 205 205 205 205 205 205 205 205 205 205 205 0 0 0 0 0 0 153 0 0 0 0 0 
0 0 0 0 0 0 0 0 0 0 0 0 0 0 0 0 0 0 0 0 0 0 0 0 0 0 0 0 0 0 0 0 0 0 0 0 162 205 205 205 205 205 205 205 205 205 205 205 205 205 205 205 205 205 205 205 205 205 205 205 205 205 205 205 205 205 205 205 205 205 205 205 205 205 205 205 205 205 205 0 0 0 0 0 0 0 0 0 0 0 0 
0 0 0 0 0 0 0 0 0 0 0 0 0 0 0 0 0 0 0 0 0 0 0 0 0 0 0 0 0 0 0 0 0 0 0 0 0 162 205 205 205 205 205 205 205 205 205 205 205 205 205 205 205 205 205 205 205 205 205 205 205 205 205 154 188 205 205 205 205 205 205 205 205 205 205 205 205 205 205 0 0 0 0 0 0 0 0 0 0 0 0 
0 0 0 0 0 0 0 0 0 0 0 0 0 0 0 0 0 0 0 0 0 0 0 0 0 0 111 0 0 0 0 0 0 0 0 0 0 0 188 205 205 205 205 205 205 205 205 205 205 205 205 205 205 205 205 205 205 205 205 205 205 162 0 0 0 162 205 205 205 205 205 205 205 205 205 205 205 205 205 154 0 0 0 0 0 0 0 0 0 0 0 
0 0 0 0 0 0 0 0 0 0 0 0 0 0 0 0 0 0 0 0 0 0 0 0 0 0 0 0 0 0 0 0 0 0 0 0 0 0 0 205 205 205 205 205 205 205 205 205 205 205 205 205 205 205 205 205 205 205 205 205 154 0 111 0 0 205 205 205 205 205 205 205 205 205 205 205 205 205 205 205 0 0 0 0 0 0 0 0 0 0 0 
0 0 0 0 0 0 0 0 0 0 0 0 0 0 0 0 0 0 0 0 0 0 0 0 0 0 0 0 0 0 0 0 0 0 0 0 0 0 0 0 205 205 205 205 205 205 205 205 205 205 205 205 205 205 205 205 205 205 205 205 162 205 188 0 0 0 205 205 205 205 205 205 205 205 205 205 205 205 205 205 205 0 0 0 0 0 0 0 0 0 0 
0 0 0 0 0 0 0 0 0 0 0 0 0 0 0 0 0 0 0 0 0 0 0 0 0 0 0 0 0 0 0 0 0 0 0 0 0 0 0 0 0 205 205 205 205 205 205 205 205 205 205 205 205 205 205 205 205 205 205 205 205 205 162 0 0 0 162 205 205 205 205 205 205 205 205 205 205 205 205 205 205 137 0 0 0 0 0 0 0 0 0 
0 0 0 0 0 0 0 0 0 0 0 0 0 0 0 0 0 0 0 0 0 0 0 0 0 0 0 0 0 0 103 0 0 0 0 0 0 0 0 0 0 0 188 205 205 205 205 205 205 205 205 205 205 205 205 205 205 205 205 205 205 205 137 0 0 0 0 205 205 205 205 205 205 205 205 205 205 205 205 205 137 0 0 0 0 0 0 0 0 0 0 
0 0 0 0 0 0 0 0 0 0 0 0 0 0 0 0 0 0 0 0 0 0 0 0 0 0 0 0 0 0 0 0 0 0 0 0 0 0 0 0 0 0 0 162 205 205 205 205 205 205 205 205 205 205 205 205 205 205 205 205 205 205 205 0 0 0 0 111 205 205 205 205 205 205 205 205 205 205 205 111 0 0 0 0 0 0 0 0 0 0 0 
0 0 0 0 0 0 0 0 0 0 0 0 0 0 0 0 0 0 0 0 0 0 0 0 0 0 0 0 0 0 0 0 0 0 0 0 0 0 0 0 0 0 0 0 162 205 205 205 205 205 205 205 205 205 205 205 205 205 205 205 205 205 205 0 0 0 0 0 111 205 205 205 205 205 205 205 205 137 0 153 0 0 0 0 0 0 0 0 0 0 0 
0 0 0 0 0 0 0 0 0 0 0 0 0 0 0 0 0 0 0 0 0 0 0 0 0 0 0 0 0 0 0 0 0 0 0 0 0 0 0 0 0 0 0 0 0 137 205 205 205 205 205 205 205 205 205 205 205 205 205 205 205 205 205 137 0 0 0 0 0 154 205 205 205 188 154 0 0 127 0 0 0 0 0 0 0 0 0 0 0 0 0 
0 0 0 0 0 0 0 0 0 0 0 0 0 0 0 0 0 0 0 0 0 0 0 0 0 0 0 0 0 0 0 0 0 0 0 0 0 0 0 0 0 0 0 0 0 0 0 205 205 205 205 205 205 205 205 205 205 205 205 205 205 205 205 205 0 0 0 0 111 188 0 145 162 153 153 0 0 0 0 0 0 0 0 0 0 0 0 0 0 0 0 
0 0 0 0 0 0 0 0 0 0 0 0 0 0 0 0 0 0 0 0 0 0 0 0 0 0 0 0 0 0 0 0 0 0 0 0 0 0 0 0 0 0 0 0 0 0 0 0 205 205 205 205 205 205 205 205 205 205 205 205 205 205 205 205 111 0 0 0 137 0 0 0 0 0 0 0 0 0 0 0 0 0 0 0 0 0 0 0 0 0 0 
0 0 0 0 0 0 0 0 0 0 0 0 0 0 0 0 0 0 0 0 0 0 0 0 0 0 0 0 0 0 0 0 0 0 0 0 0 0 0 0 0 0 0 0 0 0 0 0 0 205 205 205 205 205 205 205 205 205 205 205 205 205 205 205 188 0 0 0 162 0 0 0 0 0 0 0 0 0 0 0 0 0 0 0 0 0 0 0 0 0 0 
0 0 0 0 0 0 0 0 0 0 0 0 0 0 0 0 0 0 0 0 0 0 153 0 0 0 0 0 0 0 0 0 0 0 0 0 0 0 0 0 0 0 0 0 0 0 0 0 0 0 188 205 205 205 205 205 205 205 205 205 205 205 205 205 205 137 0 154 0 153 0 0 0 0 0 0 0 0 0 0 0 0 0 0 0 0 0 0 0 0 0 
0 0 0 0 0 0 0 0 0 0 0 0 0 0 0 0 0 0 0 0 0 0 0 0 0 0 0 0 0 0 0 0 0 0 0 0 0 0 0 0 0 0 0 0 0 0 0 0 0 0 0 137 205 205 205 205 205 205 205 205 205 205 205 205 205 205 205 162 0 0 0 0 111 0 0 0 0 0 0 153 0 0 0 0 0 0 0 0 0 0 0 
0 0 0 0 0 0 0 0 0 0 0 0 0 0 0 0 0 0 0 0 0 153 0 0 0 0 0 0 0 0 0 0 0 0 0 0 0 0 0 0 0 0 0 0 0 0 0 0 0 0 0 0 0 205 205 205 205 205 205 205 205 205 205 0 0 0 0 0 205 205 205 205 205 205 205 205 205 205 205 162 111 0 153 0 0 0 0 0 0 0 0 
0 0 0 0 0 0 0 0 0 0 0 0 0 0 0 0 0 0 0 0 0 0 0 0 0 0 0 0 0 0 0 0 0 0 0 0 0 0 0 0 0 0 0 0 0 0 0 0 0 0 0 0 0 0 205 205 205 205 205 205 205 137 0 0 0 0 0 0 205 205 205 205 205 205 205 205 205 205 205 205 205 205 137 0 0 0 0 0 0 0 0 
0 0 0 0 0 0 0 0 0 0 0 0 0 0 0 0 0 0 0 0 0 0 0 0 0 0 0 0 0 0 0 0 0 0 0 0 0 0 0 0 0 0 0 0 0 0 0 0 0 0 0 0 0 0 0 137 205 205 205 205 205 205 205 188 0 0 0 0 205 205 205 205 205 205 205 205 205 205 205 205 205 205 205 205 137 0 0 0 0 0 0 
0 0 0 0 0 0 0 0 0 0 0 0 0 0 0 0 0 0 0 0 0 0 0 0 0 0 0 0 0 0 0 0 0 0 0 0 0 0 0 0 0 0 0 0 0 0 0 0 0 0 0 0 0 0 0 0 0 205 205 205 205 205 205 205 0 0 0 0 205 205 205 205 205 205 205 205 205 205 205 205 205 205 205 205 205 162 0 0 0 0 0 
0 0 0 0 0 0 0 0 0 0 0 0 0 0 0 0 0 0 0 0 0 0 0 0 0 0 0 0 0 0 0 0 0 0 0 0 0 0 0 0 0 0 0 0 0 0 0 0 0 0 0 0 0 0 0 0 0 0 154 205 205 205 205 154 0 0 0 137 205 205 205 205 205 205 205 205 205 205 205 205 205 205 205 205 205 205 154 0 0 0 0 
0 0 0 0 0 0 0 0 0 0 0 0 0 0 0 0 0 0 0 153 0 0 0 0 0 0 0 0 0 0 0 0 0 0 0 0 0 0 0 0 0 0 0 0 0 0 0 0 0 0 0 0 0 0 0 0 0 0 0 0 162 205 205 111 0 0 0 111 205 205 205 205 205 205 205 205 205 205 205 205 205 205 205 205 205 205 205 137 0 0 0 
0 0 0 0 0 0 0 0 0 0 0 0 0 0 0 0 0 0 0 0 0 0 0 0 0 0 0 0 0 0 0 0 0 0 0 0 0 0 0 0 0 0 0 0 0 0 0 0 0 0 0 0 0 0 103 0 0 0 0 0 0 0 162 0 0 0 0 0 205 205 205 205 205 205 205 205 205 205 205 205 205 205 205 205 205 205 205 205 0 153 0 
0 0 0 0 0 0 0 0 0 0 0 0 0 0 0 0 0 0 0 0 0 0 0 0 0 0 0 0 0 0 0 0 0 0 0 0 0 0 0 0 0 0 0 0 0 0 0 0 0 0 0 0 0 0 0 0 0 0 0 0 0 0 0 0 0 0 0 0 205 205 205 154 205 205 205 205 205 205 205 205 205 205 205 205 205 205 162 205 0 0 0 
0 0 0 0 0 0 0 0 0 0 0 0 0 0 0 0 0 0 0 0 162 0 0 0 0 0 0 0 0 0 0 0 0 0 0 0 0 0 0 0 0 0 0 0 0 0 0 0 0 0 0 0 0 0 0 0 0 0 0 0 0 0 0 0 0 0 0 0 205 205 205 188 111 205 205 205 205 205 205 205 205 205 205 205 205 137 0 0 0 111 0 
0 0 0 0 0 0 0 0 0 0 0 0 0 0 0 0 0 0 0 111 205 137 0 0 0 0 0 0 0 0 0 0 0 0 0 0 0 0 0 0 0 0 0 0 0 0 0 0 0 0 0 0 0 0 0 0 0 0 0 0 0 0 0 0 0 0 0 0 205 205 205 205 0 137 205 205 205 205 205 205 205 205 205 205 137 0 188 205 188 180 0 
0 0 0 0 0 0 0 0 0 0 0 0 0 0 0 0 0 0 0 162 205 205 0 0 0 0 0 0 0 0 0 0 0 0 0 0 0 0 0 0 0 0 0 0 0 0 0 0 0 0 0 0 0 0 0 0 0 103 0 0 0 0 0 0 0 0 0 0 188 205 205 205 0 0 188 205 205 205 205 205 205 205 205 162 0 162 205 205 205 162 0 
0 0 0 0 0 0 0 0 0 0 0 0 0 0 0 0 0 0 111 205 205 205 205 0 0 0 0 0 0 0 0 0 0 0 0 0 0 0 0 0 0 0 0 0 0 0 0 0 0 0 0 0 0 0 0 0 0 0 0 111 129 0 129 0 0 0 0 0 162 205 205 205 0 0 0 0 111 137 111 111 188 154 137 0 0 205 205 205 146 0 0 
0 0 0 0 0 0 0 0 0 0 0 0 0 0 0 0 0 0 205 205 205 205 205 162 0 0 0 0 0 0 0 0 0 0 0 0 0 0 0 0 0 0 0 0 0 0 0 0 0 0 0 0 0 0 0 0 0 0 129 129 129 129 129 129 129 0 0 0 0 137 111 0 0 205 180 188 205 205 205 0 0 146 205 205 205 205 205 205 0 0 0 
0 0 0 0 0 0 0 0 0 0 0 0 0 0 0 0 0 145 205 205 205 205 205 205 111 0 0 0 0 0 0 0 0 0 0 0 0 0 0 0 0 0 0 0 0 0 0 0 0 0 0 0 0 0 0 0 0 129 129 129 129 129 129 129 129 129 129 0 0 0 153 0 153 137 205 205 205 205 205 205 180 205 205 205 205 205 205 162 153 0 0 
0 0 0 0 0 0 0 0 0 0 0 0 0 0 0 0 0 205 205 205 205 205 205 205 205 0 0 0 0 0 0 0 0 0 0 0 0 0 0 0 0 0 0 0 0 0 0 0 0 0 0 0 0 0 0 0 0 129 129 129 129 129 0 0 129 129 129 129 129 0 0 0 0 0 145 154 205 205 205 205 205 205 205 205 205 205 205 111 0 0 0 
0 0 0 0 0 0 0 0 0 0 0 0 0 0 0 0 162 205 205 205 205 205 205 205 205 205 0 0 0 0 0 0 0 0 0 0 0 0 0 0 0 0 0 0 0 0 0 0 0 0 0 0 0 0 0 0 0 129 129 129 129 129 129 0 0 129 129 129 129 129 111 0 0 211 0 0 111 188 205 205 205 205 205 205 205 205 0 153 0 0 0 
0 0 0 0 0 0 0 0 0 0 0 0 0 0 0 0 205 205 205 205 205 205 205 205 205 205 205 0 0 0 0 0 0 0 0 0 0 0 0 0 0 0 0 0 0 0 0 0 0 0 0 0 0 0 0 0 0 129 129 129 129 129 129 129 0 0 0 129 129 129 129 129 111 0 119 0 0 0 0 0 162 205 205 205 205 146 0 0 0 0 0 
0 0 0 0 0 0 0 0 0 0 0 0 0 0 0 162 205 205 205 205 205 205 205 205 205 205 205 205 0 0 0 0 0 0 0 0 0 0 0 0 0 0 0 0 0 0 0 0 0 0 0 0 0 0 0 0 0 0 129 129 129 129 129 129 129 0 0 0 129 129 129 129 129 129 0 0 0 0 153 0 0 0 0 111 111 0 0 0 0 0 0 
0 0 0 0 0 0 0 0 0 0 0 0 0 0 0 205 205 205 205 205 205 205 205 205 205 205 205 205 205 0 0 0 0 0 0 0 0 0 0 0 0 0 0 0 0 0 0 0 0 0 0 103 0 0 0 0 111 111 0 129 129 129 129 129 129 129 129 0 0 0 129 129 129 129 129 111 0 0 0 0 0 153 0 127 153 0 0 0 0 0 0 
0 0 0 0 0 0 0 0 0 0 0 0 0 0 162 205 205 205 205 205 205 205 205 205 205 205 205 205 205 205 137 0 0 0 0 0 0 0 0 0 0 0 0 0 0 0 0 0 0 0 0 0 0 0 0 0 0 129 0 129 129 129 129 129 129 129 129 129 129 0 0 103 129 129 129 129 129 0 0 0 0 0 0 0 0 0 0 0 0 0 0 
0 0 0 0 0 0 0 0 0 0 0 0 0 0 205 205 205 205 205 205 205 205 205 205 205 205 205 205 205 205 205 205 137 0 0 0 0 0 0 0 0 0 0 0 0 0 0 137 205 205 205 205 205 137 0 0 0 129 129 0 103 129 129 129 129 129 129 129 129 129 0 0 0 129 129 129 129 129 129 0 153 0 0 0 0 0 0 0 0 0 0 
0 0 0 0 0 0 0 0 0 0 0 0 0 145 205 205 205 205 205 205 205 205 205 205 205 205 205 205 205 205 205 205 205 205 0 0 0 0 0 0 0 0 103 0 0 162 205 205 205 205 205 205 205 205 205 137 0 0 129 129 0 0 129 129 129 129 129 129 129 129 129 129 0 0 0 129 129 129 129 129 0 0 0 0 0 0 0 0 0 0 0 
0 0 0 0 0 0 0 0 0 0 0 0 0 205 205 205 205 205 205 205 205 205 205 205 205 205 205 205 205 205 205 205 205 205 0 0 0 0 0 0 0 0 0 111 205 205 205 205 205 205 205 205 205 205 205 205 162 0 0 129 129 0 0 111 129 129 129 129 129 129 129 129 129 111 0 0 111 129 129 129 129 129 0 0 0 0 0 0 0 0 0 
0 0 0 0 0 0 0 0 0 0 0 0 0 205 205 205 205 205 205 205 205 205 205 205 205 205 205 205 205 205 205 205 205 205 0 0 0 0 0 0 0 0 111 205 205 205 205 205 205 205 205 205 205 205 205 205 205 111 0 146 129 129 0 0 0 129 129 129 129 129 129 129 129 129 129 129 0 0 103 129 129 129 129 0 0 0 0 0 0 0 0 
0 0 0 0 0 0 0 0 0 0 0 0 137 205 205 205 205 205 205 205 205 205 205 205 205 205 205 205 205 205 205 205 205 205 162 0 0 0 0 0 0 0 205 205 205 205 205 205 205 205 205 205 205 205 205 205 205 205 111 0 129 129 129 129 0 0 129 129 129 129 129 129 129 129 129 129 129 0 0 0 129 129 129 129 129 0 0 0 0 0 0 
0 0 0 0 0 0 0 0 0 0 0 0 162 205 205 205 205 205 205 205 205 205 205 205 205 205 205 205 205 205 205 205 205 205 205 0 0 0 0 0 0 205 205 205 205 205 205 205 205 205 205 205 205 205 205 205 205 205 205 111 111 129 129 129 129 0 0 0 129 129 129 129 129 129 129 129 129 129 129 111 0 0 0 103 129 111 0 0 0 0 0 
0 0 0 0 0 0 0 0 0 0 0 0 205 205 205 205 205 205 205 205 205 205 205 205 205 205 205 205 205 205 205 205 205 205 205 137 0 0 0 0 111 205 205 205 205 205 205 205 205 205 205 205 205 205 205 205 205 205 205 205 111 0 129 129 129 129 111 0 0 129 129 129 129 129 129 129 129 129 129 129 129 129 0 0 0 0 111 0 0 0 0 
0 0 0 0 0 0 0 0 0 0 0 111 205 205 205 205 205 205 205 205 205 205 205 205 205 205 205 205 205 205 205 205 205 205 205 205 0 0 0 0 205 205 205 205 205 205 205 205 205 205 205 205 205 205 205 205 205 205 205 205 205 111 0 129 129 129 129 129 0 0 0 129 129 129 129 129 129 129 129 129 129 129 129 129 111 111 0 111 0 0 0 
0 0 0 0 0 0 0 0 0 0 0 137 205 205 205 205 205 205 205 205 205 205 205 205 205 205 205 205 205 205 205 205 205 205 205 205 111 0 0 0 205 205 205 205 205 205 205 205 205 205 205 205 205 205 205 205 205 205 205 205 205 205 111 0 129 129 129 129 129 111 0 0 129 129 129 129 129 129 129 129 129 129 129 129 129 129 129 129 129 153 0 
0 0 0 0 0 0 0 0 0 0 0 162 205 205 205 205 205 205 205 205 205 205 205 205 205 205 205 205 205 205 205 205 205 205 205 205 205 0 0 0 205 205 205 205 205 205 205 205 205 205 205 205 205 205 205 205 205 205 205 205 205 205 205 111 0 129 129 129 129 129 129 129 0 129 129 129 129 129 129 129 129 129 129 129 129 129 129 129 129 0 0 
0 0 0 0 0 0 0 0 0 0 0 205 205 205 205 205 205 205 205 205 205 205 205 205 205 205 205 205 205 205 205 205 205 205 205 205 205 137 0 0 205 205 205 205 205 205 205 205 205 205 205 205 205 205 205 205 205 205 205 205 205 205 205 205 111 0 129 129 129 129 129 129 129 129 129 129 129 129 129 129 129 129 129 129 129 129 129 129 129 0 0 
0 0 0 0 0 0 0 0 0 0 0 162 205 205 205 205 205 205 205 205 205 205 205 205 205 205 205 205 205 205 205 205 205 205 205 205 205 205 0 0 205 205 205 205 205 205 205 205 205 205 205 205 205 205 205 205 205 205 205 205 205 205 205 205 205 111 0 129 129 129 129 129 129 129 129 129 129 129 129 103 0 129 0 129 129 129 129 129 129 0 0 
0 0 0 0 0 0 0 0 0 0 0 154 205 205 205 205 205 205 205 205 205 205 205 205 205 205 205 205 205 205 205 205 205 205 205 205 205 205 205 0 162 205 205 205 205 205 205 205 205 205 205 205 205 205 205 205 205 205 205 205 205 205 205 205 205 205 137 0 129 129 129 129 129 129 129 129 129 129 129 129 0 0 0 0 0 0 111 103 0 0 0 
0 0 0 0 0 0 0 0 0 0 0 205 205 205 205 205 205 205 205 205 205 205 205 205 205 205 205 205 205 205 205 205 205 205 205 205 205 205 205 205 0 205 205 205 205 205 205 205 205 205 205 205 205 205 205 205 205 205 205 205 205 205 205 205 205 205 205 111 0 129 129 129 129 129 129 129 129 129 129 129 129 129 129 111 0 0 119 0 0 0 0 
0 0 0 0 0 0 0 0 0 0 0 162 205 205 205 205 205 205 205 205 205 205 205 205 205 205 205 205 205 205 205 205 205 205 205 205 205 205 205 205 137 0 205 205 205 205 205 205 205 205 205 205 205 205 205 205 205 205 205 205 205 205 205 205 205 205 205 205 111 0 129 129 129 129 129 129 129 129 129 129 129 129 129 129 129 0 0 0 0 0 0 
0 0 0 0 0 0 0 0 0 0 0 205 205 205 205 205 205 205 205 205 205 205 205 205 205 205 205 205 205 205 205 205 205 205 205 205 205 205 205 205 137 0 0 205 205 205 205 205 205 205 205 205 205 205 205 205 205 205 205 205 205 205 205 205 205 205 205 205 205 0 0 129 129 129 129 129 129 129 129 129 129 129 129 129 129 0 0 0 0 0 0 
0 0 0 0 0 0 0 0 0 0 0 188 205 205 205 205 205 205 205 205 205 205 205 205 205 205 205 205 205 205 205 205 205 205 205 205 205 205 205 205 0 0 111 111 205 205 205 205 205 205 205 205 205 205 205 205 205 205 205 205 205 205 205 205 205 205 205 205 205 205 0 0 129 129 129 129 129 129 129 129 129 129 129 129 129 129 0 0 0 0 0 
0 0 0 0 0 0 0 0 0 0 0 162 205 205 205 205 205 205 205 205 205 205 205 205 205 205 205 205 205 205 205 205 205 205 205 205 205 205 205 205 0 111 146 129 137 205 205 205 205 205 205 205 205 205 205 205 205 205 205 205 205 205 205 205 205 205 205 205 205 205 205 0 111 129 129 129 129 129 129 129 129 0 129 129 129 0 0 0 0 0 0 
0 0 0 0 0 0 0 0 0 0 0 137 205 205 205 205 205 205 205 205 205 205 205 205 205 205 205 205 205 205 205 205 205 205 205 205 205 205 205 137 0 146 146 146 146 162 205 205 205 205 205 205 205 205 205 205 205 205 205 205 205 205 205 205 205 205 205 205 205 205 205 137 0 129 129 129 129 129 129 0 129 0 0 0 103 0 0 0 0 0 0 
0 0 0 0 0 0 0 0 0 0 0 111 205 205 205 205 205 205 205 205 205 205 205 205 205 205 205 205 205 205 205 205 205 205 205 205 205 205 205 111 0 146 146 146 146 146 162 205 205 205 205 205 205 205 205 205 205 205 205 205 205 205 205 205 205 205 205 205 205 205 205 205 0 0 129 129 129 129 129 0 0 0 0 129 129 0 0 0 0 0 0 
0 0 0 0 0 0 0 0 0 0 0 0 205 205 205 205 205 205 205 205 205 205 205 205 205 205 205 205 205 205 205 205 205 205 205 205 205 205 205 0 111 146 146 146 146 146 146 146 205 205 205 205 205 205 205 205 205 205 205 205 205 205 205 205 205 205 205 205 205 205 205 205 162 0 129 129 129 129 129 129 0 0 0 111 103 0 0 0 0 0 0 
0 0 0 0 0 0 0 0 0 0 0 0 205 205 205 205 205 205 205 205 205 205 162 111 0 0 0 154 188 205 205 205 205 205 205 205 205 205 205 0 146 146 146 146 146 146 146 146 129 162 205 205 205 205 205 205 205 205 205 205 205 205 205 205 205 205 205 205 205 205 205 205 205 0 111 129 129 103 111 129 129 129 129 129 129 0 0 0 0 0 0 
0 0 0 0 0 0 0 0 0 0 0 0 137 205 205 205 205 205 205 205 205 137 111 137 180 188 180 137 0 111 205 205 205 205 205 205 205 205 205 0 129 146 146 146 146 146 146 146 146 146 137 205 205 205 205 205 205 205 205 205 205 205 205 205 205 205 205 205 205 205 205 205 205 111 0 129 129 129 129 0 0 129 0 129 129 0 0 0 0 0 0 
0 0 0 0 0 0 0 0 0 0 0 0 111 205 205 205 205 205 205 162 111 162 205 205 205 205 205 205 188 0 0 205 205 205 205 205 205 205 205 0 146 146 146 146 146 146 146 146 146 146 146 0 154 205 205 205 205 205 205 205 205 205 205 205 205 205 205 205 205 205 205 205 205 137 0 129 129 129 129 129 103 0 0 0 111 0 0 0 0 0 0 
0 0 0 0 0 0 0 0 0 0 0 0 0 205 205 205 205 205 137 0 205 205 205 205 205 205 205 205 205 205 0 137 205 205 205 205 205 205 205 0 146 146 146 146 146 146 146 146 146 146 146 146 0 111 205 205 205 205 205 205 205 205 205 205 205 205 205 205 205 205 205 205 205 162 0 129 129 129 129 0 111 129 129 129 103 0 0 0 0 0 0 
0 0 0 0 0 0 0 0 0 0 0 0 0 162 205 205 205 137 111 205 205 205 205 205 205 205 205 205 205 205 137 0 205 205 205 205 205 205 188 0 146 146 146 146 146 146 146 146 146 146 146 146 146 0 0 154 205 205 205 205 205 205 205 205 205 205 205 205 205 205 205 205 205 162 0 129 129 129 0 0 0 0 0 129 0 0 0 0 0 0 0 
0 0 0 0 0 0 0 0 0 0 0 0 0 111 205 205 137 0 205 205 205 205 205 205 205 205 205 205 205 205 205 0 180 205 205 205 205 205 205 0 146 146 146 146 146 146 146 146 146 146 146 146 146 146 146 0 0 111 205 205 205 205 205 205 205 205 205 205 205 205 205 205 205 180 0 111 129 129 129 129 129 129 129 129 0 0 0 0 0 0 0 
0 0 0 0 0 0 0 0 0 0 0 0 0 0 205 162 0 205 205 205 205 205 205 205 205 205 205 205 205 205 205 111 137 205 205 205 205 205 205 0 129 146 146 146 146 146 146 146 146 146 146 146 146 146 146 146 129 0 0 0 205 205 205 205 205 205 205 205 205 205 205 205 205 137 0 0 0 129 129 129 129 129 129 129 0 0 0 0 0 0 0 
0 0 0 0 0 0 0 0 0 0 0 0 0 0 111 0 205 205 205 205 205 205 205 205 205 205 205 205 205 205 205 162 111 205 205 205 205 205 205 0 146 146 146 146 146 146 146 146 146 146 146 146 146 146 146 146 146 146 146 0 0 0 154 205 205 205 205 205 205 205 205 205 205 0 146 129 0 0 0 0 0 0 0 0 0 0 0 0 0 0 0 
0 0 0 0 0 0 0 0 0 0 0 0 0 0 0 137 205 205 205 205 205 205 205 205 205 205 205 205 205 205 205 205 0 205 205 205 205 205 205 0 111 146 146 146 146 146 146 146 146 146 146 146 146 146 146 146 146 146 146 146 146 111 0 0 137 205 205 205 205 205 205 205 137 0 146 146 146 146 146 0 0 0 0 0 0 0 0 0 0 0 0 
0 0 0 0 0 0 0 0 0 0 0 0 0 0 111 205 205 205 205 205 205 205 205 205 205 205 205 205 205 205 205 205 111 205 205 205 205 205 205 0 0 146 146 146 146 146 146 146 146 146 146 146 146 146 146 146 146 146 146 146 146 146 146 146 0 0 111 137 162 154 188 111 0 129 146 146 111 111 129 146 146 146 111 0 0 0 0 0 0 0 0 
0 0 0 0 0 0 0 0 0 0 0 0 0 0 205 205 205 205 205 205 205 205 205 205 205 205 205 205 205 205 205 205 0 205 205 205 205 205 205 111 0 146 146 146 146 146 146 146 146 146 146 146 146 146 146 146 146 146 146 146 146 146 146 146 146 146 129 111 0 0 0 0 146 146 146 146 146 0 0 0 0 0 0 0 0 0 0 0 0 0 0 
0 0 0 0 0 0 0 0 0 0 0 0 0 137 205 205 205 205 205 205 205 205 205 205 205 205 205 205 205 205 205 205 111 205 205 205 205 205 205 188 0 146 146 146 146 146 146 146 146 146 146 146 146 146 146 146 146 146 146 146 146 146 146 129 0 0 111 146 146 146 146 146 146 146 146 146 146 146 146 129 146 0 0 0 0 0 0 0 0 0 0 
0 0 0 0 0 0 0 0 0 0 0 0 0 205 205 205 205 205 205 205 205 205 205 205 205 205 205 205 205 205 205 205 0 205 205 205 205 205 205 205 0 146 146 146 146 146 146 146 146 146 146 146 146 146 146 146 146 146 146 146 146 146 146 146 146 129 0 0 0 146 146 146 146 111 0 129 146 146 146 146 146 0 0 0 0 0 0 0 0 0 0 
0 0 0 0 0 0 0 0 0 0 0 0 137 205 205 205 205 205 205 205 205 205 205 205 205 205 205 205 205 205 205 205 111 205 205 205 205 205 205 205 0 111 146 146 146 146 146 146 146 146 146 146 146 146 146 146 146 146 146 146 146 146 146 146 146 146 146 146 0 0 0 111 129 146 0 0 0 0 0 0 0 153 0 0 0 0 0 0 0 0 0 
0 0 0 0 0 0 0 0 0 0 0 0 180 205 205 205 205 205 205 205 205 205 205 205 205 205 205 205 205 205 205 188 111 205 205 205 205 205 205 205 137 0 146 146 146 146 146 146 146 146 146 146 146 146 146 146 146 146 146 146 146 146 146 146 146 111 129 146 146 146 146 0 0 111 111 129 146 146 146 0 153 0 0 0 0 0 0 0 0 0 0 
0 0 0 0 0 0 0 0 0 0 0 0 205 205 205 205 205 205 205 205 205 205 205 205 205 205 205 205 205 205 205 137 137 205 205 205 205 205 205 205 205 0 146 146 146 146 146 146 146 146 146 146 146 146 146 146 146 146 146 146 146 146 146 146 146 146 0 0 111 146 146 146 146 146 146 129 121 146 111 0 0 0 0 0 0 0 0 0 0 0 0 
0 0 0 0 0 0 0 0 0 0 0 162 205 205 205 205 205 205 205 205 205 205 205 205 205 205 205 205 205 205 205 111 162 205 205 205 205 205 205 205 205 111 0 146 146 146 146 146 146 146 146 146 146 146 146 146 146 146 146 146 146 146 146 146 146 146 146 111 0 0 146 129 0 0 146 146 146 137 0 0 0 0 0 0 0 0 0 0 0 0 0 
0 0 0 0 0 0 0 0 0 0 0 205 205 205 205 205 205 205 205 205 205 205 205 205 205 205 205 205 205 205 205 0 205 205 205 205 205 205 205 205 205 205 111 111 146 146 146 146 146 146 146 146 146 146 146 146 146 146 146 146 146 146 146 146 146 146 146 146 146 146 129 146 111 0 0 146 137 0 0 0 0 0 0 0 0 0 0 0 0 0 0 
0 0 0 0 0 0 0 0 0 0 137 205 205 205 205 205 205 205 205 205 205 205 205 205 205 205 205 205 205 205 205 0 205 205 205 205 205 205 205 205 205 205 205 137 111 146 146 146 146 146 146 146 146 146 146 146 146 146 146 146 146 146 146 146 146 146 146 146 146 146 146 146 146 146 146 137 0 0 0 0 0 0 0 0 0 0 0 0 0 0 0 
0 0 0 0 0 0 0 0 0 0 205 205 205 205 205 205 205 205 205 205 205 205 205 205 205 205 205 205 205 205 137 0 205 205 205 205 205 205 205 205 205 205 205 205 137 0 146 146 146 146 146 146 146 146 146 146 146 146 146 146 146 146 146 146 146 146 0 0 0 111 111 129 146 146 0 0 0 0 0 0 0 0 0 0 0 0 0 0 0 0 0 
0 0 0 0 0 0 0 0 153 111 205 205 205 205 205 205 205 205 205 205 205 205 205 205 205 205 205 205 205 205 0 0 0 137 180 205 205 205 205 205 205 205 205 205 205 0 0 129 146 146 146 146 146 146 146 146 146 146 146 146 146 146 146 146 146 146 146 146 129 146 146 146 0 0 0 0 0 0 0 0 0 0 0 0 0 0 0 0 0 0 0 
0 0 0 0 0 0 0 0 0 205 205 205 205 205 205 205 205 205 205 205 205 205 205 205 205 205 205 205 205 162 153 0 0 153 0 127 0 111 137 137 154 137 0 0 0 137 137 0 111 146 146 146 146 146 146 146 146 146 146 146 146 146 0 0 146 146 146 146 146 146 146 0 153 0 0 0 0 0 0 0 0 0 0 0 0 0 0 0 0 0 0 
0 0 0 0 0 0 0 0 0 205 205 205 205 205 205 205 205 205 205 205 205 205 205 205 205 205 205 205 205 111 0 0 0 0 0 0 0 0 0 0 0 0 0 0 154 205 205 205 137 111 129 146 146 146 146 146 146 146 146 146 129 146 146 0 146 146 146 146 146 0 0 0 0 0 0 0 0 0 0 0 0 0 0 0 0 0 0 0 0 0 0 
0 0 0 0 0 0 0 0 162 205 205 205 205 205 205 205 205 205 205 205 205 205 205 205 205 205 205 205 205 0 0 0 0 0 0 0 0 0 0 0 0 0 0 0 0 0 145 205 205 205 154 0 146 146 146 146 146 146 146 146 0 146 146 146 146 146 129 0 0 0 0 0 162 205 205 111 0 0 0 0 0 0 0 0 0 0 0 0 0 0 0 
0 0 0 0 0 0 0 0 205 205 205 205 205 205 205 205 205 205 205 205 205 205 205 205 205 205 205 205 0 0 0 0 0 0 0 0 0 0 0 0 0 0 0 0 0 0 0 0 188 205 205 205 137 111 146 146 146 146 146 146 146 146 146 146 146 0 0 0 180 137 111 205 205 205 205 205 0 0 0 0 0 0 0 0 0 0 0 0 0 0 0 
0 0 0 0 0 0 153 111 205 205 205 205 205 205 205 205 205 205 205 205 205 205 205 205 205 205 205 162 145 0 0 0 0 0 0 0 0 0 0 0 0 0 0 0 0 0 0 153 0 137 205 205 205 205 137 0 111 129 146 146 146 146 0 0 0 111 205 205 188 111 205 205 205 205 205 205 0 153 0 0 0 0 0 0 0 0 0 0 0 0 0 
0 0 0 0 0 0 0 162 205 205 205 205 205 205 205 205 205 205 205 205 205 205 205 205 205 205 205 0 0 0 0 0 0 0 0 0 0 0 0 0 0 0 0 0 0 0 0 0 0 0 0 205 205 205 205 205 0 0 0 0 0 0 0 0 205 205 205 205 137 162 205 205 205 205 205 205 162 0 0 0 0 0 0 0 0 0 0 0 0 0 0 
0 0 0 0 0 0 0 205 205 205 205 205 205 205 205 205 205 205 205 205 205 205 205 205 205 205 111 0 0 0 0 0 0 0 0 0 0 0 0 0 0 0 0 0 0 0 0 0 0 0 0 0 205 205 205 205 205 205 162 137 205 188 0 205 205 205 205 205 154 205 205 205 205 205 205 205 205 0 0 0 0 0 0 0 0 0 0 0 0 0 0 
0 0 0 0 0 0 137 205 205 205 205 205 205 205 205 205 205 205 205 205 205 205 205 205 205 137 0 0 0 0 0 0 0 0 0 0 0 0 0 0 0 0 0 0 0 0 0 0 0 0 0 119 0 205 205 205 205 205 205 205 205 137 154 205 205 205 205 162 137 205 205 205 205 205 205 205 205 0 0 0 0 0 0 0 0 0 0 0 0 0 0 
0 0 0 0 0 0 205 205 205 205 205 205 205 205 205 205 205 205 205 205 205 205 205 205 162 127 0 0 0 0 0 0 0 0 0 0 0 0 0 0 0 0 0 0 0 0 0 0 0 0 0 0 127 0 205 205 205 205 205 205 205 180 205 205 205 205 205 137 162 205 205 205 205 205 205 205 205 0 0 0 0 0 0 0 0 0 0 0 0 0 0 
0 0 0 0 0 0 205 205 205 205 205 205 205 205 205 205 205 205 205 205 205 205 205 154 0 0 0 0 0 0 0 0 0 0 0 0 0 0 0 0 0 0 0 0 0 0 0 0 0 0 0 0 0 127 111 205 205 205 205 205 205 205 205 205 205 205 205 111 205 205 205 205 205 205 205 205 188 0 0 0 0 0 0 0 0 0 0 0 0 0 0 
0 0 0 0 0 162 205 205 205 205 205 205 205 205 205 205 205 205 205 205 205 205 205 0 0 0 0 0 0 0 0 0 0 0 0 0 0 0 0 0 0 0 0 0 0 0 0 0 0 0 0 0 0 0 0 137 205 205 205 205 205 205 205 205 205 205 188 111 205 205 205 205 205 205 205 205 162 153 0 0 0 0 0 0 0 0 0 0 0 0 0 
0 0 0 0 0 205 205 205 205 205 205 205 205 205 205 205 205 205 205 205 205 205 0 221 0 0 0 0 0 0 0 0 0 0 0 0 0 0 0 0 0 0 0 0 0 0 0 0 0 0 0 0 0 0 0 0 162 205 205 205 205 205 205 205 205 205 137 111 205 205 205 205 205 205 205 205 137 0 0 0 0 0 0 0 0 0 0 0 0 0 0 
0 0 0 0 188 205 205 205 205 205 205 205 205 205 205 205 205 205 205 205 205 0 0 0 0 0 0 0 0 0 0 0 0 0 0 0 0 0 0 0 0 0 0 0 0 0 0 0 0 0 0 0 0 0 0 0 0 188 205 205 205 205 205 205 205 205 0 162 205 205 205 205 205 205 205 205 0 0 0 0 0 0 0 0 0 0 0 0 0 0 0 
0 0 0 0 180 205 205 205 205 205 205 205 205 205 205 205 205 205 205 205 0 0 0 0 0 0 0 0 0 0 0 0 0 0 0 0 0 0 0 0 0 0 0 0 0 0 0 0 0 0 0 0 0 0 0 0 0 0 205 205 205 205 205 205 205 205 0 205 205 205 205 205 205 205 205 137 153 0 0 0 0 0 0 0 0 0 0 0 0 0 0 
0 0 0 221 205 205 205 205 205 205 205 205 205 205 205 205 205 205 205 0 0 0 0 0 0 0 0 0 0 0 0 0 0 0 0 0 0 0 0 0 0 0 0 0 0 0 0 0 0 0 0 0 0 0 0 0 0 0 111 205 205 205 205 205 205 137 111 205 205 205 205 205 205 205 205 0 0 0 0 0 0 0 0 0 0 0 0 0 0 0 0 
0 0 0 205 205 205 205 205 205 205 205 205 205 205 205 205 205 205 0 0 0 0 0 0 0 0 0 0 0 0 0 0 0 0 0 0 0 0 0 0 0 0 0 0 0 0 0 0 0 0 0 0 0 0 0 0 0 0 0 145 205 205 205 205 205 111 188 205 205 205 205 205 205 205 0 0 0 0 0 0 0 0 0 0 0 0 0 0 0 0 0 
0 0 0 205 205 205 205 205 205 205 205 205 205 205 205 205 205 0 0 153 0 0 0 0 0 0 0 0 0 0 0 0 0 0 0 0 0 0 0 0 0 0 0 0 0 0 0 0 0 0 0 0 0 0 0 0 0 0 0 0 162 205 205 205 137 111 205 205 205 205 205 205 205 111 127 0 0 0 0 0 0 0 0 0 0 0 0 0 0 0 0 
0 0 221 205 205 205 205 205 205 205 205 205 205 205 205 205 0 0 111 0 0 0 0 0 0 0 0 0 0 0 0 0 0 0 0 0 0 0 0 0 0 0 0 0 0 0 0 0 0 0 0 0 0 0 0 0 0 0 0 0 0 137 205 205 0 162 205 205 205 205 205 205 137 0 0 0 0 0 0 0 0 0 0 0 0 0 0 0 0 0 0 
0 0 188 205 205 205 205 205 205 205 205 205 205 205 188 0 154 205 205 205 205 205 162 0 0 247 0 0 0 0 0 0 0 0 0 0 0 0 0 0 0 0 0 0 0 0 0 0 0 0 0 0 0 0 0 0 0 0 0 0 0 0 137 205 0 205 205 205 205 205 205 137 119 0 0 0 0 0 0 0 0 0 0 0 0 0 0 0 0 0 0 
0 0 205 205 205 205 205 205 205 205 205 205 205 162 111 205 205 205 205 205 205 205 205 205 162 0 0 0 0 0 0 0 0 0 0 0 0 0 0 0 0 0 0 0 0 0 0 0 0 0 0 0 0 0 0 0 0 0 0 0 0 0 0 0 0 111 205 205 205 162 0 153 0 0 0 0 0 0 0 0 0 0 0 0 0 0 0 0 0 0 0 
0 145 205 205 205 205 205 205 205 205 205 188 154 137 205 205 205 205 205 205 205 205 205 205 205 111 0 0 0 0 0 0 0 0 0 0 0 0 0 0 0 0 0 0 0 0 0 0 0 0 0 0 0 0 0 0 0 0 0 0 0 0 0 0 0 0 0 0 0 0 0 0 0 0 0 0 0 0 0 0 0 0 0 0 0 0 0 0 0 0 0 
255 137 205 205 205 205 205 205 205 205 154 111 162 205 205 205 205 205 205 205 205 205 205 205 205 137 0 0 0 0 0 0 0 0 0 0 0 0 0 0 0 0 0 0 0 0 0 0 0 0 0 0 0 0 0 0 0 0 0 0 0 0 0 0 0 0 229 0 0 0 0 0 0 0 0 0 0 0 0 0 0 0 0 0 0 0 0 0 0 0 0 
0 180 205 205 205 205 205 205 205 205 205 205 205 205 205 205 205 205 205 205 205 205 205 205 205 111 0 0 0 0 0 0 0 0 0 0 0 0 0 0 0 0 0 0 0 0 0 0 0 0 0 0 0 0 0 0 0 0 0 0 0 0 0 0 0 0 0 0 0 0 0 0 0 0 0 0 0 0 0 0 0 0 0 0 0 0 0 0 0 0 0 
111 205 205 205 205 205 205 205 205 205 205 205 205 205 205 205 205 205 205 205 205 205 205 205 162 0 0 0 0 0 0 0 0 0 0 0 0 0 0 0 0 0 0 0 0 0 0 0 0 0 0 0 0 0 0 0 0 0 0 0 0 0 0 0 0 0 0 0 0 0 0 0 0 0 0 0 0 0 0 0 0 0 0 0 0 0 0 0 0 0 0 
0 162 205 205 205 205 205 205 205 205 205 205 205 205 205 205 205 205 205 205 205 205 205 137 0 0 0 0 0 0 0 0 0 0 0 0 0 0 0 0 0 0 0 0 0 0 0 0 0 0 0 0 0 0 0 0 0 0 0 0 0 0 0 0 0 0 0 0 0 0 0 0 0 0 0 0 0 0 0 0 0 0 0 0 0 0 0 0 0 0 0 
0 0 205 205 205 205 205 205 205 205 205 205 205 205 205 205 205 205 205 205 205 162 0 0 0 0 0 0 0 0 0 0 0 0 0 0 0 0 0 0 0 0 0 0 0 0 0 0 0 0 0 0 0 0 0 0 0 0 0 0 0 0 0 0 0 0 0 0 0 0 0 0 0 0 0 0 0 0 0 0 0 0 0 0 0 0 0 0 0 0 0 
0 0 145 162 205 205 205 205 205 205 205 205 205 205 205 205 205 205 205 137 0 145 0 0 0 0 0 0 0 0 0 0 0 0 0 0 0 0 0 0 0 0 0 0 0 0 0 0 0 0 0 0 0 0 0 0 0 0 0 0 0 0 0 0 0 0 0 0 0 0 0 0 0 0 0 0 0 0 0 0 0 0 0 0 0 0 0 0 0 0 0 
0 0 0 0 153 0 0 0 154 162 188 205 188 205 188 154 137 0 0 153 0 0 0 0 0 0 0 0 0 0 0 0 0 0 0 0 0 0 0 0 0 0 0 0 0 0 0 0 0 0 0 0 0 0 0 0 0 0 0 0 0 0 0 0 0 0 0 0 0 0 0 0 0 0 0 0 0 0 0 0 0 0 0 0 0 0 0 0 0 0 0 
0 0 0 0 0 0 0 153 0 0 0 0 0 0 0 0 153 0 0 0 0 0 0 0 0 0 0 0 0 0 0 0 0 0 0 0 0 0 0 0 0 0 0 0 0 0 0 0 0 0 0 0 0 0 0 0 0 0 0 0 0 0 0 0 0 0 0 0 0 0 0 0 0 0 0 0 0 0 0 0 0 0 0 0 0 0 0 0 0 0 0 
