P2
91 149
255 
0 0 0 0 0 0 0 0 0 0 0 0 0 0 0 0 0 0 0 0 0 0 0 0 0 0 0 0 0 0 0 0 0 0 0 0 0 0 0 0 0 0 0 0 0 0 0 0 0 0 0 51 0 43 51 153 0 0 0 0 0 0 0 0 0 0 0 0 0 0 0 0 0 0 0 0 0 0 0 0 0 0 0 0 0 0 0 0 0 0 0 
0 0 0 0 0 0 0 0 0 0 0 0 0 0 0 0 0 0 0 0 0 0 0 0 0 0 0 0 0 0 0 0 0 0 0 0 0 0 0 0 0 0 0 0 0 0 0 0 0 102 17 94 255 255 255 43 0 0 0 0 0 0 0 0 0 0 0 0 0 0 0 0 0 0 0 0 0 0 0 0 0 0 0 0 0 0 0 0 0 0 0 
0 0 0 0 0 0 0 0 0 0 0 0 0 0 0 0 0 0 0 0 0 0 0 0 0 0 0 0 0 0 0 0 0 0 0 0 0 0 0 0 0 0 0 0 0 0 0 0 43 94 255 255 255 255 255 255 68 0 0 0 0 0 0 0 0 0 0 0 0 0 0 0 0 0 0 0 0 0 0 0 0 0 0 0 0 0 0 0 0 0 0 
0 0 0 0 0 0 0 0 0 0 0 0 0 0 0 0 0 0 0 0 0 0 0 0 0 0 0 0 0 0 0 0 0 0 0 0 0 0 0 0 0 0 0 0 0 0 255 43 145 255 255 255 255 255 255 255 94 0 0 0 0 0 0 0 0 0 0 0 0 0 0 0 0 0 0 0 0 0 0 0 0 0 0 0 0 0 0 0 0 0 0 
0 0 0 0 0 0 0 0 0 0 0 0 0 0 0 0 0 0 0 0 0 0 0 0 0 0 0 0 0 0 0 0 0 0 0 0 0 0 0 0 0 0 0 0 0 0 43 111 255 255 255 255 255 255 255 255 68 153 0 0 0 0 0 0 0 102 51 17 43 51 94 0 0 0 0 0 0 0 0 0 0 0 0 0 0 0 0 0 0 0 0 
0 0 0 0 0 0 0 0 0 0 0 0 0 0 0 0 0 0 0 0 0 0 0 0 0 0 0 0 0 0 0 0 0 0 0 0 0 0 0 0 0 0 0 0 0 102 111 255 255 255 255 255 255 255 255 255 43 0 0 0 0 0 0 0 43 68 137 255 255 255 255 255 68 0 0 0 0 0 0 0 0 0 0 0 0 0 0 0 0 0 0 
0 0 0 0 0 0 0 0 0 0 0 0 0 0 0 0 0 0 0 0 0 0 0 0 0 0 0 0 0 0 0 0 0 0 0 0 0 0 0 0 0 0 0 0 0 68 255 255 255 255 255 255 255 255 255 137 0 94 94 51 94 153 0 68 137 255 255 255 255 255 255 255 255 51 0 0 0 0 0 0 0 0 0 0 0 0 0 0 0 0 0 
0 0 0 0 0 0 0 0 0 0 0 0 0 0 0 0 0 0 0 0 0 0 0 0 0 0 0 0 0 0 0 0 0 0 0 0 0 0 0 0 0 0 0 0 94 255 255 255 255 255 255 255 255 255 255 94 68 255 255 137 94 43 0 68 255 255 255 255 255 255 255 255 255 94 0 0 0 0 0 0 0 0 0 0 0 0 0 0 0 0 0 
0 0 0 0 0 0 0 0 0 0 0 0 0 0 0 0 0 0 0 0 0 0 0 0 0 0 0 0 0 0 0 0 0 0 0 0 0 0 0 0 0 0 0 0 68 255 255 255 255 255 255 255 255 255 255 0 137 255 255 255 255 255 137 68 0 111 255 255 255 255 255 255 255 137 0 0 0 0 0 0 0 0 0 0 0 0 0 0 0 0 0 
0 0 0 0 0 0 0 0 0 0 0 0 0 0 0 0 0 0 0 0 0 0 0 0 0 0 0 0 0 0 0 0 0 0 0 0 0 0 0 0 0 0 0 0 111 255 255 255 255 255 255 255 255 255 94 68 255 255 255 255 255 255 255 255 137 43 51 255 255 255 255 255 255 94 0 0 0 0 0 0 0 0 0 0 0 0 0 0 0 0 0 
0 0 0 0 0 0 0 0 0 0 0 0 0 0 0 0 0 0 0 0 0 0 0 0 0 0 0 0 0 0 0 0 0 0 0 0 0 0 0 0 0 0 0 94 137 255 255 255 255 255 255 255 255 137 0 255 255 255 255 255 255 255 255 255 255 255 68 0 255 255 255 255 255 51 0 0 0 0 0 0 0 0 0 0 0 0 0 0 0 0 0 
0 0 0 0 0 0 0 0 0 0 0 0 0 0 0 0 0 0 0 0 0 0 0 0 0 0 0 0 0 0 0 0 0 0 0 0 0 0 0 0 0 0 51 17 145 255 255 255 255 255 255 255 255 17 137 255 255 255 255 255 255 255 255 255 255 255 255 94 0 255 255 255 111 127 0 0 0 0 0 0 0 0 0 0 0 0 0 0 0 0 0 
0 0 0 0 0 0 0 0 0 0 0 0 0 0 0 0 0 0 0 0 0 0 0 0 0 0 0 0 0 0 0 0 0 0 0 0 0 0 0 0 0 43 137 255 137 255 255 255 255 255 255 255 51 255 255 255 255 255 255 255 255 255 255 255 255 255 255 255 94 43 255 255 43 0 0 0 0 0 0 0 0 0 0 0 0 0 0 0 0 0 0 
0 0 0 0 0 0 0 0 0 0 0 0 0 0 0 0 0 0 0 0 0 0 0 0 0 0 0 0 0 0 0 0 0 0 0 0 0 0 0 0 51 137 255 137 94 255 255 255 255 255 255 111 137 255 255 255 255 255 255 255 255 255 255 255 255 255 255 255 255 17 68 111 153 0 0 0 0 0 0 0 0 0 0 0 0 0 0 0 0 0 0 
0 0 0 0 0 0 0 0 0 0 0 0 0 0 0 0 0 0 0 0 0 0 0 0 0 0 0 0 0 0 0 0 0 0 0 0 0 0 0 94 111 255 255 255 68 111 255 255 255 255 255 255 255 255 255 255 255 255 255 255 255 255 255 255 255 255 255 255 255 137 0 153 0 0 0 0 0 0 0 0 0 0 0 0 0 0 0 0 0 0 0 
0 0 0 0 0 0 0 0 0 0 0 0 0 0 0 0 0 0 0 0 0 0 0 0 0 0 0 0 0 0 0 0 0 0 0 0 0 0 0 68 255 255 255 255 255 94 255 255 255 255 255 255 255 255 255 255 255 255 255 255 255 255 255 255 255 255 255 255 255 255 94 68 0 0 0 0 0 0 0 0 0 0 0 0 0 0 0 0 0 0 0 
0 0 0 0 0 0 0 0 0 0 0 0 0 0 0 0 0 0 0 0 0 0 0 0 0 0 0 0 0 0 0 0 0 0 0 0 0 0 43 255 255 255 255 255 255 255 255 255 255 255 255 255 255 255 255 255 255 255 255 255 255 255 255 255 255 255 255 255 255 255 255 51 153 0 0 0 0 0 0 0 0 0 0 0 0 0 0 0 0 0 0 
0 0 0 0 0 0 0 0 0 0 0 0 0 0 0 0 0 0 0 0 0 0 0 0 0 0 0 0 0 0 0 0 0 0 0 0 0 153 68 255 255 255 255 255 255 255 255 255 255 255 255 255 255 255 255 255 255 255 255 255 255 255 255 255 255 255 255 255 255 255 255 255 43 0 0 0 0 0 0 0 0 0 0 0 0 0 0 0 0 0 0 
0 0 0 0 0 0 0 0 0 0 0 0 0 0 0 0 0 0 0 0 0 0 0 0 0 0 0 0 0 0 0 0 0 0 0 0 0 51 255 255 255 255 255 255 255 255 255 255 255 255 255 255 255 255 255 255 255 255 255 255 255 255 255 255 255 255 255 255 255 255 255 255 137 119 0 0 0 0 0 0 0 0 0 0 0 0 0 0 0 0 0 
0 0 0 0 0 0 0 0 0 0 0 0 0 0 0 0 0 0 0 0 0 0 0 0 0 0 0 0 0 0 0 0 0 0 0 0 0 68 255 255 255 255 255 255 255 255 255 255 255 255 255 255 255 255 255 255 255 255 255 255 255 255 255 255 255 255 255 255 255 255 255 255 255 68 0 0 0 0 0 0 0 0 0 0 0 0 0 0 0 0 0 
0 0 0 0 0 0 0 0 0 0 0 0 0 0 0 0 0 0 0 0 0 0 0 0 0 0 0 0 0 0 0 0 0 0 0 0 102 137 255 255 255 255 255 255 255 255 255 255 255 255 255 255 255 255 255 255 255 255 255 255 255 255 255 255 255 255 255 255 255 255 255 255 255 255 94 0 0 0 0 0 0 0 0 0 0 0 0 0 0 0 0 
0 0 0 0 0 0 0 0 0 0 0 0 0 0 0 0 0 0 0 0 0 0 0 0 0 0 0 0 0 0 0 0 0 0 0 0 94 255 255 255 255 255 255 255 255 255 255 255 255 255 255 255 255 255 255 255 255 255 255 255 255 255 255 255 255 255 255 255 255 255 255 255 255 255 255 127 0 0 0 0 0 0 0 0 0 0 0 0 0 0 0 
0 0 0 0 0 0 0 0 0 0 0 0 0 0 0 0 0 0 0 0 0 0 0 0 0 0 0 0 0 0 0 0 0 0 0 0 94 255 255 255 255 255 255 255 255 255 255 255 255 255 255 255 255 255 255 255 255 255 255 255 255 255 255 255 255 255 255 255 255 255 255 255 255 255 255 137 119 0 0 0 0 0 0 0 0 0 0 0 0 0 0 
0 0 0 0 0 0 0 0 0 0 0 0 0 0 0 0 0 0 0 0 0 0 0 0 0 0 0 0 0 0 0 0 0 0 0 0 137 255 255 255 255 255 255 255 255 255 255 255 255 255 255 255 255 255 255 255 255 255 255 255 255 255 255 255 255 255 255 255 255 255 255 255 255 255 255 255 111 127 0 0 0 0 0 0 0 0 0 0 0 0 0 
0 0 0 0 0 0 0 0 0 0 0 0 0 0 0 0 0 0 0 0 0 0 0 0 0 0 0 0 0 0 0 0 0 0 0 153 255 255 255 255 255 255 255 255 255 255 255 255 255 255 255 255 255 255 255 255 255 255 255 255 255 255 255 255 255 255 255 255 255 255 255 255 255 255 255 255 255 111 102 0 0 0 0 0 0 0 0 0 0 0 0 
0 0 0 0 0 0 0 0 0 0 0 0 0 0 0 0 0 0 0 0 0 0 0 0 0 0 0 0 0 0 0 0 0 0 0 145 255 255 255 255 255 255 255 255 255 255 255 255 255 255 255 255 255 255 255 255 255 255 255 255 255 255 255 255 255 255 255 255 255 255 255 255 255 255 255 255 255 255 137 102 0 0 0 0 0 0 0 0 0 0 0 
0 0 0 0 0 0 0 0 0 0 0 0 0 0 0 0 0 0 0 0 0 0 0 0 0 0 0 0 0 0 0 0 0 0 0 137 255 255 255 255 255 255 255 255 255 255 255 255 255 255 255 255 255 255 255 255 255 255 255 255 255 255 255 255 255 255 255 255 255 255 255 255 255 255 255 255 255 255 255 68 153 0 0 0 0 0 0 0 0 0 0 
0 0 0 0 0 0 0 0 0 0 0 0 0 0 0 0 0 0 0 0 0 0 0 0 0 0 0 0 0 0 0 0 0 0 0 255 255 255 255 255 255 255 255 255 255 255 255 255 255 255 255 255 255 255 255 255 255 255 255 255 255 255 255 255 255 255 60 17 51 255 255 255 255 255 255 255 255 255 255 94 43 0 0 0 0 0 0 0 0 0 0 
0 0 0 0 0 0 0 0 0 0 0 0 0 0 0 0 0 0 0 0 0 0 0 0 0 0 0 0 0 0 0 0 0 0 0 255 255 255 255 255 255 255 255 255 255 255 255 255 255 255 255 255 255 255 255 255 255 255 255 255 255 255 255 255 255 111 137 255 255 255 255 255 255 255 255 255 255 255 255 94 119 0 0 0 0 0 0 0 0 0 0 
0 0 0 0 0 0 0 0 0 0 0 0 0 0 0 0 0 0 0 0 0 0 0 0 0 0 0 0 0 0 0 0 0 0 102 255 255 255 255 255 255 255 255 255 255 255 255 255 255 255 255 255 255 255 255 255 255 255 255 255 255 255 255 255 255 255 255 255 255 255 255 255 255 255 255 255 255 255 255 43 0 0 0 0 0 0 0 0 0 0 0 
0 0 0 0 0 0 0 0 0 0 0 0 0 0 0 0 0 0 0 0 0 0 0 0 0 0 0 0 0 35 52 17 68 94 137 255 255 255 255 255 255 255 255 255 255 255 255 255 255 255 255 255 255 255 255 255 255 255 255 255 255 255 255 255 255 255 255 255 255 255 255 255 255 255 255 255 255 255 94 102 0 0 0 0 0 0 0 0 0 0 0 
0 0 0 0 0 0 0 0 0 0 0 0 0 0 0 0 0 0 0 0 0 0 0 0 0 0 0 0 70 70 70 70 52 68 255 255 255 255 255 255 255 255 255 255 255 255 255 255 255 255 255 255 255 255 255 255 255 255 255 255 255 255 255 255 255 255 255 255 255 255 255 255 255 255 255 255 255 137 119 0 0 0 0 0 0 0 0 0 0 0 0 
0 0 0 0 0 0 0 0 0 0 0 0 0 0 0 0 0 0 0 0 0 0 0 0 0 0 0 0 52 70 70 70 35 255 255 255 255 255 255 255 255 255 255 255 255 255 255 255 255 255 255 255 255 255 255 255 255 255 255 255 255 255 255 255 255 255 255 255 255 255 255 255 255 255 255 255 111 0 0 0 0 0 0 0 0 0 0 0 0 0 0 
0 0 0 0 0 0 0 0 0 0 0 0 0 0 0 0 0 0 0 0 0 0 0 0 0 0 0 0 35 70 70 35 111 255 255 255 255 255 255 255 255 255 255 255 255 255 255 255 255 255 255 255 255 255 255 255 255 255 255 255 255 255 255 255 255 255 255 68 43 255 255 255 255 255 255 255 119 0 0 0 0 0 0 0 0 0 0 0 0 0 0 
0 0 0 0 0 0 0 0 0 0 0 0 0 0 0 0 0 0 0 0 0 0 0 0 0 0 0 0 35 52 70 94 255 255 255 255 255 255 255 255 255 255 255 255 255 255 255 255 255 255 255 255 255 255 255 255 255 255 255 255 255 255 255 255 255 255 43 0 51 255 255 255 255 255 255 255 94 127 0 0 0 0 0 0 0 0 0 0 0 0 0 
0 0 0 0 0 0 0 0 0 0 0 0 0 0 0 0 0 0 0 0 0 0 0 0 0 0 0 0 70 52 68 255 255 255 255 255 255 255 255 255 255 255 255 255 255 255 255 255 255 255 255 255 255 255 255 255 255 255 255 255 255 255 255 255 255 94 0 0 111 255 255 255 255 255 255 255 255 111 94 0 0 0 0 0 0 0 0 0 0 0 0 
0 0 0 0 0 0 0 0 0 0 0 0 0 0 0 0 0 0 0 0 0 0 0 0 0 0 0 0 103 70 60 255 255 255 255 255 255 255 255 255 255 255 255 255 255 255 255 255 255 255 255 255 255 255 255 255 255 255 255 255 255 255 255 255 255 255 86 111 255 255 255 255 255 255 255 255 255 255 255 255 0 0 0 0 0 0 0 0 0 0 0 
0 0 0 0 0 0 0 0 0 0 0 0 0 0 0 0 0 0 0 0 0 0 0 0 0 0 0 0 70 70 35 111 255 255 255 255 255 255 255 255 255 255 255 255 255 255 255 255 255 255 255 255 255 255 255 255 255 255 255 255 255 255 255 255 255 255 255 255 255 255 255 255 255 255 255 255 255 255 255 255 255 94 0 0 0 0 0 0 0 0 0 
0 0 0 0 0 0 0 0 0 0 0 0 0 0 0 0 0 0 0 0 0 0 0 0 0 0 0 0 103 70 70 52 255 255 255 255 255 255 255 255 255 255 255 255 255 255 255 255 255 255 255 255 255 255 255 255 255 255 255 255 255 255 255 255 255 255 255 255 255 255 255 255 255 255 255 255 255 255 255 255 255 255 43 153 0 0 0 0 0 0 0 
0 0 0 0 0 0 0 0 0 0 0 0 0 0 0 0 0 0 0 0 0 0 0 0 0 0 0 0 70 70 70 70 68 255 255 255 255 255 255 255 255 255 255 255 255 255 255 255 255 255 255 255 255 255 255 255 255 255 255 255 255 255 255 255 255 255 255 255 255 255 255 255 255 255 255 255 255 255 255 255 255 255 255 43 0 0 0 0 0 0 0 
0 0 0 0 0 0 0 0 0 0 0 0 0 0 0 0 0 0 0 0 0 0 0 0 0 0 0 0 103 70 70 70 52 94 255 255 255 255 255 255 255 255 255 255 255 255 255 255 255 255 255 255 255 255 255 255 255 255 255 255 255 255 255 255 255 255 255 255 255 255 255 255 255 255 255 255 255 255 255 255 94 60 94 51 68 0 0 0 0 0 0 
0 0 0 0 0 0 0 0 0 0 0 0 0 0 0 0 0 0 0 0 0 0 0 0 0 0 0 0 70 70 70 70 70 52 94 255 255 255 255 255 255 255 255 255 255 255 255 255 255 255 255 255 255 255 255 255 255 255 255 255 255 255 255 255 255 255 255 255 255 255 255 255 255 255 255 255 255 255 255 86 0 0 0 0 0 0 0 0 0 0 0 
0 0 0 0 0 0 0 0 0 0 0 0 0 0 0 0 0 0 0 0 0 0 0 0 0 0 0 0 70 70 70 70 70 70 52 137 255 255 255 255 255 255 255 255 255 255 255 255 255 255 255 255 255 255 255 255 255 255 255 255 255 255 255 255 255 255 255 255 255 255 255 255 255 255 255 255 255 255 255 51 0 0 0 0 0 153 0 0 0 0 0 
0 0 0 0 0 0 0 0 0 0 0 0 0 0 0 0 0 0 0 0 0 0 0 0 0 0 0 0 70 70 70 70 70 70 70 17 255 255 255 255 255 255 255 255 255 255 255 255 255 255 255 255 255 255 255 255 255 255 255 255 255 255 255 255 255 255 255 255 255 255 255 255 255 255 255 255 255 255 255 51 0 0 0 0 0 0 0 0 0 0 0 
0 0 0 0 0 0 0 0 0 0 0 0 0 0 0 0 0 0 0 0 0 0 0 0 0 0 0 60 70 70 70 70 95 70 70 70 35 255 255 255 255 255 255 255 255 255 255 255 255 255 255 255 255 255 255 255 255 255 255 255 255 255 255 255 255 255 255 255 255 255 255 255 255 255 255 255 255 255 255 94 0 0 0 0 0 0 0 0 0 0 0 
0 0 0 0 0 0 0 0 0 0 0 0 0 0 0 0 0 0 0 0 0 0 0 0 0 0 111 70 70 78 95 70 70 78 70 70 52 60 255 255 255 255 255 255 255 255 255 255 255 255 255 255 255 255 255 255 255 255 255 255 255 255 43 0 17 255 255 255 255 255 255 255 255 255 255 255 255 255 255 255 0 0 0 0 94 0 0 0 0 0 0 
0 0 0 0 0 0 0 0 0 0 0 0 0 0 0 0 0 0 0 0 0 0 0 0 0 0 35 70 70 70 70 70 70 70 70 70 70 52 43 255 255 255 255 255 255 255 255 255 255 255 255 255 255 255 255 255 255 255 255 255 255 94 111 17 25 255 255 255 255 255 255 255 255 255 255 255 255 255 255 255 94 0 0 0 0 0 0 0 0 0 0 
0 0 0 0 0 0 0 0 0 0 0 0 0 0 0 0 0 0 0 0 0 0 0 0 0 60 70 70 70 70 70 70 70 70 70 70 70 70 52 51 255 255 255 255 255 255 255 255 255 255 255 255 255 255 255 255 255 255 255 255 255 255 255 0 0 94 255 255 255 255 255 255 255 255 255 255 255 255 255 255 255 94 17 102 0 0 0 0 0 0 0 
0 0 0 0 0 0 0 0 0 0 0 0 0 0 0 0 0 0 0 0 0 0 0 0 0 70 70 70 70 70 70 70 70 70 70 95 70 70 70 70 43 255 255 255 255 255 255 255 255 255 255 255 255 255 255 255 255 255 255 255 255 255 255 0 0 0 255 255 255 255 255 255 255 255 255 255 255 255 255 255 255 137 51 0 0 0 0 0 0 0 0 
0 0 0 0 0 0 0 0 0 0 0 0 0 0 0 0 0 0 0 0 0 0 0 0 0 52 70 70 70 70 103 70 70 70 70 70 78 70 70 70 52 60 255 255 255 255 255 255 255 255 255 255 255 255 255 255 255 255 255 255 255 255 137 0 0 0 51 255 255 255 255 255 255 255 255 255 255 255 255 255 137 51 0 0 0 0 0 0 0 0 0 
0 0 0 0 0 0 0 0 0 0 0 0 0 0 0 0 0 0 0 0 0 0 0 0 0 52 70 70 78 70 70 70 70 70 78 70 70 70 70 70 70 52 60 255 255 255 255 255 255 255 255 255 255 255 255 255 255 255 255 255 255 255 255 17 0 0 0 111 255 255 255 255 255 255 255 255 255 255 255 111 94 0 0 0 0 0 0 0 0 0 0 
0 0 0 0 0 0 0 0 0 0 0 0 0 0 0 0 0 0 0 0 0 0 0 0 102 70 70 70 70 70 70 70 70 70 95 70 70 70 70 70 70 70 70 17 255 255 255 255 255 255 255 255 255 255 255 255 255 255 255 255 255 255 255 68 0 0 0 0 111 255 255 255 255 255 255 255 255 137 94 153 0 0 0 0 0 0 0 0 0 0 0 
0 0 0 0 0 0 0 0 0 0 0 0 0 0 0 0 0 0 0 0 0 0 0 0 68 70 70 70 70 95 70 70 70 70 70 70 70 70 70 95 70 70 70 70 35 137 255 255 255 255 255 255 255 255 255 255 255 255 255 255 255 255 255 137 0 0 0 0 51 255 255 255 255 255 255 94 68 127 0 0 0 0 0 0 0 0 0 0 0 0 0 
0 0 0 0 0 0 0 0 0 0 0 0 0 0 0 0 0 0 0 0 0 0 0 0 35 70 70 95 70 70 70 78 70 70 70 70 70 95 70 78 70 70 70 70 70 35 94 255 255 255 255 255 255 255 255 255 255 255 255 255 255 255 255 255 43 0 0 0 111 255 94 145 255 153 153 0 0 0 0 0 0 0 0 0 0 0 0 0 0 0 0 
0 0 0 0 0 0 0 0 0 0 0 0 0 0 0 0 0 0 0 0 0 0 0 102 70 70 70 70 70 70 70 70 70 95 70 70 70 78 70 70 70 70 70 70 70 70 35 94 255 255 255 255 255 255 255 255 255 255 255 255 255 255 255 255 111 0 0 0 137 94 0 0 0 0 0 0 0 0 0 0 0 0 0 0 0 0 0 0 0 0 0 
0 0 0 0 0 0 0 0 0 0 0 0 0 0 0 0 0 0 0 0 0 0 0 35 70 70 70 78 70 70 70 70 70 70 78 70 70 70 70 70 70 70 95 70 70 70 70 52 94 255 255 255 255 255 255 255 255 255 255 255 255 255 255 255 255 17 0 51 255 94 0 0 0 0 0 0 0 0 0 0 0 0 0 0 0 0 0 0 0 0 0 
0 0 0 0 0 0 0 0 0 0 0 0 0 0 0 0 0 0 0 0 0 0 153 35 70 70 70 70 70 70 95 70 70 70 70 70 70 70 70 70 70 70 78 70 70 70 70 70 35 68 255 255 255 255 255 255 255 255 255 255 255 255 255 255 255 137 68 255 68 153 0 0 0 0 0 0 0 0 0 0 0 0 0 0 0 0 0 0 0 0 0 
0 0 0 0 0 0 0 0 0 0 0 0 0 0 0 0 0 0 0 0 0 0 60 70 70 70 70 70 70 70 70 70 70 70 70 70 70 70 70 70 78 70 70 70 70 70 70 70 70 52 35 137 255 255 255 255 255 255 255 255 255 255 255 255 255 255 255 255 86 94 94 94 111 94 94 94 60 94 102 153 0 0 0 0 0 0 0 0 0 0 0 
0 0 0 0 0 0 0 0 0 0 0 0 0 0 0 0 0 0 0 0 0 153 70 70 70 70 95 70 70 78 70 70 70 78 95 70 70 95 70 70 70 95 70 70 70 95 70 70 70 70 70 35 94 255 255 255 255 255 255 255 255 255 255 94 43 17 17 94 255 255 255 255 255 255 255 255 255 255 255 255 111 94 153 0 0 0 0 0 0 0 0 
0 0 0 0 0 0 0 0 0 0 0 0 0 0 0 0 0 0 0 0 0 52 70 70 70 70 78 70 70 70 70 70 95 70 70 70 70 78 70 70 70 70 70 70 52 52 70 70 70 70 70 70 17 68 255 255 255 255 255 255 255 137 68 51 35 70 70 78 255 255 255 255 255 255 255 255 255 255 255 255 255 255 137 94 0 0 0 0 0 0 0 
0 0 0 0 0 0 0 0 0 0 0 0 0 0 0 0 0 0 0 94 52 70 70 70 78 70 70 70 70 70 70 70 70 70 70 70 70 70 70 70 70 70 70 70 70 52 35 35 70 70 70 70 70 35 43 137 255 255 255 255 255 255 255 255 17 70 70 17 255 255 255 255 255 255 255 255 255 255 255 255 255 255 255 255 137 68 0 0 0 0 0 
0 0 0 0 0 0 0 0 0 0 0 0 0 0 0 0 0 0 0 35 70 70 70 70 70 70 70 70 95 70 70 70 70 70 70 70 70 70 70 70 70 70 70 70 70 70 70 35 35 52 70 70 70 70 70 35 94 255 255 255 255 255 255 255 17 70 52 94 255 255 255 255 255 255 255 255 255 255 255 255 255 255 255 255 255 255 94 0 0 0 0 
0 0 0 0 0 0 0 0 0 0 0 0 0 0 0 0 0 0 0 35 70 70 70 95 70 70 70 70 70 70 78 70 70 70 78 70 70 70 95 70 78 70 70 95 78 70 70 70 52 35 52 70 70 70 70 70 52 17 255 255 255 255 255 255 35 70 52 137 255 255 255 255 255 255 255 255 255 255 255 255 255 255 255 255 255 255 255 94 0 0 0 
0 0 0 0 0 0 0 0 0 0 0 0 0 0 0 0 0 0 0 153 17 70 70 70 70 70 70 70 78 70 70 70 70 70 70 95 70 70 78 70 70 70 70 70 70 70 70 70 70 70 52 52 70 70 70 70 70 70 35 68 255 255 255 111 52 70 35 111 255 255 255 255 255 255 255 255 255 255 255 255 255 255 255 255 255 255 255 137 102 0 0 
0 0 0 0 0 0 0 0 0 0 0 0 0 0 0 0 0 0 0 0 17 52 70 70 78 70 70 95 70 70 70 95 70 70 70 70 70 70 70 70 70 70 70 70 70 70 70 70 70 70 70 35 70 70 103 70 70 70 70 52 35 94 255 94 70 70 0 94 255 255 255 255 255 255 255 255 255 255 255 255 255 255 255 255 255 255 255 255 51 153 0 
0 0 0 0 0 0 0 0 0 0 0 0 0 0 0 0 0 0 0 0 0 35 70 70 70 95 70 70 70 70 70 70 70 70 70 70 70 70 70 70 95 70 70 70 70 70 70 95 78 70 70 52 52 70 52 70 70 70 70 70 70 35 0 35 70 70 0 68 255 255 255 255 255 255 255 255 255 255 255 255 255 255 255 255 255 255 255 255 86 51 0 
0 0 0 0 0 0 0 0 0 0 0 0 0 0 0 0 0 0 0 102 255 43 35 70 70 70 70 70 70 70 70 70 70 78 70 52 70 78 70 70 70 78 70 70 95 78 70 70 70 70 70 52 52 70 35 70 70 70 70 70 70 70 70 17 70 70 35 43 255 255 255 255 111 255 255 255 255 255 255 255 255 255 255 255 255 137 60 94 17 111 68 
0 0 0 0 0 0 0 0 0 0 0 0 0 0 0 0 0 0 0 111 255 137 0 70 70 70 70 70 78 52 70 70 70 70 70 35 70 70 70 70 70 70 70 70 70 70 70 70 70 70 70 70 17 70 35 70 70 70 70 70 70 70 70 70 70 70 52 51 255 255 255 255 94 137 255 255 255 255 255 255 255 255 255 255 137 60 255 255 255 255 86 
0 0 0 0 0 0 0 0 0 0 0 0 0 0 0 0 0 0 0 255 255 255 102 17 70 70 78 70 70 70 52 70 95 70 35 52 70 70 95 70 70 70 70 70 70 70 70 70 70 70 70 70 35 52 35 70 70 103 70 52 70 95 70 70 70 70 70 35 255 255 255 255 94 17 255 255 255 255 255 255 255 255 255 255 68 255 255 255 255 255 102 
0 0 0 0 0 0 0 0 0 0 0 0 0 0 0 0 0 0 111 255 255 255 255 43 70 70 70 70 70 70 52 70 70 70 35 52 70 70 70 70 70 70 70 70 70 70 70 70 95 70 70 70 70 17 35 70 70 35 86 111 129 86 129 86 52 70 70 35 255 255 255 255 94 94 43 94 111 137 111 111 255 255 137 94 86 255 255 255 146 94 0 
0 0 0 0 0 0 0 0 0 0 0 0 0 0 0 0 0 0 255 255 255 255 255 255 17 70 70 70 95 70 52 52 70 70 52 52 70 70 70 70 78 95 70 70 78 70 95 78 70 70 70 70 70 17 17 70 35 94 129 129 129 129 129 129 129 94 35 0 68 137 111 94 60 255 255 255 255 255 255 94 43 146 255 255 255 255 255 255 68 0 0 
0 0 0 0 0 0 0 0 0 0 0 0 0 0 0 0 0 145 255 255 255 255 255 255 111 35 70 70 70 70 70 52 70 70 17 70 70 70 78 70 70 70 70 70 95 70 70 70 70 70 70 78 70 52 0 35 51 129 129 129 129 129 129 129 129 129 129 60 0 43 153 0 153 137 255 255 255 255 255 255 255 255 255 255 255 255 255 255 153 0 0 
0 0 0 0 0 0 0 0 0 0 0 0 0 0 0 0 0 255 255 255 255 255 255 255 255 94 52 70 70 70 70 52 70 70 35 52 70 70 70 70 70 70 70 70 70 70 70 70 70 70 70 70 70 52 0 52 60 129 129 129 129 129 86 86 129 129 129 129 129 68 68 0 0 0 145 255 255 255 255 255 255 255 255 255 255 255 255 111 0 0 0 
0 0 0 0 0 0 0 0 0 0 0 0 0 0 0 0 255 255 255 255 255 255 255 255 255 255 68 35 70 70 70 70 70 70 17 70 70 70 95 70 70 70 70 70 70 70 70 70 70 95 70 70 70 70 17 35 35 129 129 129 129 129 129 60 0 129 129 129 129 129 111 60 94 255 0 0 111 255 255 255 255 255 255 255 255 255 94 153 0 0 0 
0 0 0 0 0 0 0 0 0 0 0 0 0 0 0 0 255 255 255 255 255 255 255 255 255 255 255 94 35 70 70 70 35 70 0 52 70 70 70 70 70 70 70 78 70 70 70 70 78 70 70 70 70 70 52 35 17 129 129 129 129 129 129 129 78 0 94 129 129 129 129 129 111 43 119 0 0 68 43 94 255 255 255 255 255 146 68 0 0 0 0 
0 0 0 0 0 0 0 0 0 0 0 0 0 0 0 255 255 255 255 255 255 255 255 255 255 255 255 255 94 52 70 70 52 52 0 52 70 70 70 70 78 95 70 70 70 70 70 70 70 70 70 70 70 70 70 35 17 43 129 129 129 129 129 129 129 94 0 43 129 129 129 129 129 129 68 68 0 0 153 51 17 60 94 111 111 94 0 0 0 0 0 
0 0 0 0 0 0 0 0 0 0 0 0 0 0 0 255 255 255 255 255 255 255 255 255 255 255 255 255 255 94 35 52 70 17 0 70 70 70 78 70 70 70 70 70 70 95 70 70 70 70 70 103 70 70 70 17 111 111 86 129 129 129 129 129 129 129 129 60 0 94 129 129 129 129 129 111 68 102 0 0 0 153 102 127 153 0 0 0 0 0 0 
0 0 0 0 0 0 0 0 0 0 0 0 0 0 255 255 255 255 255 255 255 255 255 255 255 255 255 255 255 255 137 60 35 35 0 70 70 70 70 70 70 70 70 70 70 78 52 52 17 86 60 86 17 52 52 52 60 129 94 129 129 129 129 129 129 129 129 129 129 43 43 103 129 129 129 129 129 94 94 0 0 0 0 0 0 0 0 0 0 0 0 
0 0 0 0 0 0 0 0 0 0 0 0 0 0 255 255 255 255 255 255 255 255 255 255 255 255 255 255 255 255 255 255 137 51 0 70 70 70 95 70 70 70 70 70 52 35 94 137 255 255 255 255 255 137 68 17 17 129 129 86 103 129 129 129 129 129 129 129 129 129 94 17 60 129 129 129 129 129 129 60 153 0 0 0 0 0 0 0 0 0 0 
0 0 0 0 0 0 0 0 0 0 0 0 0 145 255 255 255 255 255 255 255 255 255 255 255 255 255 255 255 255 255 255 255 255 17 52 70 70 70 70 70 70 103 52 51 255 255 255 255 255 255 255 255 255 255 137 17 68 129 129 60 86 129 129 129 129 129 129 129 129 129 129 86 17 94 129 129 129 129 129 94 68 0 0 0 0 0 0 0 0 0 
0 0 0 0 0 0 0 0 0 0 0 0 0 255 255 255 255 255 255 255 255 255 255 255 255 255 255 255 255 255 255 255 255 255 68 52 70 70 70 70 70 70 17 111 255 255 255 255 255 255 255 255 255 255 255 255 255 43 86 129 129 60 17 111 129 129 129 129 129 129 129 129 129 111 43 17 111 129 129 129 129 129 68 0 0 0 0 0 0 0 0 
0 0 0 0 0 0 0 0 0 0 0 0 94 255 255 255 255 255 255 255 255 255 255 255 255 255 255 255 255 255 255 255 255 255 94 52 70 70 78 70 70 35 111 255 255 255 255 255 255 255 255 255 255 255 255 255 255 111 60 146 129 129 94 17 60 129 129 129 129 129 129 129 129 129 129 129 43 43 103 129 129 129 129 94 102 0 0 0 0 0 0 
0 0 0 0 0 0 0 0 0 0 0 0 137 255 255 255 255 255 255 255 255 255 255 255 255 255 255 255 255 255 255 255 255 255 255 35 70 70 95 70 35 94 255 255 255 255 255 255 255 255 255 255 255 255 255 255 255 255 111 94 129 129 129 129 17 51 129 129 129 129 129 129 129 129 129 129 129 86 43 51 129 129 129 129 129 94 0 0 0 0 0 
0 0 0 0 0 0 0 0 0 0 0 0 255 255 255 255 255 255 255 255 255 255 255 255 255 255 255 255 255 255 255 255 255 255 255 60 70 70 70 70 51 255 255 255 255 255 255 255 255 255 255 255 255 255 255 255 255 255 255 111 111 129 129 129 129 60 17 94 129 129 129 129 129 129 129 129 129 129 129 111 60 43 94 103 129 111 68 0 0 0 0 
0 0 0 0 0 0 0 0 0 0 0 94 255 255 255 255 255 255 255 255 255 255 255 255 255 255 255 255 255 255 255 255 255 255 255 137 35 70 70 52 111 255 255 255 255 255 255 255 255 255 255 255 255 255 255 255 255 255 255 255 111 94 129 129 129 129 111 17 43 129 129 129 129 129 129 129 129 129 129 129 129 129 86 60 60 60 111 68 0 0 0 
0 0 0 0 0 0 0 0 0 0 0 111 255 255 255 255 255 255 255 255 255 255 255 255 255 255 255 255 255 255 255 255 255 255 255 255 17 70 70 68 255 255 255 255 255 255 255 255 255 255 255 255 255 255 255 255 255 255 255 255 255 111 60 129 129 129 129 129 68 17 94 129 129 129 129 129 129 129 129 129 129 129 129 129 111 111 86 111 60 0 0 
0 0 0 0 0 0 0 0 0 0 0 137 255 255 255 255 255 255 255 255 255 255 255 255 255 255 255 255 255 255 255 255 255 255 255 255 111 35 70 78 255 255 255 255 255 255 255 255 255 255 255 255 255 255 255 255 255 255 255 255 255 255 111 60 129 129 129 129 129 111 17 60 129 129 129 129 129 129 129 129 129 129 129 129 129 129 129 129 129 153 0 
0 0 0 0 0 0 0 0 0 0 0 255 255 255 255 255 255 255 255 255 255 255 255 255 255 255 255 255 255 255 255 255 255 255 255 255 255 60 52 94 255 255 255 255 255 255 255 255 255 255 255 255 255 255 255 255 255 255 255 255 255 255 255 111 60 129 129 129 129 129 129 129 86 129 129 129 129 129 129 129 129 129 129 129 129 129 129 129 129 68 0 
0 0 0 0 0 0 0 0 0 0 0 255 255 255 255 255 255 255 255 255 255 255 255 255 255 255 255 255 255 255 255 255 255 255 255 255 255 137 35 94 255 255 255 255 255 255 255 255 255 255 255 255 255 255 255 255 255 255 255 255 255 255 255 255 111 51 129 129 129 129 129 129 129 129 129 129 129 129 129 129 129 129 129 129 129 129 129 129 129 60 0 
0 0 0 0 0 0 0 0 0 0 0 255 255 255 255 255 255 255 255 255 255 255 255 255 255 255 255 255 255 255 255 255 255 255 255 255 255 255 94 43 255 255 255 255 255 255 255 255 255 255 255 255 255 255 255 255 255 255 255 255 255 255 255 255 255 111 43 129 129 129 129 129 129 129 129 129 129 129 129 103 86 129 86 129 129 129 129 129 129 68 0 
0 0 0 0 0 0 0 0 0 0 0 255 255 255 255 255 255 255 255 255 255 255 255 255 255 255 255 255 255 255 255 255 255 255 255 255 255 255 255 51 255 255 255 255 255 255 255 255 255 255 255 255 255 255 255 255 255 255 255 255 255 255 255 255 255 255 137 60 129 129 129 129 129 129 129 129 129 129 129 129 86 94 43 17 43 86 111 103 43 0 0 
0 0 0 0 0 0 0 0 0 0 0 255 255 255 255 255 255 255 255 255 255 255 255 255 255 255 255 255 255 255 255 255 255 255 255 255 255 255 255 255 60 255 255 255 255 255 255 255 255 255 255 255 255 255 255 255 255 255 255 255 255 255 255 255 255 255 255 111 60 129 129 129 129 129 129 129 129 129 129 129 129 129 129 111 78 0 119 0 0 0 0 
0 0 0 0 0 0 0 0 0 0 0 255 255 255 255 255 255 255 255 255 255 255 255 255 255 255 255 255 255 255 255 255 255 255 255 255 255 255 255 255 137 68 255 255 255 255 255 255 255 255 255 255 255 255 255 255 255 255 255 255 255 255 255 255 255 255 255 255 111 68 129 129 129 129 129 129 129 129 129 129 129 129 129 129 129 86 0 0 0 0 0 
0 0 0 0 0 0 0 0 0 0 0 255 255 255 255 255 255 255 255 255 255 255 255 255 255 255 255 255 255 255 255 255 255 255 255 255 255 255 255 255 137 0 94 255 255 255 255 255 255 255 255 255 255 255 255 255 255 255 255 255 255 255 255 255 255 255 255 255 255 94 78 129 129 129 129 129 129 129 129 129 129 129 129 129 129 86 0 0 0 0 0 
0 0 0 0 0 0 0 0 0 0 0 255 255 255 255 255 255 255 255 255 255 255 255 255 255 255 255 255 255 255 255 255 255 255 255 255 255 255 255 255 68 43 111 111 255 255 255 255 255 255 255 255 255 255 255 255 255 255 255 255 255 255 255 255 255 255 255 255 255 255 68 60 129 129 129 129 129 129 129 129 129 129 129 129 129 129 0 0 0 0 0 
0 0 0 0 0 0 0 0 0 0 0 255 255 255 255 255 255 255 255 255 255 255 255 255 255 255 255 255 255 255 255 255 255 255 255 255 255 255 255 255 0 111 146 129 137 255 255 255 255 255 255 255 255 255 255 255 255 255 255 255 255 255 255 255 255 255 255 255 255 255 255 43 111 129 129 129 129 129 129 129 129 86 129 129 129 86 0 0 0 0 0 
0 0 0 0 0 0 0 0 0 0 0 137 255 255 255 255 255 255 255 255 255 255 255 255 255 255 255 255 255 255 255 255 255 255 255 255 255 255 255 137 17 146 146 146 146 255 255 255 255 255 255 255 255 255 255 255 255 255 255 255 255 255 255 255 255 255 255 255 255 255 255 137 51 129 129 129 129 129 129 86 129 43 43 94 103 86 0 0 0 0 0 
0 0 0 0 0 0 0 0 0 0 0 111 255 255 255 255 255 255 255 255 255 255 255 255 255 255 255 255 255 255 255 255 255 255 255 255 255 255 255 111 60 146 146 146 146 146 255 255 255 255 255 255 255 255 255 255 255 255 255 255 255 255 255 255 255 255 255 255 255 255 255 255 94 78 129 129 129 129 129 86 51 60 86 129 129 94 0 0 0 0 0 
0 0 0 0 0 0 0 0 0 0 0 94 255 255 255 255 255 255 255 255 255 255 255 255 255 255 255 255 255 255 255 255 255 255 255 255 255 255 255 94 111 146 146 146 146 146 146 146 255 255 255 255 255 255 255 255 255 255 255 255 255 255 255 255 255 255 255 255 255 255 255 255 255 43 129 129 129 129 129 129 78 60 68 111 103 43 0 0 0 0 0 
0 0 0 0 0 0 0 0 0 0 0 102 255 255 255 255 255 255 255 255 255 255 255 111 94 86 94 255 255 255 255 255 255 255 255 255 255 255 255 51 146 146 146 146 146 146 146 146 129 255 255 255 255 255 255 255 255 255 255 255 255 255 255 255 255 255 255 255 255 255 255 255 255 68 111 129 129 103 111 129 129 129 129 129 129 43 0 0 0 0 0 
0 0 0 0 0 0 0 0 0 0 0 0 137 255 255 255 255 255 255 255 255 137 111 137 255 255 255 137 68 111 255 255 255 255 255 255 255 255 255 60 129 146 146 146 146 146 146 146 146 146 137 255 255 255 255 255 255 255 255 255 255 255 255 255 255 255 255 255 255 255 255 255 255 111 86 129 129 129 129 60 94 129 86 129 129 68 0 0 0 0 0 
0 0 0 0 0 0 0 0 0 0 0 0 111 255 255 255 255 255 255 255 111 255 255 255 255 255 255 255 255 68 94 255 255 255 255 255 255 255 255 43 146 146 146 146 146 146 146 146 146 146 146 94 255 255 255 255 255 255 255 255 255 255 255 255 255 255 255 255 255 255 255 255 255 137 86 129 129 129 129 129 103 60 78 94 111 68 0 0 0 0 0 
0 0 0 0 0 0 0 0 0 0 0 0 94 255 255 255 255 255 137 94 255 255 255 255 255 255 255 255 255 255 68 137 255 255 255 255 255 255 255 60 146 146 146 146 146 146 146 146 146 146 146 146 43 111 255 255 255 255 255 255 255 255 255 255 255 255 255 255 255 255 255 255 255 255 60 129 129 129 129 60 111 129 129 129 103 0 0 0 0 0 0 
0 0 0 0 0 0 0 0 0 0 0 0 0 255 255 255 255 137 111 255 255 255 255 255 255 255 255 255 255 255 137 68 255 255 255 255 255 255 255 60 146 146 146 146 146 146 146 146 146 146 146 146 146 94 94 255 255 255 255 255 255 255 255 255 255 255 255 255 255 255 255 255 255 255 78 129 129 129 86 78 51 43 94 129 86 0 0 0 0 0 0 
0 0 0 0 0 0 0 0 0 0 0 0 0 111 255 255 137 94 255 255 255 255 255 255 255 255 255 255 255 255 255 68 255 255 255 255 255 255 255 43 146 146 146 146 146 146 146 146 146 146 146 146 146 146 146 94 60 111 255 255 255 255 255 255 255 255 255 255 255 255 255 255 255 255 17 111 129 129 129 129 129 129 129 129 68 0 0 0 0 0 0 
0 0 0 0 0 0 0 0 0 0 0 0 0 0 255 255 68 255 255 255 255 255 255 255 255 255 255 255 255 255 255 111 137 255 255 255 255 255 255 60 129 146 146 146 146 146 146 146 146 146 146 146 146 146 146 146 129 60 43 94 255 255 255 255 255 255 255 255 255 255 255 255 255 137 51 60 60 129 129 129 129 129 129 129 102 0 0 0 0 0 0 
0 0 0 0 0 0 0 0 0 0 0 0 0 0 111 86 255 255 255 255 255 255 255 255 255 255 255 255 255 255 255 255 111 255 255 255 255 255 255 60 146 146 146 146 146 146 146 146 146 146 146 146 146 146 146 146 146 146 146 94 43 94 255 255 255 255 255 255 255 255 255 255 255 94 146 129 60 43 60 60 60 60 60 60 0 0 0 0 0 0 0 
0 0 0 0 0 0 0 0 0 0 0 0 0 0 102 137 255 255 255 255 255 255 255 255 255 255 255 255 255 255 255 255 94 255 255 255 255 255 255 68 111 146 146 146 146 146 146 146 146 146 146 146 146 146 146 146 146 146 146 146 146 111 43 68 137 255 255 255 255 255 255 255 137 60 146 146 146 146 146 94 43 94 94 68 0 0 0 0 0 0 0 
0 0 0 0 0 0 0 0 0 0 0 0 0 0 111 255 255 255 255 255 255 255 255 255 255 255 255 255 255 255 255 255 111 255 255 255 255 255 255 94 94 146 146 146 146 146 146 146 146 146 146 146 146 146 146 146 146 146 146 146 146 146 146 146 94 94 111 137 255 255 255 111 60 129 146 146 111 111 129 146 146 146 111 0 0 0 0 0 0 0 0 
0 0 0 0 0 0 0 0 0 0 0 0 0 102 255 255 255 255 255 255 255 255 255 255 255 255 255 255 255 255 255 255 94 255 255 255 255 255 255 111 60 146 146 146 146 146 146 146 146 146 146 146 146 146 146 146 146 146 146 146 146 146 146 146 146 146 129 111 60 43 60 94 146 146 146 146 146 94 43 17 51 60 94 0 0 0 0 0 0 0 0 
0 0 0 0 0 0 0 0 0 0 0 0 0 137 255 255 255 255 255 255 255 255 255 255 255 255 255 255 255 255 255 255 111 255 255 255 255 255 255 255 43 146 146 146 146 146 146 146 146 146 146 146 146 146 146 146 146 146 146 146 146 146 146 129 94 60 111 146 146 146 146 146 146 146 146 146 146 146 146 129 146 94 0 0 0 0 0 0 0 0 0 
0 0 0 0 0 0 0 0 0 0 0 0 94 255 255 255 255 255 255 255 255 255 255 255 255 255 255 255 255 255 255 255 94 255 255 255 255 255 255 255 51 146 146 146 146 146 146 146 146 146 146 146 146 146 146 146 146 146 146 146 146 146 146 146 146 129 60 43 94 146 146 146 146 111 60 129 146 146 146 146 146 68 0 0 0 0 0 0 0 0 0 
0 0 0 0 0 0 0 0 0 0 0 0 137 255 255 255 255 255 255 255 255 255 255 255 255 255 255 255 255 255 255 255 111 255 255 255 255 255 255 255 68 111 146 146 146 146 146 146 146 146 146 146 146 146 146 146 146 146 146 146 146 146 146 146 146 146 146 146 60 43 60 111 129 146 43 60 94 94 60 43 0 153 0 0 0 0 0 0 0 0 0 
0 0 0 0 0 0 0 0 0 0 0 94 255 255 255 255 255 255 255 255 255 255 255 255 255 255 255 255 255 255 255 255 111 255 255 255 255 255 255 255 137 94 146 146 146 146 146 146 146 146 146 146 146 146 146 146 146 146 146 146 146 146 146 146 146 111 129 146 146 146 146 94 94 111 111 129 146 146 146 94 153 0 0 0 0 0 0 0 0 0 0 
0 0 0 0 0 0 0 0 0 0 0 94 255 255 255 255 255 255 255 255 255 255 255 255 255 255 255 255 255 255 255 137 137 255 255 255 255 255 255 255 255 60 146 146 146 146 146 146 146 146 146 146 146 146 146 146 146 146 146 146 146 146 146 146 146 146 60 43 111 146 146 146 146 146 146 129 121 146 111 0 0 0 0 0 0 0 0 0 0 0 0 
0 0 0 0 0 0 0 0 0 0 94 255 255 255 255 255 255 255 255 255 255 255 255 255 255 255 255 255 255 255 255 111 255 255 255 255 255 255 255 255 255 111 94 146 146 146 146 146 146 146 146 146 146 146 146 146 146 146 146 146 146 146 146 146 146 146 146 111 60 94 146 129 60 43 146 146 146 137 0 0 0 0 0 0 0 0 0 0 0 0 0 
0 0 0 0 0 0 0 0 0 0 94 255 255 255 255 255 255 255 255 255 255 255 255 255 255 255 255 255 255 255 255 94 255 255 255 255 255 255 255 255 255 255 111 111 146 146 146 146 146 146 146 146 146 146 146 146 146 146 146 146 146 146 146 146 146 146 146 146 146 146 129 146 111 60 94 146 137 0 0 0 0 0 0 0 0 0 0 0 0 0 0 
0 0 0 0 0 0 0 0 0 94 137 255 255 255 255 255 255 255 255 255 255 255 255 255 255 255 255 255 255 255 255 86 255 255 255 255 255 255 255 255 255 255 255 137 111 146 146 146 146 146 146 146 146 146 146 146 146 146 146 146 146 146 146 146 146 146 146 146 146 146 146 146 146 146 146 137 0 0 0 0 0 0 0 0 0 0 0 0 0 0 0 
0 0 0 0 0 0 0 0 0 68 255 255 255 255 255 255 255 255 255 255 255 255 255 255 255 255 255 255 255 255 137 94 255 255 255 255 255 255 255 255 255 255 255 255 137 60 146 146 146 146 146 146 146 146 146 146 146 146 146 146 146 146 146 146 146 146 43 60 43 111 111 129 146 146 102 0 0 0 0 0 0 0 0 0 0 0 0 0 0 0 0 
0 0 0 0 0 0 0 0 153 111 255 255 255 255 255 255 255 255 255 255 255 255 255 255 255 255 255 255 255 255 94 68 94 137 255 255 255 255 255 255 255 255 255 255 255 68 43 129 146 146 146 146 146 146 146 146 146 146 146 146 146 146 146 146 146 146 146 146 129 146 146 146 94 102 0 0 0 0 0 0 0 0 0 0 0 0 0 0 0 0 0 
0 0 0 0 0 0 0 0 51 255 255 255 255 255 255 255 255 255 255 255 255 255 255 255 255 255 255 255 255 255 153 0 0 153 102 127 94 111 137 137 255 137 94 68 94 137 137 68 111 146 146 146 146 146 146 146 146 146 146 146 146 146 60 43 146 146 146 146 146 146 146 60 153 0 0 0 0 0 0 0 0 0 0 0 0 0 0 0 0 0 0 
0 0 0 0 0 0 0 0 94 255 255 255 255 255 255 255 255 255 255 255 255 255 255 255 255 255 255 255 255 111 0 0 0 0 0 0 0 0 0 0 0 0 0 51 255 255 255 255 137 111 129 146 146 146 146 146 146 146 146 146 129 146 146 94 146 146 146 146 146 60 0 0 94 102 94 102 0 0 0 0 0 0 0 0 0 0 0 0 0 0 0 
0 0 0 0 0 0 0 94 255 255 255 255 255 255 255 255 255 255 255 255 255 255 255 255 255 255 255 255 255 102 0 0 0 0 0 0 0 0 0 0 0 0 0 0 0 94 145 255 255 255 255 86 146 146 146 146 146 146 146 146 60 146 146 146 146 146 129 94 43 94 51 68 255 255 255 111 102 0 0 0 0 0 0 0 0 0 0 0 0 0 0 
0 0 0 0 0 0 0 68 255 255 255 255 255 255 255 255 255 255 255 255 255 255 255 255 255 255 255 255 94 0 0 0 0 0 0 0 0 0 0 0 0 0 0 0 0 0 102 68 255 255 255 255 137 111 146 146 146 146 146 146 146 146 146 146 146 43 60 94 255 137 111 255 255 255 255 255 68 0 0 0 0 0 0 0 0 0 0 0 0 0 0 
0 0 0 0 0 0 153 111 255 255 255 255 255 255 255 255 255 255 255 255 255 255 255 255 255 255 255 255 145 0 0 0 0 0 0 0 0 0 0 0 0 0 0 0 0 0 0 153 43 137 255 255 255 255 137 94 111 129 146 146 146 146 94 60 51 111 255 255 255 111 255 255 255 255 255 255 94 153 0 0 0 0 0 0 0 0 0 0 0 0 0 
0 0 0 0 0 0 94 255 255 255 255 255 255 255 255 255 255 255 255 255 255 255 255 255 255 255 255 94 0 0 0 0 0 0 0 0 0 0 0 0 0 0 0 0 0 0 0 0 0 51 94 255 255 255 255 255 94 60 60 43 60 68 17 51 255 255 255 255 137 255 255 255 255 255 255 255 255 94 0 0 0 0 0 0 0 0 0 0 0 0 0 
0 0 0 0 0 0 94 255 255 255 255 255 255 255 255 255 255 255 255 255 255 255 255 255 255 255 111 0 0 0 0 0 0 0 0 0 0 0 0 0 0 0 0 0 0 0 0 0 0 0 94 51 255 255 255 255 255 255 255 137 255 255 94 255 255 255 255 255 255 255 255 255 255 255 255 255 255 68 0 0 0 0 0 0 0 0 0 0 0 0 0 
0 0 0 0 0 0 137 255 255 255 255 255 255 255 255 255 255 255 255 255 255 255 255 255 255 137 0 0 0 0 0 0 0 0 0 0 0 0 0 0 0 0 0 0 0 0 0 0 0 0 0 119 51 255 255 255 255 255 255 255 255 137 255 255 255 255 255 255 137 255 255 255 255 255 255 255 255 94 0 0 0 0 0 0 0 0 0 0 0 0 0 
0 0 0 0 0 102 255 255 255 255 255 255 255 255 255 255 255 255 255 255 255 255 255 255 255 127 0 0 0 0 0 0 0 0 0 0 0 0 0 0 0 0 0 0 0 0 0 0 0 0 0 0 127 68 255 255 255 255 255 255 255 255 255 255 255 255 255 137 255 255 255 255 255 255 255 255 255 94 0 0 0 0 0 0 0 0 0 0 0 0 0 
0 0 0 0 0 94 255 255 255 255 255 255 255 255 255 255 255 255 255 255 255 255 255 255 94 0 0 0 0 0 0 0 0 0 0 0 0 0 0 0 0 0 0 0 0 0 0 0 0 0 0 0 0 127 111 255 255 255 255 255 255 255 255 255 255 255 255 111 255 255 255 255 255 255 255 255 255 102 0 0 0 0 0 0 0 0 0 0 0 0 0 
0 0 0 0 0 255 255 255 255 255 255 255 255 255 255 255 255 255 255 255 255 255 255 94 0 0 0 0 0 0 0 0 0 0 0 0 0 0 0 0 0 0 0 0 0 0 0 0 0 0 0 0 0 0 94 137 255 255 255 255 255 255 255 255 255 255 255 111 255 255 255 255 255 255 255 255 255 153 0 0 0 0 0 0 0 0 0 0 0 0 0 
0 0 0 0 0 255 255 255 255 255 255 255 255 255 255 255 255 255 255 255 255 255 94 255 0 0 0 0 0 0 0 0 0 0 0 0 0 0 0 0 0 0 0 0 0 0 0 0 0 0 0 0 0 0 0 68 255 255 255 255 255 255 255 255 255 255 137 111 255 255 255 255 255 255 255 255 137 0 0 0 0 0 0 0 0 0 0 0 0 0 0 
0 0 0 0 255 255 255 255 255 255 255 255 255 255 255 255 255 255 255 255 255 94 0 0 0 0 0 0 0 0 0 0 0 0 0 0 0 0 0 0 0 0 0 0 0 0 0 0 0 0 0 0 0 0 0 0 94 255 255 255 255 255 255 255 255 255 94 255 255 255 255 255 255 255 255 255 94 0 0 0 0 0 0 0 0 0 0 0 0 0 0 
0 0 0 0 255 255 255 255 255 255 255 255 255 255 255 255 255 255 255 255 94 0 0 0 0 0 0 0 0 0 0 0 0 0 0 0 0 0 0 0 0 0 0 0 0 0 0 0 0 0 0 0 0 0 0 0 0 94 255 255 255 255 255 255 255 255 86 255 255 255 255 255 255 255 255 137 153 0 0 0 0 0 0 0 0 0 0 0 0 0 0 
0 0 0 255 255 255 255 255 255 255 255 255 255 255 255 255 255 255 255 94 0 0 0 0 0 0 0 0 0 0 0 0 0 0 0 0 0 0 0 0 0 0 0 0 0 0 0 0 0 0 0 0 0 0 0 0 0 0 111 255 255 255 255 255 255 137 111 255 255 255 255 255 255 255 255 68 0 0 0 0 0 0 0 0 0 0 0 0 0 0 0 
0 0 0 255 255 255 255 255 255 255 255 255 255 255 255 255 255 255 94 0 0 0 0 0 0 0 0 0 0 0 0 0 0 0 0 0 0 0 0 0 0 0 0 0 0 0 0 0 0 0 0 0 0 0 0 0 0 0 0 145 255 255 255 255 255 111 255 255 255 255 255 255 255 255 94 0 0 0 0 0 0 0 0 0 0 0 0 0 0 0 0 
0 0 0 255 255 255 255 255 255 255 255 255 255 255 255 255 255 51 68 153 0 0 0 0 0 0 0 0 0 0 0 0 0 0 0 0 0 0 0 0 0 0 0 0 0 0 0 0 0 0 0 0 0 0 0 0 0 0 0 0 255 255 255 255 137 111 255 255 255 255 255 255 255 111 127 0 0 0 0 0 0 0 0 0 0 0 0 0 0 0 0 
0 0 255 255 255 255 255 255 255 255 255 255 255 255 255 255 94 86 111 94 51 17 43 94 0 0 0 0 0 0 0 0 0 0 0 0 0 0 0 0 0 0 0 0 0 0 0 0 0 0 0 0 0 0 0 0 0 0 0 0 0 137 255 255 51 255 255 255 255 255 255 255 137 94 0 0 0 0 0 0 0 0 0 0 0 0 0 0 0 0 0 
0 0 255 255 255 255 255 255 255 255 255 255 255 255 255 94 255 255 255 255 255 255 255 94 51 255 0 0 0 0 0 0 0 0 0 0 0 0 0 0 0 0 0 0 0 0 0 0 0 0 0 0 0 0 0 0 0 0 0 0 0 0 137 255 68 255 255 255 255 255 255 137 119 0 0 0 0 0 0 0 0 0 0 0 0 0 0 0 0 0 0 
0 0 255 255 255 255 255 255 255 255 255 255 255 255 111 255 255 255 255 255 255 255 255 255 255 94 0 0 0 0 0 0 0 0 0 0 0 0 0 0 0 0 0 0 0 0 0 0 0 0 0 0 0 0 0 0 0 0 0 0 0 0 0 94 51 111 255 255 255 255 94 153 0 0 0 0 0 0 0 0 0 0 0 0 0 0 0 0 0 0 0 
0 145 255 255 255 255 255 255 255 255 255 255 255 137 255 255 255 255 255 255 255 255 255 255 255 111 0 0 0 0 0 0 0 0 0 0 0 0 0 0 0 0 0 0 0 0 0 0 0 0 0 0 0 0 0 0 0 0 0 0 0 0 0 0 43 0 68 94 94 102 0 0 0 0 0 0 0 0 0 0 0 0 0 0 0 0 0 0 0 0 0 
255 137 255 255 255 255 255 255 255 255 255 111 255 255 255 255 255 255 255 255 255 255 255 255 255 137 0 0 0 0 0 0 0 0 0 0 0 0 0 0 0 0 0 0 0 0 0 0 0 0 0 0 0 0 0 0 0 0 0 0 0 0 0 0 0 0 255 0 0 0 0 0 0 0 0 0 0 0 0 0 0 0 0 0 0 0 0 0 0 0 0 
0 255 255 255 255 255 255 255 255 255 255 255 255 255 255 255 255 255 255 255 255 255 255 255 255 111 0 0 0 0 0 0 0 0 0 0 0 0 0 0 0 0 0 0 0 0 0 0 0 0 0 0 0 0 0 0 0 0 0 0 0 0 0 0 0 0 0 0 0 0 0 0 0 0 0 0 0 0 0 0 0 0 0 0 0 0 0 0 0 0 0 
111 255 255 255 255 255 255 255 255 255 255 255 255 255 255 255 255 255 255 255 255 255 255 255 255 94 0 0 0 0 0 0 0 0 0 0 0 0 0 0 0 0 0 0 0 0 0 0 0 0 0 0 0 0 0 0 0 0 0 0 0 0 0 0 0 0 0 0 0 0 0 0 0 0 0 0 0 0 0 0 0 0 0 0 0 0 0 0 0 0 0 
94 255 255 255 255 255 255 255 255 255 255 255 255 255 255 255 255 255 255 255 255 255 255 137 68 0 0 0 0 0 0 0 0 0 0 0 0 0 0 0 0 0 0 0 0 0 0 0 0 0 0 0 0 0 0 0 0 0 0 0 0 0 0 0 0 0 0 0 0 0 0 0 0 0 0 0 0 0 0 0 0 0 0 0 0 0 0 0 0 0 0 
0 94 255 255 255 255 255 255 255 255 255 255 255 255 255 255 255 255 255 255 255 255 94 102 0 0 0 0 0 0 0 0 0 0 0 0 0 0 0 0 0 0 0 0 0 0 0 0 0 0 0 0 0 0 0 0 0 0 0 0 0 0 0 0 0 0 0 0 0 0 0 0 0 0 0 0 0 0 0 0 0 0 0 0 0 0 0 0 0 0 0 
0 0 145 255 255 255 255 255 255 255 255 255 255 255 255 255 255 255 255 137 94 145 0 0 0 0 0 0 0 0 0 0 0 0 0 0 0 0 0 0 0 0 0 0 0 0 0 0 0 0 0 0 0 0 0 0 0 0 0 0 0 0 0 0 0 0 0 0 0 0 0 0 0 0 0 0 0 0 0 0 0 0 0 0 0 0 0 0 0 0 0 
0 0 0 0 153 94 94 94 255 255 255 255 255 255 255 255 137 94 94 153 0 0 0 0 0 0 0 0 0 0 0 0 0 0 0 0 0 0 0 0 0 0 0 0 0 0 0 0 0 0 0 0 0 0 0 0 0 0 0 0 0 0 0 0 0 0 0 0 0 0 0 0 0 0 0 0 0 0 0 0 0 0 0 0 0 0 0 0 0 0 0 
0 0 0 0 0 0 0 153 102 94 51 68 51 68 51 102 153 0 0 0 0 0 0 0 0 0 0 0 0 0 0 0 0 0 0 0 0 0 0 0 0 0 0 0 0 0 0 0 0 0 0 0 0 0 0 0 0 0 0 0 0 0 0 0 0 0 0 0 0 0 0 0 0 0 0 0 0 0 0 0 0 0 0 0 0 0 0 0 0 0 0 
