P2
91 149
255 
0 0 0 0 0 0 0 0 0 0 0 0 0 0 0 0 0 0 0 0 0 0 0 0 0 0 0 0 0 0 0 0 0 0 0 0 0 0 0 0 0 0 0 0 0 0 0 0 0 10 12 23 25 59 57 53 22 15 7 4 2 1 0 0 0 0 0 0 0 0 0 0 0 0 0 0 0 0 0 0 0 0 0 0 0 0 0 0 0 0 0 
0 0 0 0 0 0 0 0 0 0 0 0 0 0 0 0 0 0 0 0 0 0 0 0 0 0 0 0 0 0 0 0 0 0 0 0 0 0 0 0 0 0 0 0 0 0 0 20 27 52 70 108 131 119 89 50 27 15 8 4 2 1 0 0 0 0 0 0 0 0 0 0 0 0 0 0 0 0 0 0 0 0 0 0 0 0 0 0 0 0 0 
0 0 0 0 0 0 0 0 0 0 0 0 0 0 0 0 0 0 0 0 0 0 0 0 0 0 0 0 0 0 0 0 0 0 0 0 0 0 0 0 0 0 0 0 0 0 8 29 75 121 162 179 191 193 169 123 72 39 22 12 6 3 1 0 0 0 0 0 0 0 0 0 0 0 0 0 0 0 0 0 0 0 0 0 0 0 0 0 0 0 0 
0 0 0 0 0 0 0 0 0 0 0 0 0 0 0 0 0 0 0 0 0 0 0 0 0 0 0 0 0 0 0 0 0 0 0 0 0 0 0 0 0 0 0 0 51 69 112 114 156 177 189 196 200 202 181 136 82 43 25 13 7 4 2 1 0 0 0 0 0 0 0 0 0 0 0 0 0 0 0 0 0 0 0 0 0 0 0 0 0 0 0 
0 0 0 0 0 0 0 0 0 0 0 0 0 0 0 0 0 0 0 0 0 0 0 0 0 0 0 0 0 0 0 0 0 0 0 0 0 0 0 0 0 0 0 0 8 32 79 126 164 181 192 197 200 202 176 160 111 84 39 24 12 7 3 22 35 45 38 38 52 47 38 17 11 5 3 1 0 0 0 0 0 0 0 0 0 0 0 0 0 0 0 
0 0 0 0 0 0 0 0 0 0 0 0 0 0 0 0 0 0 0 0 0 0 0 0 0 0 0 0 0 0 0 0 0 0 0 0 0 0 0 0 0 0 0 20 46 96 132 168 183 193 198 201 202 203 171 124 67 38 21 11 6 3 10 24 56 98 140 170 185 194 171 127 73 40 22 12 6 3 1 0 0 0 0 0 0 0 0 0 0 0 0 
0 0 0 0 0 0 0 0 0 0 0 0 0 0 0 0 0 0 0 0 0 0 0 0 0 0 0 0 0 0 0 0 0 0 0 0 0 0 0 0 0 0 0 13 57 109 156 176 189 196 200 202 203 190 147 113 89 88 83 93 84 79 73 112 146 174 187 195 199 201 192 160 111 64 35 19 10 5 3 1 0 0 0 0 0 0 0 0 0 0 0 
0 0 0 0 0 0 0 0 0 0 0 0 0 0 0 0 0 0 0 0 0 0 0 0 0 0 0 0 0 0 0 0 0 0 0 0 0 0 0 0 0 0 18 54 106 146 173 186 194 199 201 203 203 182 150 139 144 157 138 113 77 60 82 124 164 180 191 197 200 202 203 181 136 82 43 25 13 7 4 2 1 0 0 0 0 0 0 0 0 0 0 
0 0 0 0 0 0 0 0 0 0 0 0 0 0 0 0 0 0 0 0 0 0 0 0 0 0 0 0 0 0 0 0 0 0 0 0 0 0 0 0 0 0 13 57 109 156 176 189 196 200 202 203 204 163 141 129 163 181 191 197 187 158 110 89 103 142 172 185 194 198 201 189 146 94 48 28 15 8 4 2 1 0 0 0 0 0 0 0 0 0 0 
0 0 0 0 0 0 0 0 0 0 0 0 0 0 0 0 0 0 0 0 0 0 0 0 0 0 0 0 0 0 0 0 0 0 0 0 0 0 0 0 0 0 22 67 122 160 179 190 196 200 202 203 181 150 139 153 181 189 197 200 202 203 190 155 115 113 137 173 185 194 198 179 135 81 43 24 13 7 4 2 1 0 0 0 0 0 0 0 0 0 0 
0 0 0 0 0 0 0 0 0 0 0 0 0 0 0 0 0 0 0 0 0 0 0 0 0 0 0 0 0 0 0 0 0 0 0 0 0 0 0 0 0 18 49 100 139 170 184 193 198 201 202 190 146 127 128 165 181 192 197 200 202 203 204 204 177 130 107 120 159 178 190 165 122 67 37 20 11 6 3 1 0 0 0 0 0 0 0 0 0 0 0 
0 0 0 0 0 0 0 0 0 0 0 0 0 0 0 0 0 0 0 0 0 0 0 0 0 0 0 0 0 0 0 0 0 0 0 0 0 0 0 0 10 15 47 85 137 167 183 193 198 201 194 155 133 129 161 181 191 197 200 202 203 204 204 204 204 182 137 115 123 162 161 153 110 78 37 23 12 7 3 2 1 0 0 0 0 0 0 0 0 0 0 
0 0 0 0 0 0 0 0 0 0 0 0 0 0 0 0 0 0 0 0 0 0 0 0 0 0 0 0 0 0 0 0 0 0 0 0 0 0 0 8 37 75 108 135 158 181 190 197 200 202 172 156 147 173 187 195 199 201 203 203 204 204 204 204 204 204 182 145 133 142 142 103 57 32 17 9 5 2 1 0 0 0 0 0 0 0 0 0 0 0 0 
0 0 0 0 0 0 0 0 0 0 0 0 0 0 0 0 0 0 0 0 0 0 0 0 0 0 0 0 0 0 0 0 0 0 0 0 0 0 10 39 90 123 131 138 154 181 190 197 200 183 167 160 174 189 195 199 201 203 203 204 204 204 204 204 204 204 204 167 132 99 112 95 72 33 21 10 6 3 1 0 0 0 0 0 0 0 0 0 0 0 0 
0 0 0 0 0 0 0 0 0 0 0 0 0 0 0 0 0 0 0 0 0 0 0 0 0 0 0 0 0 0 0 0 0 0 0 0 0 18 44 94 131 168 155 141 136 159 182 191 197 197 198 198 202 203 204 204 204 204 204 204 204 204 204 204 204 204 204 191 147 125 85 72 31 20 10 6 3 1 0 0 0 0 0 0 0 0 0 0 0 0 0 
0 0 0 0 0 0 0 0 0 0 0 0 0 0 0 0 0 0 0 0 0 0 0 0 0 0 0 0 0 0 0 0 0 0 0 0 0 13 57 109 156 176 179 161 158 164 187 193 199 201 203 203 204 204 204 204 204 204 204 204 204 204 204 204 204 204 204 204 182 150 98 63 32 19 10 5 3 1 0 0 0 0 0 0 0 0 0 0 0 0 0 
0 0 0 0 0 0 0 0 0 0 0 0 0 0 0 0 0 0 0 0 0 0 0 0 0 0 0 0 0 0 0 0 0 0 0 0 8 42 92 141 169 185 193 198 201 202 203 204 204 204 204 204 204 204 204 204 204 204 204 204 204 204 204 204 204 204 204 204 204 173 157 106 83 37 24 12 7 3 2 1 0 0 0 0 0 0 0 0 0 0 0 
0 0 0 0 0 0 0 0 0 0 0 0 0 0 0 0 0 0 0 0 0 0 0 0 0 0 0 0 0 0 0 0 0 0 0 30 50 101 125 168 181 192 197 200 202 203 204 204 204 204 204 204 204 204 204 204 204 204 204 204 204 204 204 204 204 204 204 204 204 196 162 112 63 35 19 10 5 3 1 0 0 0 0 0 0 0 0 0 0 0 0 
0 0 0 0 0 0 0 0 0 0 0 0 0 0 0 0 0 0 0 0 0 0 0 0 0 0 0 0 0 0 0 0 0 0 0 10 43 92 139 169 184 193 198 201 202 203 204 204 204 204 204 204 204 204 204 204 204 204 204 204 204 204 204 204 204 204 204 204 204 204 191 171 123 82 41 24 13 7 4 2 1 0 0 0 0 0 0 0 0 0 0 
0 0 0 0 0 0 0 0 0 0 0 0 0 0 0 0 0 0 0 0 0 0 0 0 0 0 0 0 0 0 0 0 0 0 0 13 57 109 156 176 189 196 200 202 203 204 204 204 204 204 204 204 204 204 204 204 204 204 204 204 204 204 204 204 204 204 204 204 204 204 204 177 130 75 41 23 12 7 3 2 1 0 0 0 0 0 0 0 0 0 0 
0 0 0 0 0 0 0 0 0 0 0 0 0 0 0 0 0 0 0 0 0 0 0 0 0 0 0 0 0 0 0 0 0 0 20 51 103 140 171 185 194 198 201 202 203 204 204 204 204 204 204 204 204 204 204 204 204 204 204 204 204 204 204 204 204 204 204 204 204 204 204 196 172 124 78 40 23 12 7 3 2 1 0 0 0 0 0 0 0 0 0 
0 0 0 0 0 0 0 0 0 0 0 0 0 0 0 0 0 0 0 0 0 0 0 0 0 0 0 0 0 0 0 0 0 0 18 63 117 159 178 190 196 200 202 203 204 204 204 204 204 204 204 204 204 204 204 204 204 204 204 204 204 204 204 204 204 204 204 204 204 204 204 204 196 178 132 87 43 26 13 7 4 2 1 0 0 0 0 0 0 0 0 
0 0 0 0 0 0 0 0 0 0 0 0 0 0 0 0 0 0 0 0 0 0 0 0 0 0 0 0 0 0 0 0 0 0 18 63 117 159 178 190 196 200 202 203 204 204 204 204 204 204 204 204 204 204 204 204 204 204 204 204 204 204 204 204 204 204 204 204 204 204 204 204 204 191 171 123 82 41 24 13 7 4 2 1 0 0 0 0 0 0 0 
0 0 0 0 0 0 0 0 0 0 0 0 0 0 0 0 0 0 0 0 0 0 0 0 0 0 0 0 0 0 0 0 0 0 27 73 129 163 181 191 197 200 202 203 204 204 204 204 204 204 204 204 204 204 204 204 204 204 204 204 204 204 204 204 204 204 204 204 204 204 204 204 204 204 185 166 117 82 39 24 12 7 3 2 1 0 0 0 0 0 0 
0 0 0 0 0 0 0 0 0 0 0 0 0 0 0 0 0 0 0 0 0 0 0 0 0 0 0 0 0 0 0 0 0 30 69 123 152 178 189 196 200 202 203 204 204 204 204 204 204 204 204 204 204 204 204 204 204 204 204 204 204 204 204 204 204 204 204 204 204 204 204 204 204 204 204 185 161 111 74 37 22 11 6 3 1 0 0 0 0 0 0 
0 0 0 0 0 0 0 0 0 0 0 0 0 0 0 0 0 0 0 0 0 0 0 0 0 0 0 0 0 0 0 0 0 29 75 131 164 182 192 197 200 202 203 204 204 204 204 204 204 204 204 204 204 204 204 204 204 204 204 204 204 204 204 204 204 204 204 204 204 204 204 204 204 204 204 204 191 167 119 77 39 23 12 7 3 2 1 0 0 0 0 
0 0 0 0 0 0 0 0 0 0 0 0 0 0 0 0 0 0 0 0 0 0 0 0 0 0 0 0 0 0 0 0 0 27 73 129 163 181 191 197 200 202 203 204 204 204 204 204 204 204 204 204 204 204 204 204 204 204 204 204 204 204 204 204 204 204 204 204 204 204 204 204 204 204 204 204 204 177 161 111 85 39 24 12 7 3 2 1 0 0 0 
0 0 0 0 0 0 0 0 0 0 0 0 0 0 0 0 0 0 0 0 0 0 0 0 0 0 0 0 0 0 0 0 0 32 79 136 166 183 192 198 201 202 203 204 204 204 204 204 204 204 204 204 204 204 204 204 204 204 204 204 204 204 204 204 175 132 87 89 118 155 177 189 196 200 202 203 204 182 145 92 56 29 17 9 5 2 1 0 0 0 0 
0 0 0 0 0 0 0 0 0 0 0 0 0 0 0 0 0 0 0 0 0 0 0 0 0 0 0 0 0 0 0 0 0 41 90 149 170 186 194 199 201 203 203 204 204 204 204 204 204 204 204 204 204 204 204 204 204 204 204 204 204 204 204 185 168 152 154 165 176 191 196 200 202 203 204 204 204 182 160 111 78 37 23 12 7 3 2 1 0 0 0 
0 0 0 0 0 0 0 0 0 0 0 0 0 0 0 0 0 0 0 0 0 0 0 0 0 0 0 0 0 0 0 0 20 65 119 159 178 190 196 200 202 203 204 204 204 204 204 204 204 204 204 204 204 204 204 204 204 204 204 204 204 204 194 183 179 186 196 199 202 203 204 204 204 204 204 204 204 172 124 67 38 21 11 6 3 1 0 0 0 0 0 
0 0 0 0 0 0 0 0 0 0 0 0 0 0 0 0 0 0 0 0 0 0 0 0 0 0 0 7 18 25 36 48 76 112 147 174 187 195 199 201 203 203 204 204 204 204 204 204 204 204 204 204 204 204 204 204 204 204 204 204 204 204 204 204 204 204 204 204 204 204 204 204 204 204 204 204 182 157 107 73 36 21 11 6 3 1 0 0 0 0 0 
0 0 0 0 0 0 0 0 0 0 0 0 0 0 0 0 0 0 0 0 0 0 0 0 0 0 14 30 50 58 60 61 89 125 165 181 192 197 200 202 203 204 204 204 204 204 204 204 204 204 204 204 204 204 204 204 204 204 204 204 204 204 204 204 204 204 204 204 204 204 204 204 204 204 204 191 171 123 82 41 24 13 7 4 2 1 0 0 0 0 0 
0 0 0 0 0 0 0 0 0 0 0 0 0 0 0 0 0 0 0 0 0 0 0 0 0 0 10 26 45 56 55 75 106 150 174 187 195 199 201 203 203 204 204 204 204 204 204 204 204 204 204 204 204 204 204 204 204 204 204 204 204 204 204 204 204 204 204 204 204 204 204 204 204 204 185 141 87 45 26 14 8 4 2 1 0 0 0 0 0 0 0 
0 0 0 0 0 0 0 0 0 0 0 0 0 0 0 0 0 0 0 0 0 0 0 0 0 0 7 22 40 47 60 91 134 168 183 193 198 201 202 203 204 204 204 204 204 204 204 204 204 204 204 204 204 204 204 204 204 204 204 204 204 204 204 204 201 173 134 124 142 176 186 195 199 198 181 137 87 44 26 14 8 4 2 1 0 0 0 0 0 0 0 
0 0 0 0 0 0 0 0 0 0 0 0 0 0 0 0 0 0 0 0 0 0 0 0 0 0 7 18 36 54 91 129 167 182 192 197 200 202 203 204 204 204 204 204 204 204 204 204 204 204 204 204 204 204 204 204 204 204 204 204 204 204 204 204 172 124 78 91 126 166 181 192 197 200 180 161 112 80 38 23 12 7 3 2 1 0 0 0 0 0 0 
0 0 0 0 0 0 0 0 0 0 0 0 0 0 0 0 0 0 0 0 0 0 0 0 0 0 14 27 46 79 120 162 179 191 197 200 202 203 204 204 204 204 204 204 204 204 204 204 204 204 204 204 204 204 204 204 204 204 204 204 204 204 204 182 137 82 66 92 135 168 183 193 198 201 202 184 159 109 72 36 21 11 6 3 1 0 0 0 0 0 0 
0 0 0 0 0 0 0 0 0 0 0 0 0 0 0 0 0 0 0 0 0 0 0 0 0 0 20 38 58 86 122 164 180 191 197 200 202 203 204 204 204 204 204 204 204 204 204 204 204 204 204 204 204 204 204 204 204 204 204 204 204 204 204 196 170 145 143 161 183 191 197 200 202 203 204 204 204 196 153 102 51 30 16 9 5 2 1 0 0 0 0 
0 0 0 0 0 0 0 0 0 0 0 0 0 0 0 0 0 0 0 0 0 0 0 0 0 0 14 30 43 57 90 133 167 183 193 198 201 202 203 204 204 204 204 204 204 204 204 204 204 204 204 204 204 204 204 204 204 204 204 204 204 204 204 204 204 204 204 204 204 204 204 204 204 204 204 204 204 204 204 182 137 82 43 25 13 7 4 2 1 0 0 
0 0 0 0 0 0 0 0 0 0 0 0 0 0 0 0 0 0 0 0 0 0 0 0 0 0 20 38 60 58 85 117 160 178 190 196 200 202 203 204 204 204 204 204 204 204 204 204 204 204 204 204 204 204 204 204 204 204 204 204 204 204 204 204 204 204 204 204 204 204 204 204 204 204 204 204 204 204 204 204 172 155 104 82 37 23 12 7 3 2 1 
0 0 0 0 0 0 0 0 0 0 0 0 0 0 0 0 0 0 0 0 0 0 0 0 0 0 14 30 50 58 63 92 126 166 181 192 197 200 202 203 204 204 204 204 204 204 204 204 204 204 204 204 204 204 204 204 204 204 204 204 204 204 204 204 204 204 204 204 204 204 204 204 204 204 204 204 204 204 204 204 196 162 112 63 35 19 10 5 3 1 0 
0 0 0 0 0 0 0 0 0 0 0 0 0 0 0 0 0 0 0 0 0 0 0 0 0 0 20 38 60 61 62 67 96 133 168 183 193 198 201 202 203 204 204 204 204 204 204 204 204 204 204 204 204 204 204 204 204 204 204 204 204 204 204 204 204 204 204 204 204 204 204 204 204 204 204 204 204 204 182 149 115 93 84 59 42 20 12 6 3 1 0 
0 0 0 0 0 0 0 0 0 0 0 0 0 0 0 0 0 0 0 0 0 0 0 0 0 0 14 30 50 58 63 62 68 96 133 168 183 193 198 201 202 203 204 204 204 204 204 204 204 204 204 204 204 204 204 204 204 204 204 204 204 204 204 204 204 204 204 204 204 204 204 204 204 204 204 204 204 180 135 80 43 24 13 7 4 2 1 0 0 0 0 
0 0 0 0 0 0 0 0 0 0 0 0 0 0 0 0 0 0 0 0 0 0 0 0 0 0 14 30 50 58 63 66 64 77 107 146 173 186 194 199 201 203 203 204 204 204 204 204 204 204 204 204 204 204 204 204 204 204 204 204 204 204 204 204 204 204 204 204 204 204 204 204 204 204 204 204 204 173 126 70 39 21 12 37 40 46 17 12 5 3 1 
0 0 0 0 0 0 0 0 0 0 0 0 0 0 0 0 0 0 0 0 0 0 0 0 0 0 14 30 50 58 63 66 67 58 74 103 149 173 187 195 199 201 203 203 204 204 204 204 204 204 204 204 204 204 204 204 204 204 204 204 204 204 204 204 204 204 204 204 204 204 204 204 204 204 204 204 204 173 126 70 39 21 12 6 3 1 0 0 0 0 0 
0 0 0 0 0 0 0 0 0 0 0 0 0 0 0 0 0 0 0 0 0 0 0 0 0 12 28 48 57 63 71 73 75 71 64 80 109 152 175 188 195 199 201 203 203 204 204 204 204 204 204 204 204 204 204 204 204 204 204 204 204 194 189 186 194 199 201 203 203 204 204 204 204 204 204 204 204 182 137 82 43 25 13 7 4 2 1 0 0 0 0 
0 0 0 0 0 0 0 0 0 0 0 0 0 0 0 0 0 0 0 0 0 0 0 0 22 40 62 64 73 76 76 74 73 73 67 64 86 120 160 179 190 196 200 202 203 204 204 204 204 204 204 204 204 204 204 204 204 204 204 196 162 112 66 71 104 149 173 187 195 199 201 203 203 204 204 204 204 194 151 99 50 29 34 31 31 12 8 4 2 1 0 
0 0 0 0 0 0 0 0 0 0 0 0 0 0 0 0 0 0 0 0 0 0 0 0 7 22 40 54 60 64 66 68 68 69 69 66 60 85 119 163 179 191 197 200 202 203 204 204 204 204 204 204 204 204 204 204 204 204 194 170 144 107 80 86 120 164 179 191 197 200 202 203 204 204 204 204 204 204 182 137 82 43 25 13 7 4 2 1 0 0 0 
0 0 0 0 0 0 0 0 0 0 0 0 0 0 0 0 0 0 0 0 0 0 0 12 28 48 57 63 66 67 68 69 69 69 69 69 66 61 87 121 164 180 191 197 200 202 203 204 204 204 204 204 204 204 204 204 204 204 196 194 189 155 106 71 95 134 168 183 193 198 201 202 203 204 204 204 204 204 204 182 140 107 73 56 25 16 8 4 2 1 0 
0 0 0 0 0 0 0 0 0 0 0 0 0 0 0 0 0 0 0 0 0 0 0 14 30 50 58 63 66 67 68 69 69 74 75 76 72 71 65 90 121 165 180 192 197 200 202 203 204 204 204 204 204 204 204 204 204 204 204 204 196 153 102 51 63 96 146 171 186 194 199 201 203 203 204 204 204 204 204 191 157 107 63 34 19 10 5 3 1 0 0 
0 0 0 0 0 0 0 0 0 0 0 0 0 0 0 0 0 0 0 0 0 0 0 10 26 45 56 62 72 75 78 72 72 70 72 72 72 70 66 63 85 120 160 179 190 196 200 202 203 204 204 204 204 204 204 204 204 204 204 204 191 147 95 48 38 68 113 159 177 190 196 200 202 203 204 204 204 204 191 157 107 63 34 19 10 5 3 1 0 0 0 
0 0 0 0 0 0 0 0 0 0 0 0 0 0 0 0 0 0 0 0 0 0 0 10 26 45 57 64 67 68 69 69 71 71 72 70 70 70 70 66 63 80 114 153 176 188 195 199 201 203 203 204 204 204 204 204 204 204 204 204 204 167 118 60 35 41 78 128 164 181 192 197 200 202 203 204 204 185 159 109 72 36 21 11 6 3 1 0 0 0 0 
0 0 0 0 0 0 0 0 0 0 0 0 0 0 0 0 0 0 0 0 0 0 20 38 60 61 66 67 68 69 69 69 74 75 76 72 71 70 70 70 70 59 75 103 150 173 187 195 199 201 203 203 204 204 204 204 204 204 204 204 204 177 130 75 41 23 35 74 126 163 180 191 197 200 202 189 165 147 111 82 38 24 12 7 3 2 1 0 0 0 0 
0 0 0 0 0 0 0 0 0 0 0 0 0 0 0 0 0 0 0 0 0 0 13 30 50 58 63 71 73 75 71 71 70 70 70 70 70 75 76 77 72 71 63 75 103 145 172 186 194 199 201 203 203 204 204 204 204 204 204 204 204 191 147 95 48 28 25 51 97 142 170 182 179 159 130 115 88 66 30 19 9 5 2 1 0 0 0 0 0 0 0 
0 0 0 0 0 0 0 0 0 0 0 0 0 0 0 0 0 0 0 0 0 0 7 22 40 59 66 72 69 71 71 72 70 70 70 75 76 78 74 74 71 71 70 63 66 92 132 167 182 192 197 200 202 203 204 204 204 204 204 204 204 204 172 124 67 38 43 76 102 121 124 141 146 118 83 40 24 12 7 3 2 1 0 0 0 0 0 0 0 0 0 
0 0 0 0 0 0 0 0 0 0 0 0 0 0 0 0 0 0 0 0 0 20 38 60 61 66 67 68 69 69 69 74 75 76 72 73 72 72 70 70 70 70 70 70 63 66 92 132 167 182 192 197 200 202 203 204 204 204 204 204 204 204 185 141 87 45 53 65 69 45 22 13 7 4 2 1 0 0 0 0 0 0 0 0 0 0 0 0 0 0 0 
0 0 0 0 0 0 0 0 0 0 0 0 0 0 0 0 0 0 0 0 0 7 22 40 54 62 66 69 69 69 69 69 71 71 72 70 70 70 70 70 75 76 77 72 71 67 70 97 134 169 183 193 198 201 202 203 204 204 204 204 204 204 201 163 113 68 78 90 84 53 27 16 8 4 2 1 0 0 0 0 0 0 0 0 0 0 0 0 0 0 0 
0 0 0 0 0 0 0 0 0 0 0 0 0 0 0 0 0 0 0 0 30 43 66 56 66 66 68 68 74 75 76 72 71 70 70 70 70 70 70 70 71 71 72 70 70 70 63 61 83 121 160 179 190 196 200 202 203 204 204 204 204 204 204 191 161 142 118 127 93 74 33 21 10 6 3 1 0 0 0 0 0 0 0 0 0 0 0 0 0 0 0 
0 0 0 0 0 0 0 0 0 0 0 0 0 0 0 0 0 0 0 0 12 28 48 57 63 66 67 68 69 69 69 69 69 69 69 69 69 69 71 71 72 70 70 70 70 70 70 66 58 69 100 143 171 185 194 198 201 202 203 204 204 204 204 204 204 196 170 141 117 108 104 102 101 97 89 86 86 104 89 69 31 20 10 6 3 1 0 0 0 0 0 
0 0 0 0 0 0 0 0 0 0 0 0 0 0 0 0 0 0 0 30 50 74 66 70 74 75 76 73 73 72 71 72 77 78 78 78 78 78 73 77 77 77 72 76 76 77 72 71 70 63 66 92 132 167 182 192 197 200 202 203 204 182 145 96 63 57 87 129 166 182 192 197 200 202 203 204 204 196 175 147 136 106 79 37 23 12 7 3 2 1 0 
0 0 0 0 0 0 0 0 0 0 0 0 0 0 0 0 0 0 0 10 26 45 56 62 67 69 70 69 69 69 74 75 76 72 71 72 72 72 70 70 70 70 66 62 60 62 66 67 68 69 58 56 80 122 163 180 191 197 200 188 159 120 86 72 66 71 98 131 168 182 193 198 201 202 203 204 204 204 204 204 191 166 117 75 38 22 12 6 3 1 0 
0 0 0 0 0 0 0 0 0 0 0 0 0 0 0 0 0 18 32 53 55 63 67 69 70 69 69 69 69 69 69 69 69 69 69 69 69 69 69 69 69 69 69 66 58 49 49 54 62 65 67 61 55 66 101 142 171 185 194 198 201 199 162 127 89 74 91 118 164 179 191 197 200 202 203 204 204 204 204 204 204 204 191 161 111 68 35 20 11 6 3 
0 0 0 0 0 0 0 0 0 0 0 0 0 0 0 0 0 7 22 40 54 60 64 66 68 68 74 75 76 72 71 70 70 70 70 70 70 70 70 70 70 70 70 70 70 63 54 47 51 58 63 66 67 61 65 92 132 167 182 192 197 200 164 131 86 86 104 138 171 184 194 198 201 202 203 204 204 204 204 204 204 204 204 196 172 124 78 40 23 12 7 
0 0 0 0 0 0 0 0 0 0 0 0 0 0 0 0 0 7 22 40 54 65 70 74 70 70 70 70 71 71 72 70 72 72 72 70 75 76 78 74 74 76 78 79 75 72 67 59 53 53 59 64 66 68 65 54 68 99 146 172 186 184 152 119 85 92 114 150 175 188 195 199 201 203 203 204 204 204 204 204 204 204 204 204 194 170 122 77 39 23 12 
0 0 0 0 0 0 0 0 0 0 0 0 0 0 0 0 0 30 40 62 51 64 65 67 68 69 71 71 72 70 70 70 70 75 76 77 74 73 73 71 70 70 70 70 70 70 70 70 66 62 60 62 66 67 68 69 62 60 77 114 152 157 135 105 79 80 102 140 171 185 194 198 201 202 203 204 204 204 204 204 204 204 204 204 204 191 167 119 77 39 23 
30 6 7 2 1 0 0 0 0 0 0 0 0 0 0 0 0 0 3 14 31 47 59 64 68 73 75 76 72 76 76 77 72 71 70 70 70 70 70 70 70 70 70 70 70 70 70 70 70 63 61 59 72 74 77 72 71 67 59 61 82 98 101 86 65 63 85 130 166 182 192 197 200 202 203 204 204 204 204 204 204 204 204 204 204 204 173 157 106 89 46 
10 2 2 0 0 0 0 0 0 0 0 0 0 0 0 0 0 0 0 7 22 40 54 65 70 74 70 70 70 70 70 70 70 70 70 70 70 70 75 76 77 72 71 70 70 75 77 79 74 69 63 61 59 62 62 66 67 68 69 62 47 35 37 49 45 46 72 119 161 168 178 182 195 198 201 202 203 204 204 204 204 204 204 204 196 194 168 140 89 58 31 
35 20 11 6 3 1 0 0 0 0 0 0 0 0 0 0 0 20 56 76 74 59 61 66 67 68 69 69 69 69 69 71 71 68 66 66 70 70 70 71 71 72 75 78 79 75 72 71 70 66 62 60 55 58 57 65 66 68 68 69 69 59 57 54 57 51 78 116 161 175 168 169 171 191 195 200 202 203 204 204 204 204 204 191 159 128 91 88 75 75 54 
53 27 16 8 4 2 1 0 0 0 0 0 0 0 0 0 0 22 67 108 103 83 65 71 69 70 71 68 67 65 68 68 69 62 61 59 66 67 68 69 69 69 69 69 69 69 69 69 69 69 59 57 47 55 55 64 65 67 68 69 69 69 69 69 66 61 87 121 164 180 169 157 152 171 187 194 199 201 203 203 204 204 191 159 147 151 175 179 161 131 91 
52 30 16 9 5 2 1 0 0 0 0 0 0 0 0 0 0 32 79 136 145 121 91 73 76 73 73 71 67 66 70 74 68 59 56 61 70 73 75 71 71 70 70 70 70 70 70 70 70 70 63 58 48 52 55 70 73 73 67 71 74 76 72 71 70 63 85 115 159 177 168 132 119 132 169 183 193 198 201 202 203 195 166 150 150 174 187 186 168 134 97 
18 3 4 1 1 0 0 0 0 0 0 0 0 0 0 0 22 67 122 160 179 158 131 94 87 78 75 72 67 66 65 68 61 57 55 60 65 67 68 69 69 69 69 69 69 69 74 75 76 72 71 60 50 46 54 55 60 69 91 97 106 100 94 80 73 65 81 109 152 175 166 146 108 97 90 105 110 114 126 138 148 134 119 127 148 178 176 159 115 77 42 
0 0 0 0 0 0 0 0 0 0 0 0 0 0 0 0 41 90 149 170 186 185 151 117 85 82 80 79 75 65 62 63 63 60 59 62 66 67 70 76 77 77 74 73 78 78 79 75 72 71 70 59 46 41 41 56 71 95 110 118 123 125 127 120 101 70 54 65 87 98 90 109 128 162 172 186 194 176 142 120 131 161 181 191 197 200 175 129 74 40 22 
0 0 0 0 0 0 0 0 0 0 0 0 0 0 0 29 75 131 164 182 192 197 182 146 108 85 80 75 73 68 66 65 57 55 53 63 66 69 70 69 69 69 74 75 76 72 71 70 70 71 71 68 52 41 35 58 80 105 114 121 124 126 127 128 128 114 86 60 68 64 87 88 134 153 180 189 196 200 197 197 196 201 202 203 204 195 183 138 94 46 28 
0 0 0 0 0 0 0 0 0 0 0 0 0 0 0 41 90 149 170 186 194 199 201 180 146 108 89 81 76 69 67 65 61 56 54 60 64 66 68 68 69 69 69 69 69 69 69 69 69 69 69 66 51 44 41 65 84 107 115 121 116 107 104 111 120 123 126 115 101 70 47 23 43 73 124 152 178 189 196 200 202 203 204 204 204 185 141 87 45 26 14 
0 0 0 0 0 0 0 0 0 0 0 0 0 0 32 79 136 166 183 192 198 201 202 203 176 137 97 81 77 73 72 71 60 57 54 64 70 73 75 71 71 70 70 70 70 70 70 75 76 77 72 71 60 50 39 57 77 104 113 120 124 112 85 77 84 109 116 122 121 108 98 114 103 85 59 88 130 163 181 191 197 200 202 203 181 167 119 87 41 25 13 
0 0 0 0 0 0 0 0 0 0 0 0 0 0 41 90 149 170 186 194 199 201 203 203 204 182 144 105 84 79 67 64 47 46 43 56 61 65 67 68 69 71 71 72 70 70 71 71 72 70 70 70 66 58 45 56 75 103 113 120 124 126 117 90 75 77 100 112 119 123 122 105 100 73 58 39 41 57 79 119 154 177 189 184 158 111 67 35 20 11 6 
0 0 0 0 0 0 0 0 0 0 0 0 0 32 79 136 166 183 192 198 201 202 203 204 204 204 182 147 109 89 78 68 50 44 43 55 61 65 68 75 77 77 72 71 70 70 70 70 70 70 70 70 70 63 51 41 56 79 104 114 121 124 126 120 93 70 67 87 108 116 122 125 114 100 70 47 54 61 67 51 57 74 89 95 77 53 26 15 8 4 2 
0 0 0 0 0 0 0 0 0 0 0 0 0 41 90 149 170 186 194 199 201 203 203 204 204 204 204 182 144 101 80 64 46 39 45 58 64 68 70 69 69 69 69 74 75 76 72 71 70 76 77 79 73 61 66 73 89 97 106 118 122 125 126 127 128 114 86 70 75 99 112 119 123 122 110 102 76 56 26 47 65 98 109 97 71 33 20 10 6 3 1 
0 0 0 0 0 0 0 0 0 0 0 0 32 79 136 166 183 192 198 201 202 203 204 204 204 204 204 204 191 159 116 81 53 47 48 61 63 66 67 68 69 69 69 71 68 64 50 53 53 67 56 55 46 51 52 68 80 100 106 118 122 125 126 127 128 128 128 111 90 78 88 105 116 121 124 119 112 83 57 28 17 9 5 2 1 0 0 0 0 0 0 
0 0 0 0 0 0 0 0 0 0 0 0 41 90 149 170 186 194 199 201 203 203 204 204 204 204 204 204 204 204 191 157 107 77 64 70 73 75 76 72 71 70 66 58 61 77 114 147 175 187 195 185 158 113 74 70 83 99 100 103 112 120 123 126 127 128 128 128 121 97 77 76 94 111 118 123 125 113 116 88 71 31 20 10 6 3 1 0 0 0 0 
0 0 0 0 0 0 0 0 0 0 0 29 75 131 164 182 192 197 200 202 203 204 204 204 204 204 204 204 204 204 204 204 167 129 87 81 75 73 71 70 76 74 71 82 114 153 176 188 195 199 201 203 203 190 150 112 95 106 103 96 94 106 117 122 125 126 127 128 128 128 120 96 82 83 103 114 120 124 119 106 77 50 25 15 8 4 2 1 0 0 0 
0 0 0 0 0 0 0 0 0 0 0 41 90 149 170 186 194 199 201 203 203 204 204 204 204 204 204 204 204 204 204 204 177 141 101 86 79 75 72 71 60 65 91 135 168 183 193 198 201 202 203 204 204 204 196 162 129 109 116 108 86 76 83 105 115 121 124 126 127 128 128 125 107 80 71 81 104 114 121 124 114 87 53 28 16 8 4 2 1 0 0 
0 0 0 0 0 0 0 0 0 0 18 63 117 159 178 190 196 200 202 203 204 204 204 204 204 204 204 204 204 204 204 204 182 147 109 89 83 78 75 65 71 97 137 169 184 193 198 201 202 203 204 204 204 204 204 185 153 131 123 131 121 98 78 76 94 111 118 123 125 127 127 128 128 128 111 90 78 88 105 116 121 117 112 85 59 28 17 9 5 2 1 
0 0 0 0 0 0 0 0 0 0 27 73 129 163 181 191 197 200 202 203 204 204 204 204 204 204 204 204 204 204 204 204 196 160 124 91 90 83 74 71 95 134 168 183 193 198 201 202 203 204 204 204 204 204 204 204 185 159 135 129 130 129 106 86 77 94 111 118 123 125 127 127 128 128 128 120 101 80 80 93 112 118 123 118 92 60 30 18 9 5 2 
0 0 0 0 0 0 0 0 0 0 32 79 136 166 183 192 198 201 202 203 204 204 204 204 204 204 204 204 204 204 204 204 204 175 142 103 91 80 72 95 125 167 181 192 197 200 202 203 204 204 204 204 204 204 204 204 204 185 163 139 134 132 130 116 90 75 81 101 113 120 124 126 127 128 128 128 128 125 110 89 79 81 97 104 101 76 49 25 14 7 4 
0 0 0 0 0 0 0 0 0 18 63 117 159 178 190 196 200 202 203 204 204 204 204 204 204 204 204 204 204 204 204 204 204 191 154 117 89 79 80 105 141 172 185 194 198 201 202 203 204 204 204 204 204 204 204 204 204 204 185 159 135 129 130 129 125 102 79 74 90 110 117 122 125 126 127 128 128 128 128 128 120 104 86 74 78 78 67 42 21 12 6 
0 0 0 0 0 0 0 0 0 22 67 122 160 179 190 196 200 202 203 204 204 204 204 204 204 204 204 204 204 204 204 204 204 204 167 132 91 86 104 133 170 183 193 198 201 202 203 204 204 204 204 204 204 204 204 204 204 204 204 185 153 127 119 126 126 127 115 91 77 81 102 114 120 124 126 127 128 128 128 128 128 128 125 120 110 107 94 74 45 23 13 
30 6 7 2 1 0 0 0 0 27 73 129 163 181 191 197 200 202 203 204 204 204 204 204 204 204 204 204 204 204 204 204 204 204 185 148 109 88 110 137 172 184 194 198 201 202 203 204 204 204 204 204 204 204 204 204 204 204 204 204 185 153 127 119 126 126 127 124 101 82 77 95 111 118 123 125 127 127 128 128 128 128 128 128 128 128 128 133 108 84 45 
13 2 3 1 0 0 0 0 0 32 79 136 166 183 192 198 201 202 203 204 204 204 204 204 204 204 204 204 204 204 204 204 204 204 204 175 139 104 118 145 175 187 195 199 201 203 203 204 204 204 204 204 204 204 204 204 204 204 204 204 204 185 153 127 119 126 126 127 128 128 120 118 116 124 125 127 127 128 128 128 128 128 128 128 128 128 128 116 88 57 32 
12 2 2 0 0 0 0 0 0 41 90 149 170 186 194 199 201 203 203 204 204 204 204 204 204 204 204 204 204 204 204 204 204 204 204 191 154 122 122 149 177 188 196 199 202 203 204 204 204 204 204 204 204 204 204 204 204 204 204 204 204 204 185 151 125 117 125 125 127 127 128 128 128 128 128 128 128 128 128 128 128 128 128 128 128 128 128 114 86 54 30 
13 2 3 1 0 0 0 0 0 32 79 136 166 183 192 198 201 202 203 204 204 204 204 204 204 204 204 204 204 204 204 204 204 204 204 204 182 145 133 146 178 187 196 199 202 203 204 204 204 204 204 204 204 204 204 204 204 204 204 204 204 204 204 185 149 123 114 124 125 127 127 128 128 128 128 128 128 123 113 110 104 111 111 121 123 126 127 115 87 56 31 
0 0 0 0 0 0 0 0 0 30 77 134 165 182 192 197 200 202 203 204 204 204 204 204 204 204 204 204 204 204 204 204 204 204 204 204 204 173 159 150 176 188 195 199 201 203 203 204 204 204 204 204 204 204 204 204 204 204 204 204 204 204 204 204 191 159 135 122 128 127 128 128 128 128 128 128 128 128 120 111 90 71 52 53 69 84 82 62 37 19 11 
0 0 0 0 0 0 0 0 0 41 90 149 170 186 194 199 201 203 203 204 204 204 204 204 204 204 204 204 204 204 204 204 204 204 204 204 204 204 175 169 162 189 193 199 201 203 203 204 204 204 204 204 204 204 204 204 204 204 204 204 204 204 204 204 204 185 153 127 119 126 126 127 128 128 128 128 128 128 128 128 128 125 114 85 79 56 50 21 14 7 4 
0 0 0 0 0 0 0 0 0 32 79 136 166 183 192 198 201 202 203 204 204 204 204 204 204 204 204 204 204 204 204 204 204 204 204 204 204 204 191 161 152 158 185 191 198 200 202 203 204 204 204 204 204 204 204 204 204 204 204 204 204 204 204 204 204 204 185 154 129 121 127 127 128 128 128 128 128 128 128 128 128 128 128 120 92 59 30 17 9 5 2 
0 0 0 0 0 0 0 0 0 41 90 149 170 186 194 199 201 203 203 204 204 204 204 204 204 204 204 204 204 204 204 204 204 204 204 204 204 204 191 147 113 111 145 174 186 195 199 201 203 203 204 204 204 204 204 204 204 204 204 204 204 204 204 204 204 204 204 182 152 127 123 127 127 128 128 128 128 128 128 128 128 128 128 120 92 59 30 17 9 5 2 
0 0 0 0 0 0 0 0 0 37 86 144 169 185 193 198 201 202 203 204 204 204 204 204 204 204 204 204 204 204 204 204 204 204 204 204 204 204 177 139 107 102 127 150 178 188 196 199 202 203 204 204 204 204 204 204 204 204 204 204 204 204 204 204 204 204 204 204 177 142 115 115 123 125 127 127 128 128 128 128 128 128 128 128 102 71 34 21 11 6 3 
0 0 0 0 0 0 0 0 0 32 79 136 166 183 192 198 201 202 203 204 204 204 204 204 204 204 204 204 204 204 204 204 204 204 204 204 204 204 163 136 111 126 129 145 164 184 192 198 201 202 203 204 204 204 204 204 204 204 204 204 204 204 204 204 204 204 204 204 204 172 147 120 127 126 128 128 128 128 128 120 118 116 124 116 91 58 29 17 9 5 2 
0 0 0 0 0 0 0 0 0 27 73 129 163 181 191 197 200 202 203 204 204 204 204 204 204 204 204 204 204 204 204 204 204 204 204 204 204 191 150 128 117 136 138 145 159 175 189 195 199 201 203 203 204 204 204 204 204 204 204 204 204 204 204 204 204 204 204 204 204 191 157 133 119 127 126 128 128 120 118 99 86 73 79 87 71 48 23 14 7 4 2 
0 0 0 0 0 0 0 0 0 22 67 122 160 179 190 196 200 202 203 204 204 204 204 204 204 204 204 204 204 204 204 204 204 204 204 204 204 185 153 131 127 139 140 143 147 160 175 190 196 200 202 203 204 204 204 204 204 204 204 204 204 204 204 204 204 204 204 204 204 204 182 152 127 123 127 127 128 119 102 83 76 86 101 107 86 57 28 17 9 5 2 
0 0 0 0 0 0 0 0 0 18 63 117 159 178 190 196 200 202 203 204 204 204 204 204 204 204 204 204 204 204 204 204 204 204 204 204 204 182 159 138 140 143 144 145 145 145 157 171 188 194 199 201 203 203 204 204 204 204 204 204 204 204 204 204 204 204 204 204 204 204 196 162 138 120 129 127 128 128 118 102 85 85 90 86 64 38 20 11 6 3 1 
0 0 0 0 0 0 0 0 0 20 65 119 159 178 190 196 200 202 203 204 195 175 147 122 108 112 131 158 177 190 196 200 202 203 204 204 204 173 155 134 145 143 145 145 145 145 142 144 156 174 189 195 199 201 203 203 204 204 204 204 204 204 204 204 204 204 204 204 204 204 204 177 153 127 129 123 119 117 121 125 126 127 128 111 82 47 25 14 7 4 2 
0 0 0 0 0 0 0 0 0 0 27 73 129 163 181 191 197 200 202 189 168 148 148 160 171 167 144 125 130 155 180 190 197 200 202 203 204 175 154 132 141 142 144 144 145 145 145 145 143 155 169 187 194 199 201 203 203 204 204 204 204 204 204 204 204 204 204 204 204 204 204 185 158 133 127 129 128 115 105 100 102 109 111 109 83 52 27 15 8 4 2 
0 0 0 0 0 0 0 0 0 0 22 67 122 160 179 190 196 191 173 159 162 178 191 196 200 202 200 172 144 136 156 181 190 197 200 202 203 171 153 131 144 142 144 144 145 145 145 145 145 135 134 144 168 185 193 198 201 202 203 204 204 204 204 204 204 204 204 204 204 204 204 191 164 141 129 131 129 129 123 108 94 86 92 90 72 46 23 13 7 4 2 
0 0 0 0 0 0 0 0 0 0 18 63 117 159 178 190 183 161 156 164 187 193 199 201 203 203 204 204 177 158 149 170 186 194 199 201 203 174 157 136 146 144 145 145 145 145 145 145 145 145 125 114 119 150 176 188 195 199 201 203 203 204 204 204 204 204 204 204 204 204 204 196 165 142 125 130 128 115 108 104 116 121 119 94 63 31 18 9 5 2 1 
0 0 0 0 0 0 0 0 0 0 0 32 79 136 166 169 157 155 166 187 193 199 201 203 203 204 204 204 191 161 152 158 185 191 198 200 199 170 152 134 144 143 145 145 145 145 145 145 145 145 145 135 122 119 138 164 183 192 198 201 202 203 204 204 204 204 204 204 204 204 204 196 169 146 130 132 121 109 89 74 70 82 92 77 51 25 15 8 4 2 1 
0 0 0 0 0 0 0 0 0 0 0 22 67 122 147 141 144 157 183 191 197 200 202 203 204 204 204 204 204 177 166 159 183 191 197 200 202 171 153 131 144 142 144 144 145 145 145 145 145 145 145 145 145 135 116 103 119 148 176 187 195 199 201 203 203 204 204 204 204 204 204 199 161 133 110 122 123 126 127 128 128 128 116 88 54 28 16 8 4 2 1 
0 0 0 0 0 0 0 0 0 0 0 0 41 81 111 125 142 176 186 195 199 201 203 203 204 204 204 204 204 185 168 161 175 190 196 200 202 174 154 132 141 142 144 144 145 145 145 145 145 145 145 145 145 145 142 124 99 84 105 138 171 184 194 198 201 202 203 204 204 204 204 191 157 119 89 91 99 115 120 124 126 127 122 96 64 32 19 10 5 3 1 
0 0 0 0 0 0 0 0 0 0 0 0 22 43 93 126 166 181 192 197 200 202 203 204 204 204 204 204 204 196 175 169 173 191 195 200 202 174 157 136 146 144 145 145 145 145 145 145 145 145 145 145 145 145 145 145 145 135 112 95 99 129 158 180 190 197 200 202 203 204 204 182 166 143 128 100 78 68 65 62 61 60 48 33 16 9 5 2 1 0 0 
0 0 0 0 0 0 0 0 0 0 0 0 20 51 103 140 171 185 194 198 201 202 203 204 204 204 204 204 204 204 182 178 172 193 196 200 202 176 152 130 137 141 143 144 145 145 145 145 145 145 145 145 145 145 145 145 145 145 145 138 116 95 91 119 151 177 188 196 199 202 189 158 138 129 141 141 144 134 112 95 87 87 67 44 22 13 7 4 2 1 0 
0 0 0 0 0 0 0 0 0 0 0 0 22 67 122 160 179 190 196 200 202 203 204 204 204 204 204 204 204 204 185 182 177 194 197 201 202 181 155 134 135 141 142 144 144 145 145 145 145 145 145 145 145 145 145 145 145 145 145 145 145 145 135 122 111 115 127 139 154 149 132 116 116 130 129 125 121 126 133 139 135 106 70 35 21 11 6 3 1 0 0 
0 0 0 0 0 0 0 0 0 0 0 20 65 119 159 178 190 196 200 202 203 204 204 204 204 204 204 204 204 204 182 178 172 193 196 200 202 184 152 130 126 138 140 143 144 145 145 145 145 145 145 145 145 145 145 145 145 145 145 145 145 145 145 145 142 134 115 92 74 72 89 109 127 134 139 131 110 79 60 53 63 54 42 19 12 6 3 1 0 0 0 
0 0 0 0 0 0 0 0 0 0 0 27 73 129 163 181 191 197 200 202 203 204 204 204 204 204 204 204 204 204 185 182 177 194 197 201 202 200 167 148 130 143 142 144 144 145 145 145 145 145 145 145 145 145 145 145 145 145 145 145 145 142 131 111 101 105 121 132 138 141 143 144 145 145 145 145 145 142 141 130 102 65 33 19 10 5 3 1 0 0 0 
0 0 0 0 0 0 0 0 0 0 18 63 117 159 178 190 196 200 202 203 204 204 204 204 204 204 204 204 204 204 182 178 172 193 196 200 202 203 173 155 134 145 143 145 145 145 145 145 145 145 145 145 145 145 145 145 145 145 145 145 145 145 145 142 124 99 84 93 112 128 135 133 117 110 112 128 135 140 142 128 96 58 30 17 9 5 2 1 0 0 0 
0 0 0 0 0 0 0 0 0 0 27 73 129 163 181 191 197 200 202 203 204 204 204 204 204 204 204 204 204 204 185 182 177 194 197 201 202 203 176 152 130 137 141 143 144 145 145 145 145 145 145 145 145 145 145 145 145 145 145 145 145 145 145 145 145 145 128 104 79 79 91 111 104 92 78 83 81 72 51 63 53 53 21 14 7 4 2 1 0 0 0 
0 0 0 0 0 0 0 0 0 18 58 111 151 175 188 195 199 201 203 203 204 204 204 204 204 204 204 204 204 201 181 177 175 193 196 200 202 203 190 165 146 139 144 144 145 145 145 145 145 145 145 145 145 145 145 145 145 145 145 145 145 145 145 138 133 131 137 141 143 134 122 111 109 114 121 131 138 131 132 102 77 35 22 11 6 3 1 0 0 0 0 
0 0 0 0 0 0 0 0 0 18 63 117 159 178 190 196 200 202 203 204 204 204 204 204 204 204 204 204 204 191 174 168 177 192 196 200 202 203 204 175 158 137 146 144 145 145 145 145 145 145 145 145 145 145 145 145 145 145 145 145 145 145 145 145 128 104 89 98 118 130 137 141 143 141 136 134 129 104 68 34 20 10 6 3 1 0 0 0 0 0 0 
0 0 0 0 0 0 0 0 18 54 106 146 173 186 194 199 201 203 203 204 204 204 204 204 204 204 204 204 204 185 173 167 182 192 197 200 202 203 204 185 159 139 136 142 143 144 145 145 145 145 145 145 145 145 145 145 145 145 145 145 145 145 145 145 145 138 120 104 104 115 110 91 90 103 126 131 108 75 36 22 11 6 3 1 0 0 0 0 0 0 0 
0 0 0 0 0 0 0 0 18 63 117 159 178 190 196 200 202 203 204 204 204 204 204 204 204 204 204 204 204 182 178 172 193 196 200 202 203 204 204 204 185 163 143 141 144 144 145 145 145 145 145 145 145 145 145 145 145 145 145 145 145 145 145 145 145 145 145 145 142 141 133 118 103 104 116 100 70 34 20 10 6 3 1 0 0 0 0 0 0 0 0 
0 0 0 0 0 0 0 18 49 100 139 170 184 193 198 201 202 203 204 204 204 204 204 204 204 204 204 204 204 180 176 170 192 195 200 202 203 204 204 204 204 191 169 150 144 146 145 145 145 145 145 145 145 145 145 145 145 145 145 145 145 145 145 145 145 145 145 145 145 145 145 145 145 143 114 78 38 23 12 7 3 2 1 0 0 0 0 0 0 0 0 
0 0 0 0 0 0 0 13 57 109 156 176 189 196 200 202 203 204 204 204 204 204 204 204 204 204 204 204 191 166 158 165 187 193 199 201 203 203 204 204 204 204 191 159 138 129 141 141 144 144 145 145 145 145 145 145 145 145 145 145 145 145 145 145 125 103 74 78 83 102 114 127 127 100 65 33 19 10 5 3 1 0 0 0 0 0 0 0 0 0 0 
0 0 0 0 0 0 30 58 111 138 172 185 194 198 201 202 203 204 204 204 204 204 204 204 204 204 204 204 182 150 117 113 128 152 174 188 195 199 201 203 203 204 204 177 139 111 113 129 136 140 142 144 144 145 145 145 145 145 145 145 145 145 145 145 145 145 142 141 140 143 133 123 90 63 30 18 9 5 2 1 0 0 0 0 0 0 0 0 0 0 0 
0 0 0 0 0 0 10 53 104 154 174 188 195 199 201 203 203 204 204 204 204 204 204 204 204 204 204 196 184 139 95 77 85 108 103 108 110 120 131 135 130 112 99 102 113 111 108 108 123 133 138 141 143 144 145 145 145 145 145 145 128 104 96 107 128 134 140 142 144 127 126 93 74 33 21 10 6 3 1 0 0 0 0 0 0 0 0 0 0 0 0 
0 0 0 0 0 0 18 63 117 159 178 190 196 200 202 203 204 204 204 204 204 204 204 204 204 204 204 185 141 87 45 26 14 8 4 2 1 0 0 0 0 10 43 92 139 169 171 158 141 137 139 142 143 144 145 145 145 145 142 141 140 133 131 130 139 141 143 127 95 56 49 60 79 87 72 52 24 15 7 4 2 1 0 0 0 0 0 0 0 0 0 
0 0 0 0 0 18 54 106 146 173 186 194 199 201 203 203 204 204 204 204 204 204 204 204 204 204 204 184 139 85 44 25 13 7 4 2 1 0 0 0 0 0 0 18 51 102 141 171 175 158 143 135 143 143 144 145 145 145 128 125 121 136 139 142 140 130 107 93 77 76 86 119 155 159 146 103 70 34 20 10 6 3 1 0 0 0 0 0 0 0 0 
0 0 0 0 0 13 57 109 156 176 189 196 200 202 203 204 204 204 204 204 204 204 204 204 204 204 182 137 82 43 25 13 7 4 2 1 0 0 0 0 0 0 0 0 20 38 83 116 159 178 176 161 146 142 145 145 145 145 145 145 145 145 145 125 103 85 104 120 130 140 158 182 191 197 173 128 73 40 22 12 6 3 1 0 0 0 0 0 0 0 0 
0 0 0 0 30 58 111 138 172 185 194 198 201 202 203 204 204 204 204 204 204 204 204 204 204 196 182 137 92 45 27 14 8 4 2 1 0 0 0 0 0 0 0 0 0 30 45 81 102 146 172 186 181 160 136 126 129 135 140 142 133 115 90 85 108 142 169 163 167 170 190 195 200 202 181 167 119 87 41 25 13 7 4 2 1 0 0 0 0 0 0 
0 0 0 0 18 54 106 146 173 186 194 199 201 203 203 204 204 204 204 204 204 204 204 204 204 182 137 82 43 25 13 7 4 2 1 0 0 0 0 0 0 0 0 0 0 0 0 10 31 78 122 163 180 191 175 145 106 82 70 64 55 51 75 117 161 178 177 171 170 182 193 198 201 202 195 171 124 77 40 23 12 7 3 2 1 0 0 0 0 0 0 
0 0 0 0 18 63 117 159 178 190 196 200 202 203 204 204 204 204 204 204 204 204 204 204 185 141 87 45 26 14 8 4 2 1 0 0 0 0 0 0 0 0 0 0 0 0 0 0 18 32 80 114 161 178 190 196 191 178 174 176 167 166 167 189 194 199 191 190 189 198 200 202 203 204 204 177 130 75 41 23 12 7 3 2 1 0 0 0 0 0 0 
0 0 0 0 27 73 129 163 181 191 197 200 202 203 204 204 204 204 204 204 204 204 204 191 147 95 48 28 15 8 4 2 1 0 0 0 0 0 0 0 0 0 0 0 0 0 0 0 0 23 38 87 117 163 179 191 197 200 202 189 177 172 182 193 198 192 178 174 179 193 197 201 202 203 204 182 137 82 43 25 13 7 4 2 1 0 0 0 0 0 0 
0 0 0 20 65 119 159 178 190 196 200 202 203 204 204 204 204 204 204 204 204 204 196 178 132 87 43 26 13 7 4 2 1 0 0 0 0 0 0 0 0 0 0 0 0 0 0 0 0 0 25 44 93 123 166 180 192 197 200 197 197 196 201 202 203 190 179 174 185 194 198 201 202 203 204 182 137 82 43 25 13 7 4 2 1 0 0 0 0 0 0 
0 0 0 18 63 117 159 178 190 196 200 202 203 204 204 204 204 204 204 204 204 194 170 122 77 39 23 12 7 3 2 1 0 0 0 0 0 0 0 0 0 0 0 0 0 0 0 0 0 0 0 25 52 104 135 170 184 193 198 201 202 203 204 204 204 185 182 177 194 197 201 202 203 204 201 180 134 83 43 25 13 7 4 2 1 0 0 0 0 0 0 
0 0 0 32 79 136 166 183 192 198 201 202 203 204 204 204 204 204 204 204 204 182 137 82 43 25 13 7 4 2 1 0 0 0 0 0 0 0 0 0 0 0 0 0 0 0 0 0 0 0 0 0 18 49 100 139 170 184 193 198 201 202 203 204 201 181 177 175 193 196 200 202 203 204 195 183 138 94 46 28 14 8 4 2 1 0 0 0 0 0 0 
0 0 0 41 90 149 170 186 194 199 201 203 203 204 204 204 204 204 204 204 182 181 135 107 48 31 15 9 4 2 1 0 0 0 0 0 0 0 0 0 0 0 0 0 0 0 0 0 0 0 0 0 0 13 48 99 143 171 185 194 198 201 202 203 190 169 162 170 189 194 199 201 203 203 190 147 94 48 28 15 8 4 2 1 0 0 0 0 0 0 0 
0 0 37 86 144 169 185 193 198 201 202 203 204 204 204 204 204 204 204 182 137 82 43 25 13 7 4 2 1 0 0 0 0 0 0 0 0 0 0 0 0 0 0 0 0 0 0 0 0 0 0 0 0 0 18 60 113 154 176 189 196 200 202 203 181 169 162 180 191 197 200 202 203 204 182 137 82 43 25 13 7 4 2 1 0 0 0 0 0 0 0 
0 0 36 84 142 168 185 193 198 201 202 203 204 204 204 204 204 204 182 137 82 43 25 13 7 4 2 1 0 0 0 0 0 0 0 0 0 0 0 0 0 0 0 0 0 0 0 0 0 0 0 0 0 0 0 18 63 117 159 178 190 196 200 202 179 175 170 192 195 200 202 203 204 190 177 131 92 44 27 14 8 4 2 1 0 0 0 0 0 0 0 
0 44 94 153 172 188 195 199 201 203 203 204 204 204 204 204 204 182 137 82 43 25 13 7 4 2 1 0 0 0 0 0 0 0 0 0 0 0 0 0 0 0 0 0 0 0 0 0 0 0 0 0 0 0 0 0 22 67 122 160 179 190 196 186 167 161 169 189 194 199 201 203 203 176 130 74 40 22 12 6 3 1 0 0 0 0 0 0 0 0 8 
0 41 90 149 170 186 194 199 201 203 203 204 204 204 204 204 182 137 82 43 25 13 7 4 2 1 0 0 0 0 0 0 0 0 0 0 0 0 0 0 0 0 0 0 0 0 0 0 0 0 0 0 0 0 0 0 0 29 75 131 164 182 192 179 175 171 188 194 199 201 203 203 182 136 82 43 25 13 7 4 2 1 0 0 0 0 0 0 0 0 8 
0 41 90 149 170 186 194 199 201 203 203 204 204 204 204 173 140 117 95 73 33 21 10 6 3 1 0 0 0 0 0 0 0 0 0 0 0 0 0 0 0 0 0 0 0 0 0 0 0 0 0 0 0 0 0 0 0 0 32 79 136 166 169 157 155 166 187 193 199 201 203 185 166 117 82 39 24 12 7 3 2 1 0 0 0 0 0 0 0 0 8 
44 94 153 172 188 195 199 201 203 203 204 204 204 204 182 154 125 114 99 75 57 57 50 40 18 11 5 3 1 0 0 0 0 0 0 0 0 0 0 0 0 0 0 0 0 0 0 0 0 0 0 0 0 0 0 0 0 0 0 27 73 129 132 135 137 168 184 193 198 201 189 165 117 75 38 22 12 6 3 1 0 0 0 0 0 0 0 0 0 8 29 
37 86 144 169 185 193 198 201 202 203 204 204 201 178 163 158 177 190 196 200 193 170 134 139 114 100 42 28 14 8 4 2 1 0 0 0 0 0 0 0 0 0 0 0 0 0 0 0 0 0 0 0 0 0 0 0 0 0 0 0 27 73 102 130 142 177 186 195 199 188 169 122 82 40 24 12 7 3 2 1 0 0 0 0 0 0 0 0 0 7 26 
41 90 149 170 186 194 199 201 203 203 204 195 175 169 173 191 195 200 202 203 204 204 196 172 124 78 40 23 12 7 3 2 1 0 0 0 0 0 0 0 0 0 0 0 0 0 0 0 0 0 0 0 0 0 0 0 0 0 0 0 0 18 32 61 92 134 168 174 160 148 111 82 38 24 12 7 3 2 1 0 0 0 0 0 0 0 0 0 0 8 27 
70 125 162 180 191 197 200 202 203 200 190 173 171 178 192 197 200 202 203 204 204 204 204 185 141 87 45 26 14 8 4 2 1 0 0 0 0 0 0 0 0 0 0 0 0 0 0 0 0 0 0 0 0 0 0 0 0 0 0 0 0 0 8 10 25 39 64 78 67 49 23 14 7 4 2 1 0 0 0 0 0 0 0 0 0 0 0 0 0 14 41 
119 133 173 184 194 198 201 202 193 173 158 161 178 190 196 200 202 203 204 204 204 204 204 191 147 95 48 28 15 8 4 2 1 0 0 0 0 0 0 0 0 0 0 0 0 0 0 0 0 0 0 0 0 0 0 0 0 0 0 0 0 0 0 0 45 54 65 23 17 8 5 2 1 0 0 0 0 0 0 0 0 0 0 0 0 0 0 0 0 23 55 
77 133 165 182 192 197 200 202 203 204 204 204 204 204 204 204 204 204 204 204 204 204 204 185 141 87 45 26 14 8 4 2 1 0 0 0 0 0 0 0 0 0 0 0 0 0 0 0 0 0 0 0 0 0 0 0 0 0 0 0 0 0 0 0 0 0 0 0 0 0 0 0 0 0 0 0 0 0 0 0 0 0 0 0 0 0 0 0 0 15 45 
104 143 172 186 194 199 201 203 203 204 204 204 204 204 204 204 204 204 204 204 204 204 196 172 124 78 40 23 12 7 3 2 1 0 0 0 0 0 0 0 0 0 0 0 0 0 0 0 0 0 0 0 0 0 0 0 0 0 0 0 0 0 0 0 0 0 0 0 0 0 0 0 0 0 0 0 0 0 0 0 0 0 0 0 0 0 0 0 0 20 53 
92 132 167 182 192 197 200 202 203 204 204 204 204 204 204 204 204 204 204 204 204 191 161 111 68 35 20 11 6 3 1 0 0 0 0 0 0 0 0 0 0 0 0 0 0 0 0 0 0 0 0 0 0 0 0 0 0 0 0 0 0 0 0 0 0 0 0 0 0 0 0 0 0 0 0 0 0 0 0 0 0 0 0 0 0 0 0 0 0 18 48 
59 112 157 176 189 196 200 202 203 204 204 204 204 204 204 204 204 204 204 196 172 145 102 69 34 20 10 6 3 1 0 0 0 0 0 0 0 0 0 0 0 0 0 0 0 0 0 0 0 0 0 0 0 0 0 0 0 0 0 0 0 0 0 0 0 0 0 0 0 0 0 0 0 0 0 0 0 0 0 0 0 0 0 0 0 0 0 0 0 11 36 
29 67 121 152 177 188 196 199 202 203 204 204 204 204 204 204 204 191 166 146 110 80 38 23 12 7 3 2 1 0 0 0 0 0 0 0 0 0 0 0 0 0 0 0 0 0 0 0 0 0 0 0 0 0 0 0 0 0 0 0 0 0 0 0 0 0 0 0 0 0 0 0 0 0 0 0 0 0 0 0 0 0 0 0 0 0 0 0 0 5 20 
0 0 30 55 85 84 102 119 145 163 177 187 189 184 170 147 128 123 99 75 34 21 11 6 3 1 0 0 0 0 0 0 0 0 0 0 0 0 0 0 0 0 0 0 0 0 0 0 0 0 0 0 0 0 0 0 0 0 0 0 0 0 0 0 0 0 0 0 0 0 0 0 0 0 0 0 0 0 0 0 0 0 0 0 0 0 0 0 0 0 0 
0 0 0 0 0 30 57 87 78 75 64 65 59 69 86 82 64 29 18 9 5 2 1 0 0 0 0 0 0 0 0 0 0 0 0 0 0 0 0 0 0 0 0 0 0 0 0 0 0 0 0 0 0 0 0 0 0 0 0 0 0 0 0 0 0 0 0 0 0 0 0 0 0 0 0 0 0 0 0 0 0 0 0 0 0 0 0 0 0 0 0 
