P2
91 149
255 
0 0 0 0 30 18 18 49 51 51 47 54 47 54 47 51 58 18 18 30 0 0 0 0 0 0 0 0 0 0 0 0 0 0 0 0 0 0 0 0 0 0 0 0 0 0 0 0 8 39 44 70 73 82 82 76 13 0 0 0 0 0 0 0 0 0 0 0 0 0 0 0 0 0 0 0 0 0 0 0 0 0 0 0 0 0 0 0 0 0 0 
0 0 0 0 6 3 3 40 30 29 19 24 19 24 19 30 42 3 3 6 0 0 0 0 0 0 0 0 0 0 0 0 0 0 0 0 0 0 0 0 0 0 0 0 0 0 51 8 39 88 94 114 129 130 129 102 35 0 0 0 0 0 0 0 0 0 0 0 0 0 0 0 0 0 0 0 0 0 0 0 0 0 0 0 0 0 0 0 0 0 0 
0 0 0 0 7 4 4 17 16 16 13 15 13 15 13 16 20 4 4 7 0 0 0 0 0 0 0 0 0 0 0 0 0 0 0 0 0 0 0 0 0 0 0 0 0 0 69 32 88 126 150 159 163 165 165 155 55 30 0 0 0 0 0 0 0 20 10 3 8 10 18 0 0 0 0 0 0 0 0 0 0 0 0 0 0 0 0 0 0 0 0 
0 0 0 0 2 1 1 11 9 9 6 7 6 7 6 9 12 1 1 2 0 0 0 0 0 0 0 0 0 0 0 0 0 0 0 0 0 0 0 0 0 0 0 0 0 20 105 79 136 165 171 177 181 182 181 174 59 36 0 0 0 0 0 0 8 38 39 45 51 53 63 41 13 0 0 0 0 0 0 0 0 0 0 0 0 0 0 0 0 0 0 
0 0 0 0 1 1 1 5 5 5 3 4 3 4 3 5 6 1 1 1 0 0 0 0 0 0 0 0 0 0 0 0 0 0 0 0 0 0 0 0 0 0 0 0 0 38 106 126 167 181 187 190 191 192 192 175 45 62 18 10 18 30 0 13 37 86 88 95 102 104 117 90 47 10 0 0 0 0 0 0 0 0 0 0 0 0 0 0 0 0 0 
0 0 0 0 0 0 0 3 2 2 1 2 1 2 1 2 3 0 0 0 0 0 0 0 0 0 0 0 0 0 0 0 0 0 0 0 0 0 0 0 0 0 0 0 18 78 146 164 183 192 194 196 197 197 197 157 43 79 54 39 41 45 0 29 86 120 134 151 153 154 159 149 97 31 0 0 0 0 0 0 0 0 0 0 0 0 0 0 0 0 0 
0 0 0 0 0 0 0 1 1 1 0 1 0 1 0 1 1 0 0 0 0 0 0 0 0 0 0 0 0 0 0 0 0 0 0 0 0 0 0 0 0 0 0 0 36 110 173 181 193 197 199 200 200 200 200 112 58 129 106 88 90 95 27 49 93 145 167 172 174 174 178 170 141 64 0 0 0 0 0 0 0 0 0 0 0 0 0 0 0 0 0 
0 0 0 0 0 0 0 0 0 0 0 0 0 0 0 0 0 0 0 0 0 0 0 0 0 0 0 0 0 0 0 0 0 0 0 0 0 0 0 0 0 0 0 0 65 152 186 192 198 200 201 202 202 202 180 86 102 164 146 134 127 118 73 83 104 124 152 187 188 188 190 186 170 84 0 0 0 0 0 0 0 0 0 0 0 0 0 0 0 0 0 
0 0 0 0 0 0 0 0 0 0 0 0 0 0 0 0 0 0 0 0 0 0 0 0 0 0 0 0 0 0 0 0 0 0 0 0 0 0 0 0 0 0 0 18 83 175 194 197 201 202 203 203 203 189 135 85 141 181 173 167 166 165 129 122 107 125 128 153 186 195 196 194 185 86 0 0 0 0 0 0 0 0 0 0 0 0 0 0 0 0 0 
0 0 0 0 0 0 0 0 0 0 0 0 0 0 0 0 0 0 0 0 0 0 0 0 0 0 0 0 0 0 0 0 0 0 0 0 0 0 0 0 0 0 10 25 108 188 199 200 202 203 203 204 195 150 109 121 171 192 186 183 181 179 163 164 151 140 120 127 148 191 200 199 175 88 0 0 0 0 0 0 0 0 0 0 0 0 0 0 0 0 0 
0 0 0 0 0 0 0 0 0 0 0 0 0 0 0 0 0 0 0 0 0 0 0 0 0 0 0 0 0 0 0 0 0 0 0 0 0 0 0 0 0 8 39 61 122 195 201 202 203 204 204 204 163 129 117 155 185 197 194 193 192 191 181 180 174 176 145 115 118 159 202 198 143 70 0 0 0 0 0 0 0 0 0 0 0 0 0 0 0 0 0 
0 0 0 0 0 0 0 0 0 0 0 0 0 0 0 0 0 0 0 0 0 0 0 0 0 0 0 0 0 0 0 0 0 0 0 0 0 0 0 0 10 37 90 78 121 199 203 203 204 204 204 185 141 131 154 178 194 200 199 198 197 197 191 191 188 186 176 149 113 114 176 180 125 57 0 0 0 0 0 0 0 0 0 0 0 0 0 0 0 0 0 
0 0 0 0 0 0 0 0 0 0 0 0 0 0 0 0 0 0 0 0 0 0 0 0 0 0 0 0 0 0 0 0 0 0 0 0 0 0 0 18 34 86 136 127 108 183 203 204 204 204 204 178 139 164 177 189 198 202 201 201 200 200 197 197 195 195 187 175 147 94 130 166 92 25 0 0 0 0 0 0 0 0 0 0 0 0 0 0 0 0 0 
0 0 0 0 0 0 0 0 0 0 0 0 0 0 0 0 0 0 0 0 0 0 0 0 0 0 0 0 0 0 0 0 0 0 0 0 0 0 0 36 82 134 169 150 109 158 204 204 204 204 204 173 165 182 189 196 201 203 203 202 202 202 200 200 199 199 195 187 175 113 93 135 74 16 0 0 0 0 0 0 0 0 0 0 0 0 0 0 0 0 0 
0 0 0 0 0 0 0 0 0 0 0 0 0 0 0 0 0 0 0 0 0 0 0 0 0 0 0 0 0 0 0 0 0 0 0 0 0 0 8 75 127 167 184 178 128 150 204 204 204 204 204 189 183 192 196 200 202 204 203 203 203 203 202 202 201 201 199 195 187 150 104 114 63 8 0 0 0 0 0 0 0 0 0 0 0 0 0 0 0 0 0 
0 0 0 0 0 0 0 0 0 0 0 0 0 0 0 0 0 0 0 0 0 0 0 0 0 0 0 0 0 0 0 0 0 0 0 0 0 30 23 109 164 183 193 188 160 162 204 204 204 204 204 195 192 197 200 202 203 204 204 204 204 204 203 203 203 203 201 199 195 175 140 106 66 4 0 0 0 0 0 0 0 0 0 0 0 0 0 0 0 0 0 
0 0 0 0 0 0 0 0 0 0 0 0 0 0 0 0 0 0 0 0 0 0 0 0 0 0 0 0 0 0 0 0 0 0 0 0 0 46 59 151 181 193 198 196 180 185 204 204 204 204 204 199 198 200 202 203 204 204 204 204 204 204 204 204 203 203 203 201 199 188 171 127 92 26 0 0 0 0 0 0 0 0 0 0 0 0 0 0 0 0 0 
0 0 0 0 0 0 0 0 0 0 0 0 0 0 0 0 0 0 0 0 0 0 0 0 0 0 0 0 0 0 0 0 0 0 0 0 0 69 101 175 192 198 201 199 191 192 204 204 204 204 204 201 201 202 203 204 204 204 204 204 204 204 204 204 204 204 203 203 201 195 185 161 108 43 0 0 0 0 0 0 0 0 0 0 0 0 0 0 0 0 0 
0 0 0 0 0 0 0 0 0 0 0 0 0 0 0 0 0 0 0 0 0 0 0 0 0 0 0 0 0 0 0 0 0 0 0 0 20 74 144 188 197 201 202 202 197 198 204 204 204 204 204 203 202 203 204 204 204 204 204 204 204 204 204 204 204 204 204 203 203 199 194 180 149 83 18 0 0 0 0 0 0 0 0 0 0 0 0 0 0 0 0 
0 0 0 0 0 0 0 0 0 0 0 0 0 0 0 0 0 0 0 0 0 0 0 0 0 0 0 0 0 0 0 0 0 0 0 0 43 110 172 195 200 202 203 203 200 201 204 204 204 204 204 203 203 204 204 204 204 204 204 204 204 204 204 204 204 204 204 204 203 201 198 191 174 112 54 25 0 0 0 0 0 0 0 0 0 0 0 0 0 0 0 
0 0 0 0 0 0 0 0 0 0 0 0 0 0 0 0 0 0 0 0 0 0 0 0 0 0 0 0 0 0 0 0 0 0 0 0 70 146 186 199 202 203 204 204 202 202 204 204 204 204 204 204 204 204 204 204 204 204 204 204 204 204 204 204 204 204 204 204 204 203 201 197 187 153 106 57 23 0 0 0 0 0 0 0 0 0 0 0 0 0 0 
0 0 0 0 0 0 0 0 0 0 0 0 0 0 0 0 0 0 0 0 0 0 0 0 0 0 0 0 0 0 0 0 0 0 0 0 87 174 194 201 203 204 204 204 203 203 204 204 204 204 204 204 204 204 204 204 204 204 204 204 204 204 204 204 204 204 204 204 204 203 202 200 195 176 146 110 50 25 0 0 0 0 0 0 0 0 0 0 0 0 0 
0 0 0 0 0 0 0 0 0 0 0 0 0 0 0 0 0 0 0 0 0 0 0 0 0 0 0 0 0 0 0 0 0 0 0 30 110 187 199 203 204 204 204 204 204 204 204 204 204 204 204 204 204 204 204 204 204 204 204 204 204 204 204 204 204 204 204 204 204 204 203 202 199 188 173 142 101 52 20 0 0 0 0 0 0 0 0 0 0 0 0 
0 0 0 0 0 0 0 0 0 0 0 0 0 0 0 0 0 0 0 0 0 0 0 0 0 0 0 0 0 0 0 0 0 0 0 65 140 195 201 203 204 204 204 204 204 204 204 204 204 204 204 204 204 204 204 204 204 204 204 204 204 204 204 204 204 204 204 204 204 204 204 203 201 195 186 173 134 104 51 20 0 0 0 0 0 0 0 0 0 0 0 
0 0 0 0 0 0 0 0 0 0 0 0 0 0 0 0 0 0 0 0 0 0 0 0 0 0 0 0 0 0 0 0 0 0 0 106 164 199 203 204 204 204 204 204 204 204 204 204 204 204 204 204 204 204 204 204 204 204 204 204 204 204 204 204 204 204 204 204 204 204 204 204 203 199 194 186 170 135 103 38 30 0 0 0 0 0 0 0 0 0 0 
0 0 0 0 0 0 0 0 0 0 0 0 0 0 0 0 0 0 0 0 0 0 0 0 0 0 0 0 0 0 0 0 0 0 0 123 183 201 203 204 204 204 204 204 204 204 204 204 204 204 204 204 204 204 204 204 204 204 204 204 204 204 204 204 204 204 175 167 173 196 204 204 203 201 199 194 183 170 140 64 45 0 0 0 0 0 0 0 0 0 0 
0 0 0 0 0 0 0 0 0 0 0 0 0 0 0 0 0 0 0 0 0 0 0 0 0 0 0 0 0 0 0 0 0 0 0 146 192 203 204 204 204 204 204 204 204 204 204 204 204 204 204 204 204 204 204 204 204 204 204 204 204 204 204 204 204 185 156 151 157 194 204 204 204 203 201 199 193 184 171 71 78 0 0 0 0 0 0 0 0 0 0 
0 0 0 0 0 0 0 0 0 0 0 0 0 0 0 0 0 0 0 0 0 0 0 0 0 0 0 0 0 0 0 0 0 0 20 168 198 203 204 204 204 204 204 204 204 204 204 204 204 204 204 204 204 204 204 204 204 204 204 204 204 204 204 204 194 173 146 140 148 192 204 204 204 203 203 201 198 193 185 73 57 0 0 0 0 0 0 0 0 0 0 
0 0 0 0 0 0 0 0 0 0 0 0 0 0 0 0 0 0 0 0 0 0 0 0 0 0 0 0 0 7 10 3 13 18 51 185 201 204 204 204 204 204 204 204 204 204 204 204 204 204 204 204 204 204 204 204 204 204 204 204 204 204 204 204 192 167 169 172 173 200 204 204 204 204 203 203 201 198 172 76 50 0 0 0 0 0 0 0 0 0 0 
0 0 0 0 0 0 0 0 0 0 0 0 0 0 0 0 0 0 0 0 0 0 0 0 0 0 0 0 14 22 26 18 26 36 103 193 202 204 204 204 204 204 204 204 204 204 204 204 204 204 204 204 204 204 204 204 204 204 204 204 204 204 204 204 190 182 186 185 187 201 204 204 204 204 204 203 202 187 155 58 21 0 0 0 0 0 0 0 0 0 0 
0 0 0 0 0 0 0 0 0 0 0 0 0 0 0 0 0 0 0 0 0 0 0 0 0 0 0 0 27 40 45 35 38 75 140 198 203 204 204 204 204 204 204 204 204 204 204 204 204 204 204 204 204 204 204 204 204 204 204 204 204 204 204 204 199 192 194 194 195 203 204 204 204 204 204 204 184 145 108 47 14 0 0 0 0 0 0 0 0 0 0 
0 0 0 0 0 0 0 0 0 0 0 0 0 0 0 0 0 0 0 0 0 0 0 0 0 0 0 0 39 54 56 45 52 109 171 201 204 204 204 204 204 204 204 204 204 204 204 204 204 204 204 204 204 204 204 204 204 204 204 204 204 204 204 204 200 197 195 171 167 203 204 204 204 204 204 201 164 93 76 21 7 0 0 0 0 0 0 0 0 0 0 
0 0 0 0 0 0 0 0 0 0 0 0 0 0 0 0 0 0 0 0 0 0 0 0 0 0 0 0 37 57 62 55 88 151 185 202 204 204 204 204 204 204 204 204 204 204 204 204 204 204 204 204 204 204 204 204 204 204 204 204 204 204 204 204 202 200 165 127 132 204 204 204 204 204 204 200 134 73 36 13 4 0 0 0 0 0 0 0 0 0 0 
0 0 0 0 0 0 0 0 0 0 0 0 0 0 0 0 0 0 0 0 0 0 0 0 0 0 0 0 43 57 65 86 132 175 194 203 204 204 204 204 204 204 204 204 204 204 204 204 204 204 204 204 204 204 204 204 204 204 204 204 204 204 204 204 203 180 118 73 100 204 204 204 204 204 204 199 143 80 41 6 2 0 0 0 0 0 0 0 0 0 0 
0 0 0 0 0 0 0 0 0 0 0 0 0 0 0 0 0 0 0 0 0 0 0 0 0 0 0 0 57 57 65 129 167 188 198 204 204 204 204 204 204 204 204 204 204 204 204 204 204 204 204 204 204 204 204 204 204 204 204 204 204 204 204 204 204 168 82 62 119 204 204 204 204 204 204 202 156 119 75 36 1 0 0 0 0 0 0 0 0 0 0 
0 0 0 0 0 0 0 0 0 0 0 0 0 0 0 0 0 0 0 0 0 0 0 0 0 0 0 0 68 61 58 147 182 195 201 204 204 204 204 204 204 204 204 204 204 204 204 204 204 204 204 204 204 204 204 204 204 204 204 204 204 204 204 204 204 161 98 90 148 204 204 204 204 204 204 203 182 144 124 81 41 18 0 0 0 0 0 0 0 0 0 
0 0 0 0 0 0 0 0 0 0 0 0 0 0 0 0 0 0 0 0 0 0 0 0 0 0 0 0 80 65 57 128 189 199 202 204 204 204 204 204 204 204 204 204 204 204 204 204 204 204 204 204 204 204 204 204 204 204 204 204 204 204 204 204 204 180 135 134 176 204 204 204 204 204 204 204 190 175 162 137 90 63 8 30 0 0 0 0 0 0 0 
0 0 0 0 0 0 0 0 0 0 0 0 0 0 0 0 0 0 0 0 0 0 0 0 0 0 0 0 78 67 58 101 166 201 203 204 204 204 204 204 204 204 204 204 204 204 204 204 204 204 204 204 204 204 204 204 204 204 204 204 204 204 204 204 204 191 169 167 187 204 204 204 204 204 204 204 197 186 180 166 149 117 42 45 0 0 0 0 0 0 0 
0 0 0 0 0 0 0 0 0 0 0 0 0 0 0 0 0 0 0 0 0 0 0 0 0 0 0 0 86 68 65 84 132 180 204 204 204 204 204 204 204 204 204 204 204 204 204 204 204 204 204 204 204 204 204 204 204 204 204 204 204 204 204 204 204 197 183 183 195 204 204 204 204 204 204 204 200 195 191 183 148 130 69 64 13 0 0 0 0 0 0 
0 0 0 0 0 0 0 0 0 0 0 0 0 0 0 0 0 0 0 0 0 0 0 0 0 0 0 0 81 69 66 79 97 146 182 204 204 204 204 204 204 204 204 204 204 204 204 204 204 204 204 204 204 204 204 204 204 204 204 204 204 204 204 204 204 200 193 193 199 204 204 204 204 204 204 204 202 199 197 169 119 102 73 40 16 0 0 0 0 0 0 
0 0 0 0 0 0 0 0 0 0 0 0 0 0 0 0 0 0 0 0 0 0 0 0 0 0 0 0 82 69 68 74 84 108 147 191 204 204 204 204 204 204 204 204 204 204 204 204 204 204 204 204 204 204 204 204 204 204 204 204 204 204 204 204 204 202 198 198 201 204 204 204 204 204 204 204 203 201 200 138 72 58 47 31 19 30 0 0 0 0 0 
0 0 0 0 0 0 0 0 0 0 0 0 0 0 0 0 0 0 0 0 0 0 0 0 0 0 0 0 74 69 68 72 78 89 109 150 196 204 204 204 204 204 204 204 204 204 204 204 204 204 204 204 204 204 204 204 204 204 204 204 204 204 204 204 204 203 201 201 203 204 204 204 204 204 204 204 204 203 202 99 38 32 24 14 7 36 0 0 0 0 0 
0 0 0 0 0 0 0 0 0 0 0 0 0 0 0 0 0 0 0 0 0 0 0 0 0 0 0 12 73 69 69 71 79 81 89 113 160 196 204 204 204 204 204 204 204 204 204 204 204 204 204 204 204 204 204 204 204 204 204 204 204 204 204 194 201 204 202 202 203 204 204 204 204 204 204 204 204 203 203 86 22 18 14 9 5 43 0 0 0 0 0 
0 0 0 0 0 0 0 0 0 0 0 0 0 0 0 0 0 0 0 0 0 0 0 0 0 0 22 28 71 71 74 70 78 77 81 84 121 165 201 204 204 204 204 204 204 204 204 204 204 204 204 204 204 204 204 204 204 204 204 204 204 196 172 151 163 195 203 203 204 204 204 204 204 204 204 204 204 204 204 96 12 10 7 4 21 15 0 0 0 0 0 
0 0 0 0 0 0 0 0 0 0 0 0 0 0 0 0 0 0 0 0 0 0 0 0 0 0 33 48 70 71 75 70 78 75 76 81 87 127 168 204 204 204 204 204 204 204 204 204 204 204 204 204 204 204 204 204 204 204 204 204 194 172 147 103 118 194 204 204 204 204 204 204 204 204 204 204 204 204 204 127 25 5 4 2 24 11 0 0 0 0 0 
0 0 0 0 0 0 0 0 0 0 0 0 0 0 0 0 0 0 0 0 0 0 0 0 0 12 54 57 70 72 76 70 73 74 73 75 80 94 130 173 204 204 204 204 204 204 204 204 204 204 204 204 204 204 204 204 204 204 204 204 183 165 132 54 64 170 204 204 204 204 204 204 204 204 204 204 204 204 204 157 67 21 5 21 27 5 0 0 0 0 0 
0 0 0 0 0 0 0 0 0 0 0 0 0 0 0 0 0 0 0 0 0 0 0 0 0 28 52 63 70 70 72 70 72 71 71 78 75 82 92 140 172 204 204 204 204 204 204 204 204 204 204 204 204 204 204 204 204 204 204 204 179 168 148 34 41 132 196 204 204 204 204 204 204 204 204 204 204 204 204 179 119 51 15 25 10 3 0 0 0 0 0 
0 0 0 0 0 0 0 0 0 0 0 0 0 0 0 0 0 0 0 0 0 0 0 0 0 44 63 66 70 70 78 70 71 71 70 77 74 77 82 100 135 175 201 204 204 204 204 204 204 204 204 204 204 204 204 204 204 204 204 204 186 189 153 17 21 79 163 204 204 204 204 204 204 204 204 204 204 204 204 190 146 70 17 29 7 1 0 0 0 0 0 
0 0 0 0 0 0 0 0 0 0 0 0 0 0 0 0 0 0 0 0 0 0 0 0 0 49 65 67 71 70 78 70 70 70 71 78 73 73 76 90 94 139 171 196 204 204 204 204 204 204 204 204 204 204 204 204 204 204 204 204 196 194 161 13 12 42 114 185 204 204 204 204 204 204 204 204 204 204 204 178 140 61 16 10 3 0 0 0 0 0 0 
0 0 0 0 0 0 0 0 0 0 0 0 0 0 0 0 0 0 0 0 0 0 0 0 20 53 67 68 71 70 79 70 70 70 76 73 73 72 73 80 84 99 138 156 196 204 204 204 204 204 204 204 204 204 204 204 204 204 204 204 199 199 172 23 6 24 65 141 185 204 204 204 204 204 204 204 204 191 182 167 103 36 6 7 2 0 0 0 0 0 0 
0 0 0 0 0 0 0 0 0 0 0 0 0 0 0 0 0 0 0 0 0 0 0 0 38 58 68 69 72 75 73 70 70 70 78 72 71 71 71 81 77 86 101 120 160 191 204 204 204 204 204 204 204 204 204 204 204 204 204 204 202 201 189 51 3 13 35 87 151 194 204 204 204 201 194 182 177 172 137 121 67 19 4 3 1 0 0 0 0 0 0 
0 0 0 0 0 0 0 0 0 0 0 0 0 0 0 0 0 0 0 0 0 0 0 0 52 64 69 74 70 76 72 71 70 70 77 71 70 75 70 80 74 79 89 86 124 154 182 204 204 204 204 204 204 204 204 204 204 204 204 204 203 203 195 96 10 7 20 45 121 189 182 192 196 190 182 137 130 125 82 88 34 11 2 2 0 0 0 0 0 0 0 
0 0 0 0 0 0 0 0 0 0 0 0 0 0 0 0 0 0 0 0 0 0 0 20 52 66 69 75 70 77 71 71 70 75 73 70 70 77 70 80 72 75 80 83 91 117 144 182 204 204 204 204 204 204 204 204 204 204 204 204 204 203 199 138 33 4 11 26 114 163 137 149 153 146 136 82 75 84 43 41 20 6 1 1 0 0 0 0 0 0 0 
0 0 0 0 0 0 0 0 0 0 0 0 0 0 0 0 0 0 0 0 0 0 0 31 55 68 69 78 70 72 70 72 70 76 73 70 70 79 70 75 71 72 80 75 85 89 105 147 182 204 204 204 204 204 204 204 204 204 204 204 204 204 201 169 77 5 6 24 129 145 82 97 102 97 94 43 41 41 25 25 10 3 0 0 0 0 0 0 0 0 0 
0 0 0 0 0 0 0 0 0 0 0 0 0 0 0 0 0 0 0 0 0 0 30 44 63 68 69 74 70 71 75 70 70 77 72 70 70 74 70 73 70 71 80 73 77 83 84 109 144 177 201 204 204 204 204 204 204 204 204 204 204 204 203 184 122 32 17 51 122 129 43 49 51 48 46 25 23 25 13 13 6 1 0 0 0 0 0 0 0 0 0 
0 0 0 0 0 0 0 0 0 0 0 0 0 0 0 0 0 0 0 0 0 0 48 43 65 69 69 74 70 70 76 70 70 72 72 70 70 72 70 71 71 70 80 71 74 76 79 89 105 141 166 191 204 204 204 204 204 204 204 204 204 204 203 193 159 79 59 88 113 123 43 48 52 47 46 32 24 32 28 38 3 0 0 0 0 0 0 0 0 0 0 
0 0 0 0 0 0 0 0 0 0 0 0 0 0 0 0 0 0 0 0 0 30 72 52 67 69 74 71 70 71 77 70 70 73 75 70 70 76 70 70 71 75 75 70 72 78 74 81 84 101 132 154 182 204 204 204 204 204 204 204 204 204 204 176 146 94 73 109 118 140 77 79 83 78 78 71 62 71 69 73 24 19 30 0 0 0 0 0 0 0 0 
0 0 0 0 0 0 0 0 0 0 0 0 0 0 0 0 0 0 0 0 0 47 64 61 68 69 77 71 70 71 72 70 75 72 76 70 70 78 70 70 72 76 73 70 67 74 72 76 79 86 94 117 140 177 204 204 204 204 204 204 204 191 177 143 117 93 84 106 145 153 124 126 131 125 125 121 111 121 121 126 68 63 64 18 0 0 0 0 0 0 0 
0 0 0 0 0 0 0 0 0 0 0 0 0 0 0 0 0 0 0 18 10 70 69 64 70 69 78 70 70 72 71 70 76 72 77 70 70 79 70 70 70 77 71 70 66 70 64 66 74 79 87 89 100 137 172 191 204 204 204 204 204 188 171 130 71 68 62 80 175 181 163 164 165 163 163 161 157 161 161 154 122 117 117 63 27 13 0 0 0 0 0 
0 0 0 0 0 0 0 0 0 0 0 0 0 0 0 0 0 0 0 29 26 61 68 67 71 69 74 70 75 70 70 70 77 70 72 70 70 75 70 70 70 72 70 70 65 63 62 56 65 71 78 83 79 97 138 154 182 204 204 204 204 185 165 143 51 74 67 75 187 189 180 181 182 180 180 179 176 179 179 179 161 159 145 117 73 48 18 0 0 0 0 
0 0 0 0 0 0 0 0 0 0 0 0 0 0 0 0 0 0 0 42 45 68 69 73 71 69 72 70 76 70 71 70 72 70 73 70 70 72 75 70 71 71 70 75 69 65 60 52 59 61 71 76 77 81 98 117 147 167 194 204 204 197 190 164 38 70 60 80 195 197 191 192 192 191 191 191 189 191 191 189 179 178 175 159 129 99 53 18 0 0 0 
0 0 0 0 0 0 0 0 0 0 0 0 0 0 0 0 0 0 0 58 45 67 69 75 70 69 71 70 78 70 71 70 71 70 72 75 70 71 77 70 71 70 70 76 70 67 66 56 56 57 64 70 73 77 89 89 109 132 158 177 196 199 194 155 38 70 53 99 199 200 197 197 197 197 197 197 196 197 197 196 191 190 187 178 163 143 104 49 20 0 0 
0 0 0 0 0 0 0 0 0 0 0 0 0 0 0 0 0 0 0 57 38 65 69 76 71 69 70 75 74 70 72 75 70 70 72 76 70 70 79 70 72 70 70 77 71 68 67 63 61 58 61 60 72 73 86 83 89 91 122 141 160 180 191 135 46 70 40 104 201 202 200 200 200 200 200 200 200 200 200 200 197 196 195 190 181 171 144 100 34 30 0 
0 0 0 0 0 0 0 0 0 0 0 0 0 0 0 0 0 0 0 53 23 57 69 72 71 74 70 76 74 70 70 76 70 70 70 77 70 70 74 70 75 70 70 72 70 69 68 70 67 65 63 53 67 72 80 76 81 86 91 101 124 142 150 106 55 70 25 95 203 203 202 192 202 202 202 202 202 202 202 202 200 200 199 196 191 185 164 139 58 46 0 
0 0 0 0 0 0 0 0 0 0 0 0 0 0 0 0 0 0 0 42 48 50 62 71 72 75 70 77 71 70 70 77 70 71 70 69 70 71 72 70 76 71 70 71 75 71 69 73 69 66 66 50 62 71 71 73 76 77 84 86 91 104 114 77 62 70 20 80 203 204 203 187 184 203 203 203 203 203 203 203 202 202 201 200 197 180 147 148 49 78 13 
0 0 0 0 0 0 0 0 0 0 0 0 0 0 0 0 0 0 0 61 87 64 47 70 70 76 70 72 72 66 70 72 70 71 70 60 70 71 71 70 77 71 70 70 76 71 69 75 70 68 67 55 50 70 54 71 73 74 77 79 85 84 80 61 65 70 26 67 204 204 204 185 159 190 204 204 204 204 204 204 203 203 203 202 187 153 144 158 79 93 33 
0 0 0 0 0 0 0 0 0 0 0 0 0 0 0 0 0 0 0 95 141 99 49 59 70 72 71 71 72 65 66 71 75 72 63 53 70 72 75 70 72 72 70 70 77 72 69 71 69 68 68 59 43 66 46 70 71 78 74 71 77 84 80 59 67 70 40 55 201 204 204 194 128 150 201 204 204 204 204 204 204 204 203 194 158 138 148 162 107 124 60 
0 0 0 0 0 0 0 0 0 0 0 0 0 0 0 0 0 0 22 126 168 142 80 51 70 71 71 70 72 64 62 70 76 70 54 50 70 70 76 70 71 70 70 70 72 70 69 71 74 69 69 64 43 55 41 70 70 72 75 76 86 83 85 69 64 70 51 48 192 204 204 198 113 117 168 182 185 191 185 185 201 194 190 171 127 143 178 187 145 130 56 
0 0 0 0 0 0 0 0 0 0 0 0 0 0 0 0 0 0 67 158 184 171 128 66 59 70 72 70 75 67 56 66 77 70 47 51 70 70 77 70 72 75 70 70 73 70 74 72 75 69 69 66 52 41 34 70 63 76 86 87 98 95 98 82 76 74 53 34 162 191 185 179 97 116 156 174 182 188 182 159 168 180 188 165 128 170 188 192 134 102 43 
0 0 0 0 0 0 0 0 0 0 0 0 0 0 0 0 0 29 122 179 193 185 164 105 65 63 70 70 76 68 58 62 72 70 41 55 70 70 74 70 72 76 70 70 77 70 75 72 76 69 69 69 61 36 25 63 57 81 101 106 114 104 114 99 90 87 67 35 116 156 171 135 103 133 150 168 177 185 177 150 156 175 185 168 150 185 196 190 129 65 19 
0 0 0 0 0 0 0 0 0 0 0 0 0 0 0 0 0 75 160 190 198 194 181 148 91 66 66 70 77 69 61 56 71 70 38 56 70 70 73 70 72 77 70 70 78 70 76 72 72 69 69 70 64 39 15 58 53 101 114 116 119 117 111 105 110 102 82 51 95 119 137 81 82 118 167 177 194 197 194 162 150 182 197 189 178 194 199 172 96 33 12 
0 0 0 0 0 0 0 0 0 0 0 0 0 0 0 0 32 131 179 196 201 198 192 173 135 92 65 63 72 69 65 58 70 70 29 60 70 70 78 70 70 72 70 70 78 70 72 70 71 74 69 71 67 49 11 48 51 113 120 121 124 121 113 95 91 115 107 80 93 103 128 55 86 119 133 140 178 196 197 185 179 194 199 194 188 198 179 157 75 19 6 
0 0 0 0 0 0 0 0 0 0 0 0 0 0 0 0 79 164 190 200 202 201 197 187 168 132 91 66 64 69 67 61 63 70 23 58 70 70 77 70 70 71 70 71 73 70 71 70 72 75 69 70 68 56 19 45 43 120 124 124 126 125 113 95 81 95 108 103 115 109 114 65 74 98 112 94 137 170 168 170 180 198 202 199 196 189 149 118 34 10 3 
0 0 0 0 0 0 0 0 0 0 0 0 0 0 0 32 136 182 196 202 203 202 200 195 183 167 126 92 67 66 68 65 58 66 13 58 70 70 78 70 71 75 70 71 72 70 70 70 72 76 69 70 69 63 33 39 32 106 126 126 127 126 122 101 75 86 87 96 119 119 122 87 98 120 86 60 85 124 153 141 148 172 181 182 181 166 98 85 21 5 1 
0 0 0 0 0 0 0 0 0 0 0 0 0 0 0 79 166 192 200 203 204 203 202 199 193 182 166 132 93 70 62 63 55 55 7 58 70 70 74 70 71 76 70 72 71 75 70 70 72 72 69 76 69 65 48 34 44 101 118 127 128 127 124 116 98 80 83 86 98 116 124 107 108 103 102 66 58 92 103 91 101 157 156 164 169 119 63 40 11 3 0 
0 0 0 0 0 0 0 0 0 0 0 0 0 0 32 136 183 197 202 204 204 204 203 201 198 192 181 167 132 97 74 62 54 45 4 61 70 70 74 70 72 77 70 70 70 77 66 66 60 74 67 81 59 64 54 35 52 98 110 128 128 128 126 120 112 103 85 82 95 100 109 111 118 122 102 86 68 82 100 56 53 108 106 116 122 75 32 25 6 1 0 
0 0 0 0 0 0 0 0 0 0 0 0 0 0 79 166 192 200 203 204 204 204 204 203 201 197 192 182 168 134 102 88 70 40 2 65 70 70 78 70 70 72 70 70 66 72 70 79 84 101 94 110 84 77 58 31 56 113 107 119 123 128 127 124 119 114 111 97 90 96 99 93 108 122 118 104 90 99 85 41 61 83 72 81 88 38 19 13 3 0 0 
0 0 0 0 0 0 0 0 0 0 0 0 0 29 136 183 198 202 204 204 204 204 204 203 202 200 197 192 183 169 144 124 100 75 4 63 70 70 77 70 70 71 76 66 61 84 97 107 114 134 126 137 114 107 87 54 40 107 113 118 108 120 128 126 123 120 116 113 114 99 94 90 100 103 114 115 109 106 107 57 72 51 35 39 42 22 10 7 1 0 0 
0 0 0 0 0 0 0 0 0 0 0 0 0 75 166 192 201 203 204 204 204 204 204 204 203 202 200 197 193 183 172 165 143 115 18 60 70 70 78 70 70 70 67 73 87 111 134 146 162 170 167 172 162 146 124 88 58 92 112 116 104 104 106 123 125 124 122 119 118 116 109 91 96 96 99 98 113 118 115 83 101 66 35 24 26 12 5 4 0 0 0 
0 0 0 0 0 0 0 0 0 0 0 0 18 131 183 198 202 204 204 204 204 204 204 204 204 203 202 200 198 193 186 180 171 161 40 55 70 70 74 70 70 63 74 101 121 153 169 173 178 183 181 184 178 173 165 137 96 84 100 127 106 99 94 101 113 126 125 123 123 120 118 113 108 91 95 97 101 105 116 105 105 88 53 31 34 6 3 2 0 0 0 
0 0 0 0 0 0 0 0 0 0 0 0 49 164 192 201 203 204 204 204 204 204 204 204 204 204 203 202 201 198 194 192 185 178 76 50 70 70 79 70 63 66 94 139 164 175 183 186 191 193 192 194 191 186 180 168 145 107 93 122 119 104 88 96 88 111 126 125 125 124 122 118 118 111 99 94 99 96 101 99 118 108 82 55 58 22 1 1 0 0 0 
0 0 0 0 0 0 0 0 0 0 0 0 92 182 198 202 204 204 204 204 204 204 204 204 204 204 204 203 202 201 199 197 194 190 115 50 70 70 79 70 57 92 137 171 180 188 193 194 196 198 197 198 196 194 192 184 171 142 113 120 118 118 106 94 81 95 105 120 127 126 125 123 122 117 116 115 100 91 98 99 108 99 97 82 90 46 14 0 0 0 0 
0 0 0 0 0 0 0 0 0 0 0 18 129 192 201 203 204 204 204 204 204 204 204 204 204 204 204 204 203 202 201 200 198 196 152 66 63 70 78 66 63 132 169 185 191 195 198 199 200 201 200 201 200 199 197 193 186 172 145 130 117 114 116 115 88 89 97 97 110 127 126 125 125 123 120 119 117 106 100 97 108 101 97 85 93 66 38 13 0 0 0 
0 0 0 0 0 0 0 0 0 0 0 44 158 197 202 204 204 204 204 204 204 204 204 204 204 204 204 204 204 203 203 202 201 200 176 103 51 70 73 65 97 167 184 194 197 199 201 201 202 202 202 202 202 201 200 198 194 185 174 154 132 113 108 119 111 100 91 91 95 105 120 127 126 125 124 124 120 116 117 113 106 100 100 91 96 78 63 38 12 0 0 
0 0 0 0 0 0 0 0 0 0 0 80 180 200 203 204 204 204 204 204 204 204 204 204 204 204 204 204 204 204 203 203 202 202 188 143 55 63 72 65 136 182 193 198 200 201 202 203 203 203 203 203 203 203 202 201 199 194 186 179 154 127 104 110 117 115 111 92 89 97 97 114 127 127 126 126 124 121 120 119 120 117 108 98 97 88 85 71 40 30 0 
0 0 0 0 0 0 0 0 0 0 0 106 190 202 204 204 204 204 204 204 204 204 204 204 204 204 204 204 204 204 204 204 203 203 195 172 87 59 67 74 169 192 198 201 202 203 203 203 204 204 204 204 204 203 203 202 201 198 195 189 180 152 117 105 109 120 117 114 102 91 91 111 119 127 127 127 126 124 124 123 122 120 119 115 112 107 98 95 74 50 0 
0 0 0 0 0 0 0 0 0 0 0 138 197 203 204 204 204 204 204 204 204 204 204 204 204 204 204 204 204 204 204 204 204 204 199 186 132 70 59 81 184 197 201 202 203 203 204 204 204 204 204 204 204 204 204 203 203 201 199 196 189 178 148 118 105 108 123 118 115 111 92 108 118 128 128 128 127 126 126 125 125 124 122 120 119 116 114 110 100 72 0 
0 0 0 0 0 0 0 0 0 0 0 154 200 204 204 204 204 204 204 204 204 204 204 204 204 204 204 204 204 204 204 204 204 204 201 194 166 106 61 77 193 200 202 203 204 204 204 204 204 204 204 204 204 204 204 204 203 202 201 200 196 189 176 148 118 103 108 123 120 117 114 121 116 128 128 128 128 127 127 121 118 126 117 124 123 122 119 118 112 63 0 
0 0 0 0 0 0 0 0 0 0 0 162 202 204 204 204 204 204 204 204 204 204 204 204 204 204 204 204 204 204 204 204 204 204 203 199 182 144 90 69 189 202 203 204 204 204 204 204 204 204 204 204 204 204 204 204 204 203 203 202 200 196 187 176 148 115 108 111 124 123 118 123 124 128 128 128 128 128 128 121 108 120 99 103 108 116 120 117 102 52 0 
0 0 0 0 0 0 0 0 0 0 0 167 203 204 204 204 204 204 204 204 204 204 204 204 204 204 204 204 204 204 204 204 204 204 203 201 192 173 131 89 161 203 204 204 204 204 204 204 204 204 204 204 204 204 204 204 204 204 203 203 202 200 195 187 176 147 120 106 112 125 123 126 125 128 128 128 128 128 128 120 105 119 94 96 96 90 119 93 77 36 0 
0 0 0 0 0 0 0 0 0 0 0 170 204 204 204 204 204 204 204 204 204 204 204 204 204 204 204 204 204 204 204 204 204 204 204 203 197 186 167 123 141 176 204 204 204 204 204 204 204 204 204 204 204 204 204 204 204 204 204 204 203 202 199 195 187 175 155 118 107 114 125 127 127 128 128 128 128 128 128 125 111 118 98 91 90 75 93 62 44 17 0 
0 0 0 0 0 0 0 0 0 0 0 181 204 204 204 204 204 204 204 204 204 204 204 204 204 204 204 204 204 204 204 204 204 204 204 203 200 194 182 165 127 130 182 204 204 204 204 204 204 204 204 204 204 204 204 204 204 204 204 204 204 203 201 199 195 187 178 149 119 106 116 128 127 128 128 128 128 128 128 126 120 124 115 111 104 67 66 31 24 10 0 
0 0 0 0 0 0 0 0 0 0 0 181 204 204 204 204 204 204 204 204 204 204 204 204 204 204 204 204 204 204 204 204 204 204 204 204 202 199 192 180 122 83 159 185 204 204 204 204 204 204 204 204 204 204 204 204 204 204 204 204 204 204 203 201 199 195 189 176 149 117 103 114 128 128 128 128 128 128 128 127 123 125 120 117 116 88 31 18 13 5 0 
0 0 0 0 0 0 0 0 0 0 0 183 204 204 204 204 204 204 204 204 204 204 204 204 204 204 204 204 204 204 204 204 204 204 204 204 203 201 197 192 90 73 138 166 191 204 204 204 204 204 204 204 204 204 204 204 204 204 204 204 204 204 203 203 201 199 196 188 176 145 114 94 124 128 128 128 128 128 128 128 126 118 124 123 121 91 19 9 7 3 0 
0 0 0 0 0 0 0 0 0 0 0 170 204 204 204 204 204 204 204 204 204 204 204 204 204 204 204 204 204 204 204 204 204 204 204 204 204 203 200 183 59 91 140 147 176 196 204 204 204 204 204 204 204 204 204 204 204 204 204 204 204 204 204 203 203 201 200 195 188 175 139 89 108 128 128 128 128 128 128 119 127 100 109 118 119 96 10 5 4 1 0 
0 0 0 0 0 0 0 0 0 0 0 152 204 204 204 204 204 204 204 204 204 204 204 204 204 204 204 204 204 204 204 204 204 204 204 204 204 203 202 165 45 113 143 146 159 182 196 204 204 204 204 204 204 204 204 204 204 204 204 204 204 204 204 204 203 203 202 199 195 187 173 113 97 118 128 128 128 128 128 109 112 81 98 118 120 90 5 2 2 0 0 
0 0 0 0 0 0 0 0 0 0 0 132 204 204 204 204 204 204 204 204 204 204 204 204 204 204 204 204 204 204 204 204 204 204 204 204 204 204 203 138 58 128 144 146 154 166 182 192 204 204 204 204 204 204 204 204 204 204 204 204 204 204 204 204 204 203 203 201 199 195 185 149 102 99 128 128 128 128 128 105 99 68 80 114 114 81 3 1 1 0 0 
0 0 0 0 0 0 0 0 0 0 0 118 204 204 204 204 204 204 204 204 204 204 196 185 182 180 182 194 201 204 204 204 204 204 204 204 204 204 204 111 84 135 145 146 150 157 166 178 189 196 204 204 204 204 204 204 204 204 204 204 204 204 204 204 204 204 204 203 201 199 194 175 132 81 125 128 128 123 125 111 93 79 92 120 119 70 1 0 0 0 0 
0 0 0 0 0 0 0 0 0 0 0 89 191 204 204 204 204 204 204 204 204 191 175 168 173 172 173 178 173 185 204 204 204 204 204 204 204 204 204 90 105 140 145 146 148 152 157 161 174 182 191 204 204 204 204 204 204 204 204 204 204 204 204 204 204 204 204 203 203 201 198 187 161 80 115 128 128 122 124 106 98 93 91 120 118 61 0 0 0 0 0 
0 0 0 0 0 0 0 0 0 0 0 61 169 204 204 204 204 204 204 196 185 179 169 161 166 166 166 173 163 154 182 204 204 204 204 204 204 204 204 71 122 142 145 146 147 149 152 155 156 166 176 182 194 204 204 204 204 204 204 204 204 204 204 204 204 204 204 204 203 203 201 195 181 95 104 128 128 121 123 107 103 98 95 118 121 62 0 0 0 0 0 
0 0 0 0 0 0 0 0 0 0 0 30 140 204 204 204 204 204 191 172 182 174 173 175 185 187 185 179 159 144 150 191 204 204 204 204 204 204 204 64 129 144 145 146 146 147 149 150 153 157 159 166 160 185 204 204 204 204 204 204 204 204 204 204 204 204 204 204 204 203 202 199 191 117 90 128 128 126 126 92 101 101 95 118 116 51 0 0 0 0 0 
0 0 0 0 0 0 0 0 0 0 0 18 102 196 204 204 204 191 169 165 177 185 191 190 193 193 193 193 184 155 126 161 204 204 204 204 204 204 201 59 137 144 145 146 146 146 147 148 149 152 154 146 139 159 182 194 204 204 204 204 204 204 204 204 204 204 204 204 204 204 203 201 197 134 83 128 128 126 118 93 93 86 98 117 107 36 0 0 0 0 0 
0 0 0 0 0 0 0 0 0 0 0 9 67 175 204 204 191 166 162 168 194 194 195 196 198 199 198 197 191 182 137 125 199 204 204 204 204 204 200 57 140 145 145 146 146 146 146 147 148 149 150 150 126 139 166 170 175 185 204 204 204 204 204 204 204 204 204 204 204 204 204 203 200 151 65 125 128 127 117 90 97 97 109 124 96 17 0 0 0 0 0 
0 0 0 0 0 0 0 0 0 0 0 5 33 128 204 196 161 158 170 189 197 198 200 200 201 201 201 201 198 190 162 106 185 204 204 204 204 204 199 55 139 145 145 146 146 146 146 146 147 147 148 146 140 136 146 151 154 153 172 182 204 204 204 204 204 204 204 204 204 204 204 203 202 152 58 110 114 128 115 103 99 96 111 125 91 10 0 0 0 0 0 
0 0 0 0 0 0 0 0 0 0 0 2 20 82 185 170 152 165 189 194 201 201 202 202 202 203 202 202 200 197 182 114 162 204 204 204 204 204 202 55 140 145 145 146 146 146 146 146 146 146 147 146 140 142 150 141 132 131 154 155 172 182 194 204 204 204 204 204 204 204 204 204 203 142 67 107 98 111 110 102 102 102 107 113 71 5 0 0 0 0 0 
0 0 0 0 0 0 0 0 0 0 0 1 10 42 161 150 158 187 194 199 202 202 203 203 203 203 203 203 202 200 191 139 137 204 204 204 204 204 203 59 133 145 145 146 146 146 146 146 146 146 146 146 143 143 146 146 141 127 132 134 154 159 160 177 191 204 204 204 204 204 204 204 190 117 93 110 95 111 112 97 86 96 100 99 52 3 0 0 0 0 0 
0 0 0 0 0 0 0 0 0 0 0 0 6 24 134 149 185 193 199 201 203 203 204 204 204 204 204 204 203 202 197 165 123 204 204 204 204 204 204 67 124 145 145 146 146 146 146 146 146 146 146 146 144 144 146 145 142 139 144 135 132 138 139 160 166 182 185 191 196 194 201 185 159 108 119 127 102 104 111 99 87 99 94 68 24 1 0 0 0 0 0 
0 0 0 0 0 0 0 0 0 0 0 0 3 33 142 169 191 199 201 203 204 204 204 204 204 204 204 204 204 203 200 183 111 204 204 204 204 204 204 79 104 145 145 146 146 146 146 146 146 146 146 146 145 145 146 145 144 140 142 141 144 140 126 139 146 166 166 169 165 160 171 159 138 112 130 135 120 113 108 90 82 99 98 47 15 0 0 0 0 0 0 
0 0 0 0 0 0 0 0 0 0 0 0 1 59 159 186 198 201 203 203 204 204 204 204 204 204 204 204 204 204 202 192 110 204 204 204 204 204 204 107 85 145 145 146 146 146 146 146 146 146 146 146 145 145 146 145 144 143 144 142 142 143 140 144 129 129 140 150 145 139 153 139 129 128 137 140 125 113 107 96 102 99 79 23 7 0 0 0 0 0 0 
0 0 0 0 0 0 0 0 0 0 0 0 19 107 183 194 200 203 203 204 204 204 204 204 204 204 204 204 204 204 203 198 104 204 204 204 204 204 204 138 68 145 145 146 146 146 146 146 146 146 146 146 145 145 146 145 145 144 144 144 144 144 140 140 132 126 121 123 122 126 135 136 141 128 123 139 136 122 110 95 105 84 54 14 4 0 0 0 0 0 0 
0 0 0 0 0 0 0 0 0 0 0 0 50 142 191 199 202 203 204 204 204 204 204 204 204 204 204 204 204 204 204 201 106 204 204 204 204 204 204 168 63 138 145 146 146 146 146 146 146 146 146 146 145 145 146 145 145 145 145 144 144 145 143 141 129 118 115 121 113 120 128 135 138 131 101 122 129 124 113 101 99 99 26 7 2 0 0 0 0 0 0 
0 0 0 0 0 0 0 0 0 0 0 18 96 172 197 201 203 204 204 204 204 204 204 204 204 204 204 204 204 204 204 199 105 204 204 204 204 204 204 184 77 126 145 146 146 146 146 146 146 146 146 146 145 145 146 145 145 145 145 145 145 145 144 143 139 126 114 115 107 116 123 124 129 125 87 115 130 126 115 95 100 80 16 4 1 0 0 0 0 0 0 
0 0 0 0 0 0 0 0 0 0 0 41 133 185 200 203 204 204 204 204 204 204 204 204 204 204 204 204 204 204 204 186 114 204 204 204 204 204 204 193 110 105 145 146 146 146 146 146 146 146 146 146 145 145 146 145 145 145 145 145 145 145 145 144 141 129 112 114 107 114 120 122 127 131 97 111 124 127 109 66 70 66 8 2 0 0 0 0 0 0 0 
0 0 0 0 0 0 0 0 0 0 18 81 163 194 202 203 204 204 204 204 204 204 204 204 204 204 204 204 204 204 204 164 125 204 204 204 204 204 204 198 146 99 135 146 146 146 146 146 146 146 146 146 145 145 146 145 145 145 145 145 145 145 145 145 143 131 112 105 106 123 136 123 111 111 117 126 133 136 96 51 64 29 4 1 0 0 0 0 0 0 0 
0 0 0 0 0 0 0 0 0 0 41 116 182 198 203 204 204 204 204 204 204 204 204 204 204 204 204 204 204 204 204 138 148 204 204 204 204 204 204 201 174 116 126 139 146 146 146 146 146 146 146 146 145 145 146 145 145 145 145 145 145 145 145 145 144 139 115 103 106 124 135 133 111 98 120 131 132 109 63 23 26 19 2 0 0 0 0 0 0 0 0 
0 0 0 0 0 0 0 0 0 18 76 153 192 201 204 204 204 204 204 204 204 204 204 204 204 204 204 204 204 204 204 118 169 204 204 204 204 204 204 202 187 147 134 135 139 146 146 146 146 146 146 146 145 145 146 145 145 145 145 145 145 145 145 145 145 141 133 122 112 126 138 135 107 91 124 137 109 76 31 14 18 9 1 0 0 0 0 0 0 0 0 
0 0 0 0 0 0 0 0 0 36 110 176 197 202 204 204 204 204 204 204 204 204 204 204 204 204 204 204 204 204 191 106 186 204 204 204 204 204 204 203 195 175 156 145 135 128 146 146 146 146 146 146 145 145 146 145 145 145 145 145 145 145 145 145 145 143 116 115 110 130 131 137 124 108 117 110 75 37 18 7 8 5 0 0 0 0 0 0 0 0 0 
0 0 0 0 0 0 0 0 30 65 146 188 200 203 204 204 204 204 204 204 204 204 204 204 204 204 204 204 204 204 166 94 171 191 199 204 204 204 204 204 199 187 181 165 145 109 125 142 146 146 146 146 145 145 146 145 145 145 145 145 145 145 145 145 145 144 116 117 108 131 134 138 123 118 97 76 36 22 9 4 5 2 0 0 0 0 0 0 0 0 0 
0 0 0 0 0 0 0 0 46 97 174 195 202 204 204 204 204 204 204 204 204 204 204 204 204 204 204 204 204 196 148 72 131 178 178 189 182 185 191 190 191 181 168 157 143 100 119 126 139 146 146 146 145 145 146 145 145 145 145 145 145 145 128 125 145 145 113 116 107 132 133 122 128 94 63 37 22 11 5 2 2 1 0 0 0 0 0 0 0 0 0 
0 0 0 0 0 0 0 0 74 136 187 199 203 204 204 204 204 204 204 204 204 204 204 204 204 204 204 204 204 175 112 46 79 131 131 145 137 141 147 147 149 142 129 129 148 123 125 134 135 139 142 146 145 145 146 145 145 145 145 145 142 145 125 110 145 145 133 134 127 123 111 93 118 83 50 43 11 6 2 1 1 0 0 0 0 0 0 0 0 0 0 
0 0 0 0 0 0 0 18 85 169 195 201 204 204 204 204 204 204 204 204 204 204 204 204 204 204 204 204 204 149 82 23 42 92 82 92 82 87 95 94 98 92 78 81 107 131 146 147 145 149 143 134 145 145 146 145 145 145 145 145 124 145 121 103 145 145 133 127 113 111 88 68 131 96 82 58 27 3 1 0 0 0 0 0 0 0 0 0 0 0 0 
0 0 0 0 0 0 0 36 124 184 199 203 204 204 204 204 204 204 204 204 204 204 204 204 204 204 204 204 182 107 38 13 24 44 42 47 43 45 48 48 49 46 41 52 81 110 144 151 162 161 154 143 143 138 146 145 145 145 145 145 120 145 136 119 145 125 120 119 121 105 72 86 142 138 127 103 41 1 0 0 0 0 0 0 0 0 0 0 0 0 0 
0 0 0 0 0 0 30 65 156 193 201 203 204 204 204 204 204 204 204 204 204 204 204 204 204 204 204 196 166 71 24 7 13 27 24 27 25 26 28 28 29 27 23 26 37 67 107 144 148 171 172 154 155 149 144 135 138 142 145 145 119 145 128 114 126 114 129 127 129 111 105 126 169 169 164 136 66 31 0 0 0 0 0 0 0 0 0 0 0 0 0 
0 0 0 0 0 0 55 88 179 198 203 204 204 204 204 204 204 204 204 204 204 204 204 204 204 204 204 172 117 35 12 4 7 14 13 14 13 14 15 15 15 14 12 15 23 35 70 103 108 145 166 182 169 161 155 145 126 124 128 125 118 130 104 98 134 119 143 150 151 125 139 165 185 184 181 170 86 55 0 0 0 0 0 0 0 0 0 0 0 0 0 
0 0 0 0 0 0 85 126 190 201 203 204 204 204 204 204 204 204 204 204 204 204 204 204 204 204 185 124 85 21 7 2 4 8 7 8 7 8 8 8 8 8 7 8 12 20 35 80 59 100 146 159 187 185 169 156 134 132 128 119 129 135 87 105 144 150 177 178 151 142 171 181 193 193 192 184 122 80 0 0 0 0 0 0 0 0 0 0 0 0 0 
0 0 0 0 0 0 93 157 196 202 204 204 204 204 204 204 204 204 204 204 204 204 204 204 204 191 141 78 40 11 3 1 2 4 4 4 4 4 4 4 4 4 3 4 7 11 21 36 33 59 100 143 163 192 187 183 152 145 136 125 143 131 91 132 178 176 187 180 146 167 185 192 198 198 197 193 156 78 0 0 0 0 0 0 0 0 0 0 0 0 0 
0 0 0 0 0 20 122 179 200 203 204 204 204 204 204 204 204 204 204 204 204 204 204 204 196 172 87 40 25 6 2 0 1 2 2 2 2 2 2 2 2 2 2 2 3 6 11 23 18 31 68 94 146 171 194 190 180 178 167 158 177 154 126 170 187 188 195 172 150 184 194 197 201 201 200 198 178 82 0 0 0 0 0 0 0 0 0 0 0 0 0 
0 0 0 0 0 43 152 190 202 204 204 204 204 204 204 204 204 204 204 204 204 204 204 194 172 125 45 23 13 3 1 0 0 1 1 1 1 1 1 1 1 1 1 1 2 3 6 11 10 18 33 71 97 152 180 197 189 187 183 179 187 161 156 183 196 195 199 152 160 193 198 200 202 202 202 201 186 90 0 0 0 0 0 0 0 0 0 0 0 0 0 
0 0 0 0 0 84 177 196 203 204 204 204 204 204 204 204 204 204 204 204 204 204 204 170 124 84 26 12 7 1 0 0 0 0 0 0 0 0 0 0 0 0 0 0 1 1 3 6 5 9 20 33 74 103 156 186 196 196 193 190 195 181 179 193 199 199 198 136 176 198 201 202 203 203 203 202 183 104 0 0 0 0 0 0 0 0 0 0 0 0 0 
0 0 0 0 0 117 188 200 204 204 204 204 204 204 204 204 204 204 204 204 204 204 182 166 78 41 14 7 4 0 0 0 0 0 0 0 0 0 0 0 0 0 0 0 0 0 1 3 3 5 10 20 34 76 108 158 191 199 198 196 199 191 190 198 202 201 185 124 190 201 202 203 204 204 204 203 171 89 0 0 0 0 0 0 0 0 0 0 0 0 0 
0 0 0 0 37 154 196 202 204 204 204 204 204 204 204 204 204 204 204 204 204 182 137 130 40 25 8 3 2 0 0 0 0 0 0 0 0 0 0 0 0 0 0 0 0 0 0 1 1 2 6 10 21 35 71 109 169 198 201 200 201 197 196 201 203 203 160 128 196 202 203 204 204 204 204 204 149 69 0 0 0 0 0 0 0 0 0 0 0 0 0 
0 0 0 0 81 177 199 203 204 204 204 204 204 204 204 204 204 204 204 204 182 137 82 103 23 13 4 2 1 0 0 0 0 0 0 0 0 0 0 0 0 0 0 0 0 0 0 0 0 1 3 6 11 22 35 67 123 176 202 202 203 200 200 202 204 203 132 146 200 203 204 204 204 204 204 190 140 31 0 0 0 0 0 0 0 0 0 0 0 0 0 
0 0 0 44 138 189 202 204 204 204 204 204 204 204 204 204 204 204 204 182 137 82 43 46 12 7 2 1 0 0 0 0 0 0 0 0 0 0 0 0 0 0 0 0 0 0 0 0 0 0 1 3 6 11 21 35 77 131 184 203 203 202 202 203 204 190 116 169 202 204 204 204 204 204 204 160 107 20 0 0 0 0 0 0 0 0 0 0 0 0 0 
0 0 0 94 161 196 203 204 204 204 204 204 204 204 204 204 204 204 182 137 82 43 25 29 7 4 1 0 0 0 0 0 0 0 0 0 0 0 0 0 0 0 0 0 0 0 0 0 0 0 0 1 3 6 11 20 40 80 140 192 204 203 203 204 204 169 126 186 203 204 204 204 204 204 182 111 80 10 0 0 0 0 0 0 0 0 0 0 0 0 0 
0 0 0 153 182 200 204 204 204 204 204 204 204 204 204 204 204 173 150 113 43 25 13 15 3 2 0 0 0 0 0 0 0 0 0 0 0 0 0 0 0 0 0 0 0 0 0 0 0 0 0 0 1 3 6 11 23 42 87 149 195 204 204 204 191 143 149 194 204 204 204 204 204 185 162 67 37 6 0 0 0 0 0 0 0 0 0 0 0 0 0 
0 0 44 172 191 202 204 204 204 204 204 204 204 204 204 204 182 143 121 99 35 17 16 27 2 1 0 0 0 0 0 0 0 0 0 0 0 0 0 0 0 0 0 0 0 0 0 0 0 0 0 0 0 1 3 6 12 24 45 97 153 190 204 204 157 139 174 199 204 204 204 204 191 159 113 35 23 3 0 0 0 0 0 0 0 0 0 0 0 0 0 
0 0 90 188 197 203 204 204 204 204 204 204 204 204 201 182 167 131 131 132 66 52 46 46 11 50 0 0 0 0 0 0 0 0 0 0 0 0 0 0 0 0 0 0 0 0 0 0 0 0 0 0 0 0 1 3 7 13 26 49 102 147 191 204 120 152 187 201 204 204 204 191 171 109 80 20 12 1 0 0 0 0 0 0 0 0 0 0 0 0 0 
0 0 149 195 200 204 204 204 204 204 204 204 204 196 181 178 160 154 154 147 112 99 94 93 45 78 0 0 0 0 0 0 0 0 0 0 0 0 0 0 0 0 0 0 0 0 0 0 0 0 0 0 0 0 0 1 3 7 14 29 51 94 147 182 89 153 195 203 204 196 182 178 123 72 38 11 7 0 0 0 0 0 0 0 0 0 0 0 0 0 0 
0 29 167 199 202 204 204 204 204 204 204 201 194 180 177 172 178 180 180 178 158 153 142 128 94 116 0 0 0 0 0 0 0 0 0 0 0 0 0 0 0 0 0 0 0 0 0 0 0 0 0 0 0 0 0 0 2 4 8 15 30 48 95 137 74 124 172 181 182 173 137 131 82 36 23 6 3 0 0 0 0 0 0 0 0 0 0 0 0 0 0 
51 62 186 201 203 204 204 204 204 204 194 181 183 176 175 193 190 189 189 188 177 173 170 167 142 107 0 0 0 0 0 0 0 0 0 0 0 0 0 0 0 0 0 0 0 0 0 0 0 0 0 0 0 0 0 0 1 2 4 8 16 28 48 82 51 77 173 136 137 126 82 92 41 21 12 3 2 0 0 0 0 0 0 0 0 0 0 0 0 0 0 
61 110 193 203 204 204 204 204 204 204 192 177 179 180 193 196 196 196 196 196 190 188 185 182 170 116 0 0 0 0 0 0 0 0 0 0 0 0 0 0 0 0 0 0 0 0 0 0 0 0 0 0 0 0 0 0 0 1 2 4 9 15 28 43 33 40 128 82 82 80 43 44 24 11 7 1 1 0 0 0 0 0 0 0 0 0 0 0 0 0 0 
95 138 198 203 204 204 204 204 204 204 190 175 186 194 196 200 200 200 200 199 196 195 194 192 176 113 0 0 0 0 0 0 0 0 0 0 0 0 0 0 0 0 0 0 0 0 0 0 0 0 0 0 0 0 0 0 0 0 1 2 5 8 15 25 16 23 106 43 43 41 25 27 13 6 3 0 0 0 0 0 0 0 0 0 0 0 0 0 0 0 0 
72 159 201 204 204 204 204 204 204 204 199 193 196 197 200 202 202 202 202 202 200 199 198 184 156 86 0 0 0 0 0 0 0 0 0 0 0 0 0 0 0 0 0 0 0 0 0 0 0 0 0 0 0 0 0 0 0 0 0 1 2 4 8 13 9 12 46 25 25 24 13 14 7 3 2 0 0 0 0 0 0 0 0 0 0 0 0 0 0 0 0 
74 151 202 204 204 204 204 204 204 204 200 196 199 201 202 203 203 203 203 203 202 193 179 164 112 58 0 0 0 0 0 0 0 0 0 0 0 0 0 0 0 0 0 0 0 0 0 0 0 0 0 0 0 0 0 0 0 0 0 0 1 2 4 7 5 7 30 13 13 13 7 8 4 1 1 0 0 0 0 0 0 0 0 0 0 0 0 0 0 0 0 
48 113 191 196 204 204 204 204 204 204 202 200 202 202 203 204 204 204 204 190 181 180 135 117 67 28 0 0 0 0 0 0 0 0 0 0 0 0 0 0 0 0 0 0 0 0 0 0 0 0 0 0 0 0 0 0 0 0 0 0 0 1 2 4 2 3 15 7 7 7 4 4 2 0 0 0 0 0 0 0 0 0 0 0 0 0 0 0 0 0 0 
24 71 148 153 194 182 182 182 194 196 200 202 199 203 200 194 190 182 182 177 136 136 81 76 35 17 0 0 0 0 0 0 0 0 0 0 0 0 0 0 0 0 0 0 0 0 0 0 0 0 0 0 0 0 0 0 0 0 0 0 0 0 1 2 1 2 9 4 4 4 2 2 1 0 0 0 0 0 0 0 0 0 0 0 0 0 0 0 0 0 0 
14 36 96 102 151 137 137 167 171 172 169 176 169 176 169 171 177 137 137 131 82 92 43 38 20 9 0 0 0 0 0 0 0 0 0 0 0 0 0 0 0 0 0 0 0 0 0 0 0 0 0 0 0 0 0 0 0 0 0 0 0 0 0 1 0 1 4 2 2 2 1 1 0 0 0 0 0 0 0 0 0 0 0 0 0 0 0 0 0 0 0 
7 21 48 51 105 86 86 129 134 135 131 141 130 141 131 134 143 86 86 98 43 45 24 22 11 5 0 0 0 0 0 0 0 0 0 0 0 0 0 0 0 0 0 0 0 0 0 0 1 7 8 14 14 16 16 15 2 0 0 0 0 0 0 0 0 0 2 1 1 1 0 0 0 0 0 0 0 0 0 0 0 0 0 0 0 0 0 0 0 0 0 
4 11 28 30 58 48 48 107 97 96 83 92 83 92 83 97 114 48 48 53 25 27 13 12 6 2 0 0 0 0 0 0 0 0 0 0 0 0 0 0 0 0 0 0 0 0 10 1 9 26 29 39 43 45 45 38 10 0 0 0 0 0 0 0 0 0 1 0 0 0 0 0 0 0 0 0 0 0 0 0 0 0 0 0 0 0 0 0 0 0 0 
